<svg width="30" height="34" viewBox="0 0 30 34" fill="none" xmlns="http://www.w3.org/2000/svg">
<g clip-path="url(#clip0_16_2809)">
<path d="M29.3239 18.5008C30.1596 17.6707 30.1596 16.3227 29.3239 15.4926L18.6266 4.86758C17.7909 4.03751 16.4337 4.03751 15.598 4.86758C14.7622 5.69766 14.7622 7.04571 15.598 7.87579L22.6515 14.875H2.13946C0.956069 14.875 0 15.8246 0 17C0 18.1754 0.956069 19.125 2.13946 19.125H22.6448L15.6047 26.1242C14.7689 26.9543 14.7689 28.3024 15.6047 29.1324C16.4404 29.9625 17.7976 29.9625 18.6333 29.1324L29.3306 18.5074L29.3239 18.5008Z" fill="white"/>
</g>
<defs>
<clipPath id="clip0_16_2809">
<rect width="29.9524" height="34" fill="white"/>
</clipPath>
</defs>
</svg>
