<svg width="30" height="34" viewBox="0 0 30 34" fill="none" xmlns="http://www.w3.org/2000/svg">
<g clip-path="url(#clip0_16_2811)">
<path d="M0.628233 18.5008C-0.207493 17.6707 -0.207493 16.3227 0.628233 15.4926L11.3255 4.86758C12.1612 4.03751 13.5185 4.03751 14.3542 4.86758C15.1899 5.69766 15.1899 7.04571 14.3542 7.87579L7.30066 14.875H27.8127C28.9961 14.875 29.9521 15.8246 29.9521 17C29.9521 18.1754 28.9961 19.125 27.8127 19.125H7.30734L14.3475 26.1242C15.1832 26.9543 15.1832 28.3024 14.3475 29.1324C13.5118 29.9625 12.1546 29.9625 11.3188 29.1324L0.621546 18.5074L0.628233 18.5008Z" fill="white"/>
</g>
<defs>
<clipPath id="clip0_16_2811">
<rect width="29.9524" height="34" fill="white" transform="matrix(-1 0 0 1 29.9521 0)"/>
</clipPath>
</defs>
</svg>
