<svg width="440" height="440" viewBox="0 0 440 440" fill="none" xmlns="http://www.w3.org/2000/svg">
<path fill-rule="evenodd" clip-rule="evenodd" d="M419.766 208.299L419.534 212.452L419.227 216.595L418.849 220.725L418.4 224.84L417.882 228.938L417.298 233.017L416.648 237.075L415.936 241.109L415.163 245.12L414.33 249.104L413.439 253.06L412.493 256.987L411.492 260.884L410.439 264.749L409.334 268.582L408.181 272.382L406.979 276.146L405.73 279.876L404.437 283.569L403.099 287.225L401.718 290.843L400.296 294.423L398.834 297.964L397.332 301.465L395.792 304.926L394.214 308.346L392.601 311.724L390.952 315.062L389.269 318.357L387.553 321.61L385.806 324.82L384.027 327.988L382.22 331.113L380.384 334.196L378.521 337.237L376.633 340.236L374.72 343.193L372.783 346.108L370.823 348.981L368.841 351.813L366.836 354.603L364.81 357.351L362.762 360.056L360.692 362.718L358.601 365.336L356.488 367.91L354.352 370.437L352.195 372.918L350.015 375.351L347.813 377.734L345.587 380.067L343.339 382.347L341.067 384.574L338.771 386.744L336.452 388.857L334.109 390.911L331.743 392.904L329.353 394.834L326.94 396.699L324.504 398.498L322.046 400.229L319.567 401.891L317.066 403.482L314.546 405L312.006 406.445L309.449 407.816L306.874 409.112L304.285 410.332L301.681 411.476L299.064 412.544L296.437 413.537L293.8 414.454L291.156 415.296L288.506 416.064L285.851 416.76L283.194 417.384L280.536 417.937L277.879 418.421L275.224 418.837L272.572 419.187L269.925 419.472L267.284 419.694L264.651 419.855L262.026 419.956L259.412 420L256.809 419.989L254.218 419.924L251.64 419.809L249.075 419.646L246.526 419.436L243.992 419.184L241.474 418.89L238.973 418.559L236.489 418.191L234.022 417.79L231.572 417.358L229.14 416.898L226.726 416.411L224.329 415.901L221.949 415.368L219.587 414.815L217.241 414.244L214.912 413.656L212.598 413.052L210.3 412.435L208.016 411.805L205.747 411.162L203.491 410.508L201.249 409.843L199.019 409.167L196.8 408.48L194.593 407.782L192.397 407.071L190.211 406.348L188.035 405.611L185.868 404.859L183.711 404.09L181.563 403.303L179.424 402.496L177.294 401.667L175.174 400.814L173.063 399.935L170.962 399.027L168.873 398.089L166.794 397.117L164.727 396.11L162.674 395.064L160.635 393.979L158.611 392.85L156.603 391.677L154.614 390.458L152.643 389.189L150.694 387.871L148.767 386.5L146.863 385.077L144.985 383.599L143.134 382.067L141.312 380.48L139.52 378.837L137.759 377.138L136.032 375.385L134.339 373.577L132.681 371.716L131.059 369.804L129.475 367.841L127.929 365.83L126.421 363.773L124.95 361.675L123.517 359.539L122.12 357.369L120.757 355.17L119.427 352.945L118.128 350.7L116.858 348.439L115.613 346.168L114.39 343.891L113.187 341.612L111.998 339.337L110.821 337.069L109.651 334.813L108.484 332.572L107.316 330.349L106.141 328.148L104.956 325.97L103.757 323.817L102.538 321.691L101.295 319.593L100.025 317.523L98.7244 315.48L97.3887 313.464L96.0153 311.474L94.6014 309.506L93.1449 307.56L91.6441 305.631L90.0978 303.716L88.5055 301.812L86.8671 299.913L85.1831 298.016L83.454 296.116L81.681 294.208L79.8656 292.287L78.0096 290.35L76.1153 288.39L74.1853 286.404L72.2226 284.386L70.2305 282.333L68.2126 280.24L66.1731 278.103L64.116 275.917L62.046 273.68L59.968 271.388L57.8868 269.038L55.8078 266.626L53.7363 264.151L51.6779 261.611L49.6383 259.004L47.6232 256.327L45.6384 253.582L43.6898 250.766L41.7831 247.881L39.924 244.926L38.1184 241.901L36.3717 238.809L34.6894 235.651L33.0768 232.428L31.5389 229.142L30.0806 225.798L28.7066 222.397L27.4211 218.943L26.2281 215.439L25.1315 211.89L24.1345 208.299L23.2402 204.671L22.4512 201.01L21.7699 197.322L21.198 193.61L20.7366 189.881L20.3864 186.138L20.1473 182.387L20.0189 178.632L20 174.878L20.0891 171.131L20.2843 167.393L20.5832 163.669L20.9829 159.963L21.4803 156.279L22.0721 152.619L22.7546 148.987L23.5239 145.386L24.376 141.817L25.3067 138.283L26.312 134.786L27.3876 131.326L28.5293 127.905L29.733 124.524L30.9948 121.183L32.3107 117.883L33.6772 114.624L35.0909 111.406L36.5487 108.229L38.0477 105.093L39.5854 101.997L41.1598 98.9429L42.769 95.9292L44.4116 92.9566L46.0868 90.0255L47.7939 87.1365L49.5324 84.2905L51.3019 81.4882L53.1023 78.7306L54.9333 76.0187L56.7947 73.3536L58.6864 70.7366L60.6085 68.1689L62.5608 65.652L64.5432 63.1874L66.5559 60.7765L68.5986 58.421L70.6714 56.1226L72.7739 53.883L74.9062 51.704L77.0677 49.5872L79.2583 47.5346L81.4774 45.5477L83.7245 43.6284L85.999 41.7782L88.3001 39.9988L90.627 38.2917L92.9786 36.6582L95.354 35.0995L97.7518 33.617L100.171 32.2114L102.61 30.8837L105.067 29.6344L107.541 28.464L110.03 27.3727L112.532 26.3605L115.046 25.4273L117.57 24.5727L120.101 23.796L122.638 23.0963L125.179 22.4725L127.722 21.9235L130.264 21.4475L132.805 21.043L135.342 20.7079L137.873 20.4403L140.397 20.238L142.912 20.0987L145.416 20.0202L147.908 20L150.387 20.0357L152.85 20.1248L155.298 20.2648L157.729 20.4532L160.142 20.6873L162.536 20.9647L164.911 21.2828L167.265 21.639L169.599 22.0307L171.912 22.4554L174.203 22.9105L176.472 23.3936L178.72 23.9021L180.945 24.4335L183.149 24.9852L185.331 25.5548L187.491 26.1397L189.63 26.7372L191.748 27.3448L193.846 27.9597L195.923 28.5793L197.982 29.2007L200.022 29.8209L202.044 30.4369L204.05 31.0455L206.04 31.6434L208.016 32.2273L209.979 32.794L211.931 33.3405L213.873 33.8643L215.807 34.3629L217.735 34.834L219.659 35.2759L221.58 35.6869L223.5 36.0657L225.423 36.4113L227.349 36.723L229.281 37.0004L231.221 37.2434L233.17 37.4523L235.132 37.6275L237.108 37.77L239.099 37.8808L241.108 37.9614L243.137 38.0136L245.187 38.0394L247.259 38.041L249.355 38.021L251.477 37.9822L253.625 37.9275L255.801 37.8603L258.005 37.7838L260.238 37.7018L262.5 37.618L264.792 37.5362L267.114 37.4606L269.466 37.3951L271.847 37.3441L274.258 37.3118L276.697 37.3025L279.163 37.3205L281.656 37.3701L284.174 37.4557L286.717 37.5814L289.282 37.7515L291.867 37.97L294.472 38.2403L297.095 38.5657L299.733 38.9489L302.385 39.3925L305.051 39.8984L307.728 40.4686L310.415 41.1045L313.11 41.8076L315.813 42.579L318.522 43.4198L321.235 44.3307L323.952 45.3125L326.672 46.3659L329.392 47.4914L332.112 48.6897L334.831 49.9612L337.546 51.3065L340.258 52.7259L342.963 54.2201L345.662 55.7895L348.351 57.4347L351.03 59.1562L353.697 60.9546L356.349 62.8305L358.984 64.7845L361.601 66.8171L364.196 68.929L366.767 71.1208L369.312 73.393L371.826 75.7462L374.308 78.1807L376.754 80.6969L379.161 83.2949L381.524 85.9745L383.842 88.7356L386.111 91.5775L388.327 94.4996L390.488 97.5009L392.59 100.58L394.63 103.736L396.606 106.967L398.514 110.271L400.353 113.646L402.119 117.09L403.81 120.601L405.424 124.176L406.959 127.811L408.413 131.505L409.784 135.254L411.072 139.056L412.274 142.905L413.391 146.801L414.42 150.738L415.362 154.713L416.217 158.724L416.983 162.766L417.662 166.835L418.253 170.929L418.757 175.043L419.174 179.175L419.506 183.32L419.754 187.475L419.918 191.638L419.999 195.805L420 199.973L419.922 204.138L419.766 208.299Z" fill="#3B3B3B"/>
<path d="M366.732 60.7989C368.002 58.6678 369.875 56.1041 372.618 56.4767C372.726 56.4813 372.838 56.498 372.955 56.5285C380.36 58.4691 386.255 63.518 391.985 68.3358C394.849 70.7443 397.74 73.1444 400.907 75.1506C402.372 76.0789 403.898 76.9405 405.494 77.6219C406.298 77.9649 407.27 78.1674 408.004 78.6417C408.822 79.1696 409.094 80.0932 409.111 81.0141C409.117 81.3497 409.08 81.6844 409.065 82.02C409.051 82.3445 409.066 82.6145 409.111 82.8169C409.306 83.6879 409.49 84.5828 409.025 85.4094C408.216 86.8461 406.421 86.5891 405.055 86.394C400.458 85.7376 395.904 84.8362 391.423 83.6149C386.934 82.3917 382.526 80.8736 378.237 79.0716C374.462 77.4851 370.517 75.6166 367.975 72.2725C365.545 69.0736 364.584 64.4019 366.732 60.7989Z" fill="#DEB841"/>
<path d="M173.599 261.668C166.981 286.687 160.275 311.669 153.034 336.51C152.197 339.384 151.376 342.277 150.264 345.089C148.129 350.495 140.003 348.465 140.767 342.704C141.081 340.335 141.564 338.014 142.09 335.687C153.252 286.383 164.313 237.056 175.566 187.772C177.223 180.517 178.592 173.021 181.819 166.301C189.016 151.317 183.283 145.189 169.034 152.064C157.086 157.828 144.246 160.538 132.24 165.696C101.656 178.835 72.0333 194.35 39.4921 202.546C33.5935 204.031 29.518 207.324 30.046 213.518C30.5609 219.561 35.5294 220.558 40.8844 221.399C51.2985 223.036 58.3426 232.81 56.156 243.258C48.2216 281.171 49.6389 319.147 53.1947 357.417C56.6035 394.098 72.1646 421.026 107.172 435.889C128.99 445.154 168.408 438.238 186.918 420.365C200.963 406.803 210.756 391.146 216.208 371.947C227.67 331.585 233.775 290.487 238.665 248.919C243.78 205.434 249.578 161.996 257.575 118.846C261.573 97.2742 262.485 74.4731 272.608 55.2629C282.628 36.2459 305.135 33.9253 322.968 45.5367C336.64 54.4382 349.942 63.9018 363.472 73.0216C368.469 76.3906 374.269 80.7905 379.953 77.3808C385.656 73.959 385.47 66.2419 386.777 60.1195C387.576 56.3797 385.397 52.9284 381.652 51.7228C359.637 44.6334 344.472 27.5182 326.528 14.471C309.029 1.74839 289.693 -3.33105 268.492 2.24673C261.744 4.02278 257.011 8.39683 253.2 13.5881C249.58 18.5197 246.903 24.0734 245.089 29.9156C233.569 66.9926 176.468 250.856 173.599 261.668Z" fill="#EDDAC4"/>
<path d="M190.015 164.476C191.74 158.688 196.49 154.151 202.659 153.89C207.96 153.665 214.727 156.089 217.529 160.837C219.125 163.542 218.778 166.784 217.733 169.623C216.581 172.752 214.702 175.758 212.028 177.804C210.867 178.691 209.476 179.363 208.003 179.483C206.394 179.614 204.652 179.114 203.106 178.72C199.438 177.786 195.862 176.391 192.511 174.635C188.897 172.597 188.971 167.981 190.015 164.476Z" fill="#DEB841"/>
<path d="M207.269 204.601C206.117 207.73 204.238 210.736 201.564 212.782C200.403 213.67 199.012 214.341 197.539 214.461C195.931 214.592 194.188 214.092 192.642 213.698C188.974 212.765 185.398 211.37 182.047 209.614C178.434 207.575 178.508 202.96 179.552 199.454C181.276 193.666 186.027 189.129 192.196 188.868C197.497 188.643 204.264 191.067 207.066 195.815C208.661 198.521 208.313 201.762 207.269 204.601Z" fill="#DEB841"/>
<path d="M127.649 303.367C116.103 299.927 107.054 290.451 106.532 278.145C106.083 267.571 110.919 254.069 120.391 248.481C125.789 245.297 132.256 245.991 137.918 248.074C144.161 250.371 150.158 254.12 154.239 259.456C156.01 261.771 157.348 264.547 157.588 267.486C157.849 270.695 156.851 274.172 156.067 277.255C154.205 284.572 153.401 287.712 149.898 294.398C145.829 301.605 134.643 305.451 127.649 303.367Z" fill="#DEB841"/>
<path d="M171.313 235.098C173.037 229.31 177.787 224.774 183.957 224.512C189.257 224.287 196.025 226.711 198.826 231.459C200.423 234.164 200.075 237.406 199.031 240.245C197.879 243.374 196 246.38 193.325 248.426C192.165 249.314 190.773 249.985 189.301 250.105C187.692 250.236 185.949 249.735 184.403 249.342C180.736 248.409 177.159 247.013 173.808 245.258C170.195 243.219 170.269 238.604 171.313 235.098Z" fill="#DEB841"/>
<path d="M188.566 275.223C187.414 278.353 185.536 281.358 182.86 283.404C181.7 284.292 180.308 284.963 178.836 285.082C177.227 285.214 175.484 284.714 173.938 284.32C170.271 283.386 166.695 281.992 163.343 280.235C159.73 278.196 159.805 273.581 160.849 270.075C162.573 264.288 167.323 259.751 173.493 259.489C178.793 259.265 185.561 261.689 188.362 266.436C189.958 269.143 189.611 272.386 188.566 275.223Z" fill="#DEB841"/>
<path d="M129.957 309.026C135.092 310.434 140.13 313.016 143.746 316.994C145.316 318.72 146.572 320.843 146.963 323.17C147.389 325.711 147.61 329.998 147.194 332.511C146.207 338.472 143.692 342.905 141.353 348.476C138.599 354.5 131.247 355.008 125.526 353.821C116.084 351.863 108.224 344.921 106.971 335.142C105.895 326.741 108.833 315.644 116.007 310.543C120.096 307.637 125.301 307.749 129.957 309.026Z" fill="#DEB841"/>
</svg>
