<svg width="440" height="440" viewBox="0 0 440 440" fill="none" xmlns="http://www.w3.org/2000/svg">
<g clip-path="url(#clip0_5_558)">
<path d="M335.374 270.88C328.549 264.343 320.435 260.215 311.305 257.983C306.611 256.835 302.284 255.471 298.603 252.207C295.308 249.285 292.928 245.534 290.817 241.707C286.392 233.688 283.065 225.058 276.784 218.223C265.957 206.441 248.767 201.485 233.207 204.377C229.97 204.978 226.838 205.992 223.826 207.302C208.95 186.293 194.075 165.282 179.2 144.273C171.568 133.493 163.936 122.713 156.304 111.933C155.49 110.784 154.614 109.657 153.883 108.453C153.733 108.205 153.561 107.62 153.373 107.374C153.699 106.898 153.98 106.48 154.538 105.659C155.275 104.571 156.058 103.477 156.471 102.214C157.279 99.7465 156.454 97.4335 154.987 95.4111C153.217 92.9699 151.362 90.5833 149.5 88.2116C145.676 83.3429 141.721 78.5802 137.832 73.7636C135.864 71.3265 133.913 68.8752 132.003 66.392C130.368 64.268 128.729 60.9697 126.143 59.8884C124.243 59.0941 121.786 59.7584 119.922 60.4163C117.149 61.3945 114.446 62.8177 111.943 64.3516C106.742 67.5384 101.472 71.9583 98.4154 77.3338C96.9601 79.8937 97.1557 82.5604 98.625 84.9855C99.5695 86.5438 100.514 88.1015 101.458 89.6598C104.638 94.9073 107.819 100.154 111 105.402C113.656 109.785 116.312 114.167 118.968 118.55C119.821 119.956 120.63 121.374 121.936 122.433C125.21 125.089 128.968 124.343 132.731 123.63C133.206 123.54 133.682 123.45 134.158 123.36C141.981 134.427 149.806 145.495 157.63 156.562C170.582 174.885 183.536 193.208 196.488 211.53C199.015 215.104 201.541 218.678 204.067 222.251C194.486 233.946 191.06 250.426 194.71 265.049C196.791 273.392 201.159 280.317 207.033 286.511C213.301 293.12 221.089 299.007 224.845 307.553C226.779 311.956 226.547 316.541 226.212 321.224C225.883 325.821 225.961 330.393 226.827 334.933C228.548 343.95 232.826 352.456 238.527 359.603C243.552 365.903 249.088 372.175 255.687 376.866C261.975 381.335 268.846 384.735 276.322 386.681C278.814 387.33 281.408 387.743 283.951 388.123C288.277 388.77 292.682 388.267 296.982 387.603C303.08 386.661 309.022 384.871 314.72 382.516C332.406 375.205 346.7 360.009 354.406 342.602C357.909 334.689 359.201 326.165 357.998 317.562C356.845 309.326 354.452 300.984 350.965 293.436C347.121 285.121 342.011 277.238 335.374 270.88Z" fill="#EDDAC4"/>
<path d="M258.766 251.795C256.376 251.898 253.707 252.008 251.482 252.806C246.402 254.627 242.456 258.512 239.127 262.634C239.002 262.777 238.894 262.909 238.829 262.996C238.745 263.102 238.631 263.267 238.517 263.462C233.37 270.857 235.028 281.73 240.492 289.447C246.804 298.362 258.305 300.542 267.189 296.61C276.652 292.421 281.812 281.349 280.007 270.605C278.192 259.807 269.616 251.329 258.766 251.795Z" fill="#DEB841"/>
<path d="M99.5464 88.6061C99.5235 88.5852 99.4989 88.5681 99.4743 88.5509C99.4379 88.5253 99.4016 88.5022 99.3616 88.4833C99.3402 88.4731 99.3181 88.4643 99.2959 88.4564C99.244 88.4374 99.1909 88.4226 99.1359 88.4134C99.1305 88.413 99.1254 88.4115 99.12 88.4111C98.9064 88.3788 98.6775 88.4193 98.4751 88.53C98.474 88.5308 98.4734 88.5312 98.4723 88.532C98.4445 88.5473 98.4154 88.5584 98.3886 88.5764C98.3818 88.5811 98.3751 88.5858 98.3684 88.5905C98.2747 88.6435 98.1868 88.7034 98.1076 88.7722C96.1354 90.1666 94.3303 92.0666 94.2338 94.6202C94.1931 95.7095 94.4247 96.8863 95.092 97.7723C95.7544 98.6525 96.7031 99.25 97.7941 99.4355C98.9416 99.63 100.081 99.4386 101.173 99.0589C101.712 98.871 102.3 98.6811 102.797 98.397C103.617 97.9272 104.204 96.9237 103.984 95.9712C103.851 95.3973 103.494 94.8751 103.216 94.3653C102.903 93.7916 102.591 93.2176 102.279 92.6446C102.058 92.24 101.833 91.878 101.574 91.5011C100.944 90.5868 100.315 89.6735 99.6855 88.7592C99.6631 88.7272 99.6363 88.7057 99.612 88.6782C99.5901 88.6517 99.5698 88.6274 99.5464 88.6061Z" fill="#DEB841"/>
<path d="M106.084 100.202C106.061 100.181 106.036 100.164 106.012 100.147C105.976 100.121 105.939 100.098 105.899 100.079C105.878 100.069 105.856 100.06 105.833 100.052C105.781 100.033 105.728 100.018 105.672 100.009C105.667 100.009 105.662 100.007 105.656 100.007C105.443 99.9745 105.214 100.015 105.011 100.126C105.01 100.127 105.009 100.127 105.008 100.127C104.98 100.143 104.951 100.154 104.924 100.172C104.917 100.177 104.911 100.181 104.904 100.186C104.81 100.239 104.722 100.299 104.643 100.368C102.671 101.762 100.866 103.662 100.769 106.216C100.729 107.305 100.961 108.481 101.627 109.368C102.29 110.248 103.239 110.846 104.33 111.031C105.477 111.225 106.617 111.034 107.708 110.655C108.247 110.467 108.835 110.277 109.332 109.993C110.152 109.523 110.739 108.52 110.519 107.567C110.386 106.993 110.029 106.471 109.751 105.961C109.438 105.388 109.126 104.814 108.814 104.24C108.593 103.836 108.368 103.474 108.109 103.097C107.479 102.183 106.85 101.269 106.22 100.355C106.199 100.323 106.171 100.302 106.147 100.274C106.128 100.248 106.107 100.223 106.084 100.202Z" fill="#DEB841"/>
<path d="M148.023 71.2981C147.302 70.4696 146.278 70.0525 145.203 69.9433C144.014 69.8219 142.863 70.1931 141.795 70.6819C140.553 71.25 138.795 72.1701 139.219 73.8317C139.361 74.389 139.757 74.8451 140.078 75.307C140.486 75.8919 140.893 76.4767 141.301 77.0621C141.606 77.5003 141.932 77.895 142.279 78.2972C142.967 79.0932 143.655 79.8902 144.344 80.6862C144.374 80.7251 144.403 80.7662 144.438 80.796C144.44 80.7988 144.442 80.8007 144.444 80.8035C144.62 81.0065 145.044 80.9749 145.26 80.9115C145.453 80.8556 145.647 80.7402 145.82 80.6025C145.834 80.5917 145.851 80.5809 145.865 80.5696C145.895 80.5443 145.924 80.517 145.954 80.4912C145.956 80.4886 145.959 80.487 145.961 80.4851C147.811 78.8838 149.349 76.7987 149.199 74.2387C149.136 73.1527 148.738 72.1185 148.023 71.2981Z" fill="#DEB841"/>
<path d="M138.055 69.7902C138.069 69.7784 138.086 69.7681 138.099 69.7571C138.13 69.7315 138.159 69.7046 138.189 69.6784C138.191 69.6762 138.193 69.6747 138.196 69.6731C140.046 68.0718 141.583 65.9863 141.433 63.4267C141.37 62.3416 140.972 61.307 140.258 60.4861C139.536 59.6575 138.512 59.2405 137.437 59.1312C136.248 59.0099 135.097 59.3811 134.029 59.8699C132.787 60.438 131.029 61.358 131.453 63.0196C131.595 63.577 131.991 64.0331 132.312 64.495C132.72 65.0803 133.127 65.6647 133.535 66.2501C133.84 66.6883 134.166 67.083 134.513 67.4852C135.202 68.2813 135.889 69.0776 136.577 69.8736C136.608 69.9126 136.637 69.9542 136.672 69.984C136.674 69.9863 136.676 69.9887 136.678 69.9915C136.854 70.1945 137.278 70.1629 137.494 70.0995C137.688 70.0429 137.883 69.9274 138.055 69.7902Z" fill="#DEB841"/>
<path d="M116.29 86.3207C126.235 100.152 136.074 114.06 145.879 127.992C156.848 143.579 167.768 159.2 178.666 174.836C189.205 189.954 199.723 205.086 210.239 220.22C219.047 232.896 227.85 245.575 236.681 258.234C242.257 266.227 247.816 274.235 253.509 282.147C253.916 282.712 254.323 283.275 254.733 283.838C255.147 284.406 256.741 283.664 256.246 282.984C250.985 275.76 245.896 268.407 240.779 261.081C232.247 248.868 223.749 236.631 215.247 224.396C204.864 209.453 194.481 194.51 184.08 179.579C173.145 163.882 162.193 148.199 151.195 132.548C141.232 118.369 131.237 104.213 121.145 90.125C120.033 88.5715 118.918 87.0189 117.803 85.4673C117.393 84.8963 115.798 85.6368 116.29 86.3207Z" fill="#DEB841"/>
<path d="M120.325 83.1954C130.27 97.0268 140.109 110.935 149.914 124.867C160.883 140.453 171.803 156.075 182.701 171.71C193.24 186.828 203.758 201.961 214.274 217.095C223.081 229.77 231.885 242.449 240.716 255.108C246.292 263.102 251.851 271.11 257.543 279.022C257.95 279.586 258.357 280.15 258.767 280.713C259.098 281.168 260.659 280.417 260.439 280.115C255.178 272.891 250.089 265.539 244.972 258.213C236.44 246 227.942 233.762 219.441 221.527C209.057 206.584 198.674 191.641 188.274 176.71C177.339 161.014 166.387 145.331 155.389 129.679C145.426 115.5 135.431 101.344 125.339 87.2564C124.226 85.7029 123.112 84.1502 121.997 82.5987C121.669 82.1412 120.105 82.8896 120.325 83.1954Z" fill="#DEB841"/>
<path d="M123.961 80.5459C133.907 94.3774 143.746 108.286 153.55 122.217C164.52 137.804 175.439 153.425 186.338 169.061C196.877 184.179 207.395 199.311 217.91 214.445C226.718 227.121 235.521 239.8 244.353 252.459C249.929 260.452 255.488 268.461 261.18 276.372C261.586 276.937 261.994 277.501 262.403 278.063C262.709 278.483 264.256 277.714 264.076 277.466C258.815 270.242 253.726 262.89 248.609 255.564C240.077 243.35 231.579 231.113 223.077 218.878C212.693 203.935 202.311 188.991 191.909 174.061C180.975 158.365 170.023 142.682 159.025 127.03C149.062 112.851 139.067 98.6952 128.975 84.6073C127.862 83.0539 126.748 81.5012 125.632 79.9496C125.331 79.5289 123.78 80.2947 123.961 80.5459Z" fill="#DEB841"/>
<path d="M112.936 111.153C112.913 111.133 112.889 111.115 112.864 111.098C112.828 111.073 112.791 111.049 112.751 111.031C112.73 111.02 112.708 111.012 112.686 111.004C112.634 110.985 112.581 110.97 112.525 110.961C112.519 110.96 112.514 110.959 112.509 110.958C112.295 110.926 112.066 110.966 111.863 111.078C111.862 111.078 111.862 111.079 111.86 111.079C111.833 111.095 111.804 111.106 111.777 111.123C111.771 111.128 111.764 111.133 111.757 111.138C111.664 111.19 111.575 111.25 111.496 111.319C109.524 112.714 107.719 114.614 107.623 117.167C107.582 118.257 107.814 119.433 108.481 120.319C109.143 121.2 110.092 121.797 111.183 121.983C112.33 122.177 113.47 121.986 114.561 121.606C115.1 121.419 115.688 121.229 116.185 120.945C117.005 120.475 117.592 119.471 117.372 118.519C117.239 117.945 116.883 117.423 116.605 116.912C116.292 116.339 115.98 115.765 115.667 115.192C115.447 114.787 115.222 114.425 114.962 114.048C114.333 113.134 113.704 112.221 113.074 111.306C113.052 111.274 113.025 111.253 113.001 111.225C112.98 111.199 112.959 111.175 112.936 111.153Z" fill="#DEB841"/>
<path d="M156.348 81.177C155.626 80.3484 154.602 79.9314 153.527 79.8221C152.338 79.7008 151.187 80.072 150.119 80.5608C148.877 81.1289 147.119 82.0489 147.543 83.7106C147.685 84.2679 148.081 84.724 148.402 85.1859C148.81 85.7712 149.217 86.3557 149.625 86.941C149.93 87.3792 150.256 87.7739 150.603 88.1761C151.292 88.9722 151.98 89.7691 152.668 90.5651C152.698 90.604 152.727 90.6451 152.762 90.6749C152.764 90.6777 152.766 90.6796 152.768 90.6824C152.944 90.8854 153.368 90.8538 153.584 90.7904C153.777 90.7346 153.971 90.6191 154.144 90.4815C154.158 90.4707 154.175 90.4598 154.189 90.4485C154.219 90.4232 154.248 90.3959 154.278 90.3701C154.28 90.3676 154.283 90.3659 154.285 90.3638C156.135 88.7626 157.672 86.6774 157.522 84.1174C157.46 83.032 157.062 81.9974 156.348 81.177Z" fill="#DEB841"/>
<path fill-rule="evenodd" clip-rule="evenodd" d="M438.491 198.349L438.504 200.426L438.527 202.503L438.559 204.583L438.602 206.666L438.653 208.752L438.714 210.843L438.783 212.94L438.859 215.043L438.942 217.152L439.03 219.27L439.123 221.396L439.218 223.53L439.315 225.675L439.413 227.829L439.508 229.994L439.6 232.169L439.688 234.355L439.768 236.553L439.84 238.761L439.901 240.981L439.949 243.211L439.983 245.453L440 247.705L439.999 249.967L439.977 252.24L439.932 254.521L439.863 256.812L439.768 259.11L439.645 261.416L439.491 263.728L439.306 266.047L439.087 268.37L438.833 270.696L438.543 273.026L438.215 275.358L437.847 277.69L437.439 280.022L436.99 282.353L436.498 284.681L435.963 287.005L435.383 289.324L434.759 291.638L434.09 293.945L433.375 296.243L432.614 298.532L431.808 300.812L430.955 303.08L430.058 305.336L429.115 307.58L428.127 309.81L427.094 312.027L426.018 314.228L424.899 316.414L423.736 318.584L422.532 320.737L421.286 322.874L420 324.993L418.674 327.094L417.309 329.177L415.906 331.241L414.466 333.287L412.989 335.314L411.476 337.322L409.929 339.31L408.348 341.28L406.734 343.23L405.088 345.161L403.411 347.073L401.704 348.965L399.967 350.839L398.202 352.694L396.409 354.53L394.589 356.349L392.742 358.148L390.87 359.93L388.974 361.695L387.053 363.442L385.108 365.172L383.141 366.885L381.151 368.581L379.14 370.262L377.106 371.926L375.052 373.575L372.977 375.209L370.882 376.828L368.767 378.431L366.633 380.021L364.479 381.596L362.305 383.157L360.113 384.704L357.902 386.237L355.672 387.756L353.423 389.262L351.155 390.755L348.869 392.234L346.564 393.699L344.24 395.152L341.897 396.591L339.536 398.016L337.155 399.427L334.756 400.825L332.337 402.209L329.899 403.578L327.442 404.933L324.965 406.273L322.468 407.598L319.952 408.907L317.415 410.2L314.859 411.477L312.282 412.736L309.684 413.978L307.066 415.202L304.427 416.407L301.768 417.592L299.088 418.758L296.387 419.902L293.665 421.025L290.923 422.126L288.159 423.203L285.375 424.256L282.57 425.284L279.744 426.286L276.898 427.262L274.032 428.21L271.145 429.129L268.239 430.018L265.314 430.877L262.369 431.704L259.405 432.498L256.423 433.258L253.423 433.984L250.406 434.674L247.372 435.327L244.321 435.941L241.255 436.517L238.174 437.052L235.079 437.547L231.97 437.999L228.849 438.407L225.716 438.772L222.572 439.091L219.418 439.363L216.255 439.589L213.085 439.766L209.908 439.894L206.725 439.972L203.537 440L200.347 439.976L197.154 439.901L193.96 439.772L190.767 439.59L187.576 439.355L184.387 439.065L181.203 438.72L178.025 438.32L174.854 437.864L171.691 437.353L168.538 436.786L165.396 436.163L162.267 435.483L159.152 434.748L156.052 433.956L152.969 433.108L149.904 432.205L146.859 431.245L143.834 430.231L140.831 429.162L137.852 428.038L134.896 426.86L131.967 425.629L129.065 424.345L126.19 423.009L123.345 421.622L120.53 420.184L117.746 418.696L114.995 417.16L112.276 415.576L109.592 413.945L106.941 412.268L104.327 410.547L101.748 408.782L99.2053 406.976L96.6999 405.128L94.2318 403.241L91.8013 401.316L89.4087 399.355L87.0542 397.357L84.7378 395.326L82.4596 393.263L80.2195 391.168L78.0175 389.044L75.8532 386.892L73.7265 384.712L71.6371 382.508L69.5846 380.279L67.5685 378.028L65.5883 375.756L63.6437 373.463L61.7338 371.152L59.8583 368.823L58.0163 366.477L56.2074 364.117L54.4306 361.742L52.6855 359.354L50.9711 356.954L49.2869 354.542L47.632 352.12L46.0058 349.688L44.4075 347.247L42.8365 344.798L41.292 342.341L39.7735 339.877L38.2804 337.406L36.812 334.928L35.368 332.445L33.9477 329.956L32.5509 327.461L31.1771 324.96L29.8262 322.455L28.4978 319.944L27.192 317.427L25.9086 314.906L24.6478 312.379L23.4096 309.847L22.1943 307.308L21.0023 304.765L19.8339 302.215L18.6896 299.659L17.57 297.096L16.4758 294.527L15.4075 291.951L14.3659 289.368L13.3519 286.778L12.3663 284.18L11.41 281.576L10.4839 278.963L9.58917 276.343L8.72671 273.716L7.89766 271.081L7.10312 268.438L6.34424 265.788L5.62218 263.131L4.93813 260.466L4.29326 257.795L3.68877 255.117L3.12586 252.432L2.60571 249.742L2.12949 247.046L1.69837 244.345L1.31345 241.64L0.975857 238.93L0.686636 236.217L0.446808 233.502L0.257343 230.785L0.119159 228.066L0.0331138 225.348L0 222.629L0.0205432 219.913L0.095395 217.198L0.22513 214.487L0.410241 211.781L0.651135 209.079L0.948133 206.384L1.30145 203.697L1.71118 201.018L2.17723 198.349L2.69938 195.691L3.27727 193.044L3.91037 190.41L4.59802 187.79L5.33943 185.186L6.13367 182.597L6.97968 180.024L7.87629 177.47L8.82221 174.935L9.81604 172.418L10.8563 169.922L11.9414 167.447L13.0696 164.993L14.2393 162.561L15.4485 160.151L16.6955 157.765L17.9783 155.401L19.2949 153.06L20.6434 150.743L22.0217 148.45L23.4278 146.18L24.8597 143.933L26.3153 141.709L27.7927 139.508L29.2898 137.33L30.8047 135.174L32.3356 133.039L33.8804 130.926L35.4375 128.833L37.0052 126.76L38.5817 124.706L40.1655 122.671L41.755 120.653L43.349 118.652L44.9461 116.667L46.5451 114.696L48.145 112.74L49.7449 110.797L51.3437 108.867L52.941 106.948L54.536 105.039L56.1283 103.14L57.7176 101.25L59.3037 99.3681L60.8865 97.4934L62.466 95.6253L64.0425 93.7632L65.6163 91.9065L67.1877 90.0548L68.7573 88.2076L70.3258 86.3645L71.8937 84.5252L73.4617 82.6895L75.0308 80.8572L76.6015 79.0282L78.175 77.2024L79.752 75.3799L81.3335 73.5607L82.9205 71.745L84.5141 69.933L86.1152 68.125L87.7249 66.3214L89.3442 64.5226L90.9743 62.7292L92.6162 60.9417L94.271 59.1608L95.9397 57.3871L97.6233 55.6215L99.3229 53.8647L101.039 52.1177L102.774 50.3814L104.527 48.6567L106.3 46.9448L108.094 45.2467L109.908 43.5636L111.745 41.8966L113.605 40.2468L115.488 38.6157L117.395 37.0043L119.327 35.4139L121.283 33.846L123.265 32.3017L125.273 30.7823L127.306 29.2892L129.365 27.8238L131.45 26.3872L133.562 24.9808L135.699 23.6058L137.862 22.2634L140.051 20.9547L142.265 19.6807L144.504 18.4425L146.768 17.241L149.055 16.0771L151.365 14.9514L153.697 13.8649L156.052 12.818L158.427 11.8113L160.822 10.8455L163.237 9.92084L165.669 9.03774L168.119 8.19647L170.585 7.39724L173.067 6.6402L175.563 5.92541L178.072 5.25287L180.594 4.62252L183.126 4.03423L185.669 3.4878L188.221 2.98299L190.781 2.51948L193.348 2.0969L195.922 1.71485L198.5 1.37284L201.083 1.07037L203.669 0.806882L206.257 0.581782L208.846 0.394439L211.437 0.244191L214.027 0.130348L216.616 0.0521947L219.203 0.00899606L221.788 0L224.369 0.0244418L226.947 0.0815479L229.521 0.17054L232.09 0.290638L234.653 0.441065L237.21 0.621051L239.761 0.829835L242.305 1.06667L244.842 1.33083L247.372 1.62161L249.893 1.93831L252.407 2.2803L254.912 2.64693L257.409 3.03761L259.897 3.45178L262.376 3.88888L264.846 4.34835L267.307 4.82963L269.759 5.33217L272.201 5.85543L274.633 6.39887L277.056 6.96196L279.47 7.54417L281.874 8.145L284.268 8.76393L286.653 9.40049L289.029 10.0542L291.396 10.7246L293.753 11.4112L296.101 12.1137L298.44 12.8316L300.771 13.5645L303.092 14.3121L305.406 15.074L307.711 15.85L310.008 16.6396L312.297 17.4427L314.578 18.2591L316.852 19.0885L319.118 19.9307L321.377 20.7856L323.63 21.653L325.876 22.533L328.115 23.4254L330.347 24.3302L332.574 25.2474L334.794 26.1771L337.009 27.1194L339.218 28.0743L341.421 29.042L343.618 30.0228L345.809 31.0167L347.995 32.0241L350.176 33.0453L352.35 34.0808L354.519 35.131L356.681 36.1965L358.836 37.2779L360.984 38.3758L363.125 39.4911L365.258 40.6243L367.382 41.7763L369.496 42.9479L371.6 44.1398L373.693 45.353L375.773 46.5881L377.84 47.8461L379.894 49.1277L381.931 50.4337L383.952 51.7649L385.955 53.122L387.939 54.5057L389.902 55.9167L391.844 57.3555L393.761 58.8228L395.654 60.319L397.52 61.8445L399.359 63.3998L401.168 64.9851L402.946 66.6006L404.691 68.2465L406.402 69.9228L408.078 71.6296L409.716 73.3667L411.317 75.134L412.877 76.9311L414.396 78.7578L415.873 80.6135L417.306 82.4978L418.695 84.4099L420.038 86.3493L421.334 88.3151L422.582 90.3065L423.783 92.3225L424.934 94.3621L426.036 96.4242L427.089 98.5077L428.092 100.611L429.044 102.734L429.947 104.874L430.801 107.031L431.605 109.202L432.36 111.387L433.067 113.583L433.728 115.791L434.342 118.007L434.91 120.231L435.435 122.462L435.917 124.698L436.357 126.938L436.756 129.18L437.117 131.423L437.44 133.667L437.728 135.911L437.982 138.152L438.203 140.391L438.393 142.626L438.555 144.856L438.689 147.081L438.798 149.301L438.884 151.514L438.949 153.72L438.994 155.918L439.021 158.109L439.033 160.291L439.031 162.466L439.017 164.632L438.992 166.789L438.96 168.939L438.92 171.08L438.876 173.213L438.829 175.338L438.78 177.456L438.731 179.566L438.683 181.671L438.638 183.769L438.597 185.862L438.56 187.951L438.53 190.035L438.508 192.116L438.493 194.195L438.487 196.272L438.491 198.349Z" fill="#3B3B3B"/>
<path d="M396.632 399.533C389.777 394.593 382.87 389.727 375.911 384.936C368.923 380.123 361.882 375.386 354.791 370.725C350.804 368.105 346.802 365.509 342.784 362.936C342.269 362.606 341.648 362.5 341.037 362.48C341.575 350.054 341.913 337.618 342.029 325.18C342.154 311.829 351.35 148.822 350.988 135.474C350.783 127.942 350.5 120.414 350.142 112.889C350.095 111.915 349.887 111.218 349.047 110.621C348.228 110.038 346.947 109.816 345.971 109.917C344.783 110.04 343.52 110.392 342.58 111.16C341.905 111.713 340.959 112.613 341.005 113.569C341.641 126.906 332.72 289.908 332.871 303.26C333.021 316.611 332.927 329.965 332.591 343.313C332.405 350.656 332.145 357.996 331.812 365.334C331.751 365.414 331.694 365.496 331.641 365.584C331.537 366.12 331.444 366.658 331.344 367.195C329.291 368.792 327.228 370.377 325.143 371.932C325.014 372.028 324.886 372.124 324.757 372.22C324.735 372.236 324.718 372.249 324.692 372.268C324.297 372.56 323.902 372.852 323.507 373.142C322.743 373.703 321.977 374.261 321.21 374.815C319.703 375.904 318.189 376.983 316.667 378.05C310.493 382.381 304.193 386.531 297.777 390.496C294.137 392.746 290.46 394.935 286.747 397.065C286.107 397.432 285.203 398.212 285.045 399.001C284.901 399.722 285.331 400.359 285.976 400.658C287.965 401.578 290.573 400.863 292.367 399.833C298.969 396.046 305.462 392.067 311.832 387.9C318.007 383.862 324.065 379.644 330 375.262C328.925 382.524 328.199 389.839 327.851 397.171C327.709 400.168 327.63 403.168 327.61 406.169C327.606 406.727 328.981 406.85 329.213 406.867C330.274 406.944 331.505 406.735 332.517 406.448C333.567 406.15 334.693 405.799 335.589 405.158C336.091 404.799 336.623 404.431 336.627 403.753C336.684 395.191 337.243 386.638 338.296 378.141C338.661 375.265 339.088 372.397 339.566 369.537C344.916 373.001 350.236 376.508 355.529 380.058C362.576 384.784 369.572 389.587 376.515 394.464C380.419 397.206 384.306 399.972 388.177 402.76C388.81 403.217 389.786 403.24 390.519 403.212C391.673 403.167 392.97 402.884 394.038 402.451C394.643 402.205 398.093 400.585 396.632 399.533Z" fill="#EDDAC4"/>
<path d="M290.973 395.047C290.967 395.045 290.965 395.042 290.958 395.039C289.603 394.416 288.24 394.441 286.81 394.735C285.609 394.981 284.461 395.386 283.583 396.28C282.002 397.889 281.76 400.532 282.753 402.504C285.187 407.335 292.937 404.837 293.699 400.039C294.031 397.944 293.221 395.539 290.973 395.047Z" fill="#D8A866"/>
<path d="M335.654 400.744C333.944 399.971 332.252 399.982 330.442 400.341C328.921 400.643 327.486 401.197 326.413 402.361C324.459 404.481 324.169 407.811 325.457 410.339C328.601 416.505 338.252 413.35 339.22 407.209C339.641 404.542 338.591 401.322 335.654 400.744Z" fill="#D8A866"/>
<path d="M396.594 395.227C394.875 394.442 393.209 394.496 391.394 394.846C389.917 395.132 388.467 395.614 387.374 396.701C385.335 398.726 384.999 402.057 386.221 404.587C389.184 410.729 398.857 407.719 400.007 401.77C400.515 399.135 399.545 395.8 396.594 395.227Z" fill="#D8A866"/>
<path d="M237.63 122.976C238.023 121.515 239.628 121.162 240.748 121.083C240.806 121.08 240.867 121.083 240.924 121.081C241.066 121.066 241.193 121.059 241.278 121.056C247.236 120.837 253.195 120.618 259.154 120.398C267.698 120.084 276.247 119.917 284.799 119.74C296.795 119.491 308.791 119.242 320.789 118.992C324.326 118.919 327.864 118.845 331.401 118.771C335.333 118.689 339.283 118.461 343.227 118.812C347.303 119.175 351.293 120.351 355.079 122.371C358.631 124.265 362.046 126.599 365.49 128.774C380.178 138.048 402.449 147.322 417.137 156.597C420.823 158.924 424.509 161.251 428.194 163.578C430.036 164.742 431.879 165.906 433.723 167.069C434.59 167.617 435.457 168.164 436.324 168.712C437.213 169.273 438.205 169.761 439.024 170.467C439.937 171.255 440.444 172.595 439.48 173.539C438.285 174.708 436.154 174.383 434.685 174.431C431.202 174.543 427.71 174.509 424.218 174.365C409.315 173.753 386.816 171.394 372.07 168.089C357.139 164.744 342.269 160.779 327.421 156.828C312.335 152.812 297.203 148.922 282.267 144.008C274.877 141.577 267.534 138.898 260.274 135.891C256.615 134.377 252.975 132.784 249.364 131.096C247.616 130.28 245.874 129.44 244.141 128.577C242.471 127.744 240.627 127.021 239.07 125.896C238.258 125.313 237.302 124.195 237.63 122.976Z" fill="#D8A866"/>
<path d="M49.1808 341.706C56.6526 336.322 64.1819 331.018 71.7668 325.795C79.385 320.549 87.0587 315.387 94.7871 310.306C99.132 307.449 103.495 304.62 107.874 301.815C108.436 301.455 109.113 301.339 109.779 301.319C109.193 287.774 108.825 274.219 108.699 260.661C108.563 246.108 98.5386 68.43 98.9338 53.8818C99.1563 45.6732 99.4647 37.4666 99.8561 29.2639C99.9068 28.2021 100.134 27.4428 101.05 26.7919C101.942 26.1575 103.339 25.9155 104.403 26.0257C105.698 26.1594 107.074 26.544 108.099 27.3813C108.835 27.9835 109.865 28.9653 109.816 30.0066C109.124 44.5441 118.847 222.215 118.683 236.769C118.519 251.322 118.62 265.878 118.988 280.426C119.19 288.43 119.475 296.43 119.836 304.428C119.902 304.515 119.965 304.605 120.023 304.7C120.136 305.285 120.237 305.871 120.346 306.457C122.584 308.198 124.833 309.924 127.105 311.62C127.246 311.724 127.386 311.828 127.527 311.934C127.55 311.95 127.57 311.965 127.598 311.987C128.028 312.305 128.459 312.623 128.891 312.939C129.724 313.55 130.558 314.158 131.394 314.762C133.037 315.949 134.687 317.125 136.346 318.288C143.076 323.008 149.944 327.532 156.936 331.855C160.905 334.307 164.913 336.693 168.959 339.014C169.657 339.414 170.642 340.264 170.814 341.123C170.972 341.909 170.503 342.604 169.799 342.929C167.631 343.933 164.789 343.153 162.833 342.031C155.636 337.901 148.559 333.565 141.615 329.024C134.884 324.622 128.282 320.025 121.812 315.249C122.984 323.165 123.775 331.138 124.154 339.129C124.309 342.397 124.395 345.666 124.416 348.937C124.42 349.545 122.923 349.679 122.67 349.698C121.513 349.781 120.17 349.554 119.067 349.242C117.923 348.917 116.696 348.534 115.72 347.835C115.172 347.444 114.593 347.043 114.588 346.303C114.526 336.971 113.917 327.648 112.769 318.387C112.37 315.251 111.905 312.125 111.384 309.009C105.554 312.785 99.7536 316.607 93.9849 320.476C86.3043 325.628 78.6784 330.863 71.11 336.179C66.855 339.168 62.6175 342.183 58.3985 345.222C57.7075 345.72 56.6448 345.746 55.8455 345.715C54.5885 345.666 53.1724 345.357 52.0091 344.885C51.3484 344.619 47.5871 342.853 49.1808 341.706Z" fill="#EDDAC4"/>
<path d="M164.349 336.817C164.355 336.814 164.357 336.81 164.364 336.807C165.842 336.129 167.327 336.156 168.886 336.477C170.194 336.745 171.446 337.186 172.403 338.161C174.126 339.915 174.39 342.796 173.308 344.945C170.655 350.212 162.206 347.488 161.376 342.259C161.015 339.974 161.898 337.354 164.349 336.817Z" fill="#D8A866"/>
<path d="M115.647 343.027C117.51 342.185 119.355 342.196 121.328 342.588C122.986 342.918 124.55 343.521 125.719 344.789C127.849 347.099 128.165 350.73 126.761 353.485C123.334 360.205 112.815 356.767 111.759 350.073C111.301 347.166 112.446 343.655 115.647 343.027Z" fill="#D8A866"/>
<path d="M49.2228 337.012C51.0976 336.157 52.9138 336.215 54.891 336.597C56.5013 336.909 58.0823 337.435 59.273 338.619C61.4952 340.826 61.8601 344.457 60.53 347.216C57.2996 353.91 46.7566 350.629 45.5035 344.144C44.9472 341.272 46.0052 337.637 49.2228 337.012Z" fill="#D8A866"/>
<path d="M222.493 40.2598C222.065 38.667 220.314 38.2835 219.094 38.1976C219.031 38.1937 218.965 38.1976 218.902 38.1947C218.748 38.179 218.609 38.1713 218.517 38.1683C212.022 37.9292 205.528 37.6901 199.033 37.452C189.72 37.1094 180.401 36.9279 171.08 36.7337C158.004 36.4624 144.928 36.1911 131.852 35.9198C127.996 35.8397 124.14 35.7597 120.284 35.6797C115.998 35.5909 111.692 35.342 107.393 35.7236C102.951 36.1189 98.6011 37.4012 94.4748 39.602C90.6023 41.667 86.8811 44.2113 83.1267 46.5809C67.1165 56.6896 42.8412 66.7993 26.832 76.908C22.8151 79.4444 18.7972 81.9809 14.7802 84.5173C12.7718 85.786 10.7633 87.0537 8.75482 88.3224C7.80914 88.9197 6.86444 89.516 5.91876 90.1133C4.94966 90.7252 3.86833 91.2571 2.97633 92.0261C1.98088 92.885 1.4285 94.3459 2.47958 95.3745C3.78147 96.6481 6.10322 96.2949 7.70667 96.3476C11.503 96.4705 15.3092 96.4325 19.1153 96.2763C35.3587 95.6078 59.8829 93.0372 75.9565 89.436C92.2312 85.7889 108.439 81.4694 124.623 77.1607C141.068 72.7836 157.561 68.5432 173.843 63.1873C181.897 60.5377 189.9 57.6177 197.814 54.3405C201.802 52.6892 205.77 50.953 209.706 49.1144C211.611 48.2243 213.509 47.3099 215.4 46.3681C217.22 45.4605 219.229 44.6729 220.927 43.4452C221.808 42.8069 222.849 41.588 222.493 40.2598Z" fill="#D8A866"/>
<path d="M0.0329019 115.404C0.322754 116.61 2.03356 116.99 3.24177 117.12C3.30423 117.127 3.36962 117.127 3.43208 117.133C3.58432 117.153 3.72193 117.166 3.81464 117.174C10.2636 117.705 16.7135 118.236 23.1635 118.768C32.4124 119.529 41.6808 120.172 50.9502 120.823C63.9535 121.736 76.9568 122.65 89.9602 123.564C93.7946 123.834 97.629 124.103 101.463 124.372C105.726 124.672 109.994 125.092 114.31 125.042C118.77 124.99 123.212 124.275 127.512 122.866C131.547 121.543 135.472 119.857 139.415 118.302C156.23 111.669 181.279 105.485 198.094 98.8517C202.313 97.1868 206.533 95.5228 210.752 93.8579C212.862 93.0254 214.971 92.1929 217.081 91.3614C218.074 90.9701 219.067 90.5778 220.06 90.1864C221.078 89.7853 222.2 89.4496 223.154 88.9265C224.219 88.3429 224.895 87.2889 223.936 86.4681C222.748 85.4512 220.405 85.5869 218.812 85.462C215.04 85.1643 211.246 84.9847 207.441 84.8939C191.201 84.5055 166.549 85.0784 150.228 86.8771C133.702 88.6982 117.185 91.0228 100.692 93.3407C83.9357 95.6956 67.1409 97.9441 50.4632 101.035C42.2127 102.563 33.9885 104.295 25.8239 106.298C21.7093 107.307 17.6085 108.38 13.5291 109.53C11.5548 110.088 9.58533 110.663 7.62273 111.26C5.73137 111.835 3.6624 112.31 1.86571 113.129C0.932717 113.55 -0.209129 114.399 0.0329019 115.404Z" fill="#D8A866"/>
</g>
<defs>
<clipPath id="clip0_5_558">
<rect width="440" height="440" fill="white"/>
</clipPath>
</defs>
</svg>
