<svg width="298" height="190" viewBox="0 0 298 190" fill="none" xmlns="http://www.w3.org/2000/svg">
<g clip-path="url(#clip0_13_51)">
<rect width="298" height="190" rx="16" fill="#3B3B3B"/>
<path d="M145 -13L303 113.5L305.5 189.5H-7.5V116L145 -13Z" fill="#EDDAC4"/>
<rect x="146.211" y="73.1565" width="4.6754" height="136.463" fill="#D8A866"/>
<rect x="145.626" y="72.572" width="6.13647" height="0.292213" fill="#D8A866"/>
<path d="M141.243 41.3053C141.243 37.2707 144.514 34 148.549 34C152.583 34 155.854 37.2707 155.854 41.3053V51.2406H141.243V41.3053Z" fill="#D8A866"/>
<rect x="139.49" y="50.656" width="1.75328" height="0.876638" fill="#D8A866"/>
<rect x="140.367" y="50.0718" width="0.876638" height="1.75328" fill="#D8A866"/>
<rect x="139.49" y="50.0718" width="0.876638" height="1.75328" fill="#D8A866"/>
<rect x="156.146" y="50.656" width="1.46106" height="0.876638" fill="#D8A866"/>
<rect x="156.731" y="50.0718" width="0.876638" height="1.75328" fill="#D8A866"/>
<rect x="156.146" y="50.0718" width="0.876638" height="1.75328" fill="#D8A866"/>
<g style="mix-blend-mode:multiply" opacity="0.89">
<path d="M143.768 36.1741C143.68 36.2793 143.543 36.4225 143.461 36.4897C143.379 36.5569 143.385 36.5306 143.479 36.4312C143.569 36.3319 143.709 36.1916 143.788 36.1156C143.867 36.0397 143.858 36.066 143.771 36.1712L143.768 36.1741Z" fill="#D8A866"/>
<path d="M144.341 35.7358C144.265 35.8498 144.127 35.9959 144.031 36.0602C143.937 36.1245 143.926 36.0865 144.011 35.9754C144.095 35.8644 144.236 35.7183 144.323 35.6511C144.411 35.5839 144.417 35.6189 144.341 35.7358Z" fill="#D8A866"/>
<path d="M144.966 35.3472C144.902 35.467 144.77 35.6102 144.671 35.6657C144.572 35.7212 144.545 35.6716 144.615 35.5547C144.686 35.4378 144.82 35.2946 144.913 35.2362C145.007 35.1777 145.03 35.2274 144.966 35.3472Z" fill="#D8A866"/>
<path d="M145.629 35.0198C145.58 35.1455 145.451 35.2857 145.346 35.3325C145.241 35.3792 145.2 35.3179 145.258 35.1951C145.317 35.0724 145.445 34.9321 145.545 34.8825C145.644 34.8328 145.682 34.8942 145.632 35.0198H145.629Z" fill="#D8A866"/>
<path d="M146.322 34.7598C146.284 34.8913 146.164 35.0258 146.053 35.0608C145.942 35.0959 145.889 35.0228 145.933 34.8943C145.98 34.7657 146.1 34.6313 146.205 34.5933C146.307 34.5553 146.36 34.6283 146.322 34.7598Z" fill="#D8A866"/>
<path d="M147.035 34.5698C147.009 34.7042 146.898 34.8328 146.784 34.8591C146.67 34.8854 146.605 34.8007 146.638 34.6663C146.67 34.5348 146.784 34.4033 146.892 34.374C147 34.3477 147.064 34.4354 147.038 34.5698H147.035Z" fill="#D8A866"/>
<path d="M147.765 34.4528C147.751 34.5902 147.646 34.7129 147.529 34.7275C147.412 34.7421 147.336 34.6457 147.356 34.5084C147.377 34.371 147.482 34.2483 147.59 34.2308C147.698 34.2132 147.777 34.3126 147.763 34.4528H147.765Z" fill="#D8A866"/>
<path d="M148.505 34.4061C148.505 34.5463 148.405 34.6632 148.289 34.6661C148.172 34.6691 148.084 34.561 148.093 34.4236C148.102 34.2833 148.198 34.1665 148.309 34.1606C148.42 34.1548 148.508 34.2658 148.505 34.4061Z" fill="#D8A866"/>
<path d="M149.247 34.4294C149.256 34.5726 149.171 34.6807 149.051 34.6749C148.934 34.6691 148.838 34.5493 148.835 34.4061C148.832 34.2658 148.917 34.1518 149.028 34.1577C149.139 34.1635 149.235 34.2863 149.247 34.4294Z" fill="#D8A866"/>
<path d="M149.983 34.529C150.007 34.6722 149.928 34.7744 149.814 34.7569C149.697 34.7394 149.592 34.6108 149.577 34.4647C149.563 34.3215 149.636 34.2163 149.747 34.2338C149.855 34.2514 149.963 34.3829 149.986 34.529H149.983Z" fill="#D8A866"/>
<path d="M150.708 34.6956C150.743 34.8388 150.676 34.9294 150.562 34.9031C150.448 34.8768 150.334 34.7394 150.305 34.5962C150.278 34.4531 150.34 34.3566 150.448 34.3858C150.556 34.4151 150.673 34.5553 150.705 34.6985L150.708 34.6956Z" fill="#D8A866"/>
<path d="M151.415 34.9321C151.462 35.0694 151.409 35.1483 151.295 35.1103C151.184 35.0723 151.064 34.9321 151.024 34.7918C150.983 34.6516 151.032 34.5668 151.138 34.6077C151.243 34.6486 151.368 34.7947 151.415 34.9321Z" fill="#D8A866"/>
<path d="M152.084 35.2274C152.143 35.3589 152.105 35.4261 152.002 35.3823C151.9 35.3385 151.775 35.1924 151.722 35.0579C151.669 34.9235 151.701 34.8505 151.801 34.9002C151.897 34.9498 152.029 35.0959 152.087 35.2274H152.084Z" fill="#D8A866"/>
<path d="M152.71 35.578C152.783 35.7007 152.756 35.7563 152.66 35.7037C152.564 35.6481 152.432 35.505 152.368 35.3764C152.304 35.2478 152.321 35.1894 152.415 35.2478C152.505 35.3062 152.64 35.4553 152.713 35.578H152.71Z" fill="#D8A866"/>
<path d="M153.291 35.9812C153.373 36.0922 153.364 36.136 153.274 36.0747C153.183 36.0162 153.052 35.8701 152.976 35.7503C152.9 35.6305 152.903 35.5867 152.987 35.6539C153.072 35.7211 153.209 35.8672 153.291 35.9782V35.9812Z" fill="#D8A866"/>
<path d="M153.829 36.4312C153.919 36.5306 153.925 36.5569 153.843 36.4897C153.759 36.4225 153.624 36.2793 153.537 36.1741C153.452 36.0689 153.443 36.0426 153.519 36.1186C153.598 36.1945 153.735 36.3319 153.829 36.4342V36.4312Z" fill="#D8A866"/>
<path d="M142.81 37.6645C142.748 37.7872 142.62 37.9275 142.52 37.9771C142.418 38.0268 142.386 37.9684 142.453 37.8486C142.517 37.7287 142.652 37.5914 142.748 37.5359C142.845 37.4833 142.871 37.5388 142.812 37.6645H142.81Z" fill="#D8A866"/>
<path d="M143.517 37.3224C143.467 37.4509 143.333 37.6029 143.219 37.6555C143.105 37.711 143.052 37.6496 143.108 37.524C143.163 37.3954 143.3 37.2464 143.409 37.1909C143.52 37.1324 143.566 37.1909 143.514 37.3224H143.517Z" fill="#D8A866"/>
<path d="M144.279 36.998C144.238 37.1324 144.107 37.2785 143.987 37.3253C143.867 37.372 143.806 37.3019 143.853 37.1704C143.899 37.0389 144.034 36.8899 144.151 36.8431C144.265 36.7935 144.323 36.8636 144.282 36.998H144.279Z" fill="#D8A866"/>
<path d="M145.074 36.7323C145.039 36.8696 144.91 37.0128 144.785 37.0508C144.659 37.0888 144.589 37.0099 144.627 36.8755C144.665 36.7381 144.797 36.5949 144.916 36.554C145.036 36.5131 145.106 36.5949 145.071 36.7323H145.074Z" fill="#D8A866"/>
<path d="M145.898 36.5218C145.872 36.665 145.746 36.7994 145.618 36.8286C145.489 36.8578 145.407 36.7702 145.439 36.6299C145.472 36.4897 145.597 36.3494 145.723 36.3202C145.848 36.291 145.927 36.3815 145.898 36.5218Z" fill="#D8A866"/>
<path d="M146.74 36.3787C146.719 36.5219 146.6 36.6534 146.468 36.6739C146.337 36.6943 146.249 36.595 146.269 36.4518C146.293 36.3086 146.415 36.1742 146.544 36.1537C146.673 36.1333 146.76 36.2355 146.74 36.3787Z" fill="#D8A866"/>
<path d="M147.596 36.2939C147.584 36.44 147.467 36.5657 147.333 36.5744C147.199 36.5832 147.105 36.4751 147.12 36.3319C147.134 36.1858 147.254 36.0572 147.383 36.0485C147.511 36.0368 147.608 36.1478 147.596 36.2939Z" fill="#D8A866"/>
<path d="M148.461 36.2764C148.458 36.4225 148.344 36.5423 148.207 36.5423C148.072 36.5423 147.97 36.4254 147.979 36.2793C147.988 36.1332 148.102 36.0105 148.23 36.0105C148.362 36.0105 148.464 36.1303 148.458 36.2764H148.461Z" fill="#D8A866"/>
<path d="M149.326 36.3203C149.326 36.4693 149.221 36.5804 149.086 36.5716C148.952 36.5628 148.844 36.4372 148.844 36.2881C148.844 36.1391 148.952 36.0252 149.083 36.0339C149.215 36.0427 149.323 36.1713 149.326 36.3203Z" fill="#D8A866"/>
<path d="M150.188 36.4284C150.2 36.5774 150.097 36.6797 149.963 36.6621C149.828 36.6417 149.717 36.5102 149.709 36.3612C149.703 36.2121 149.802 36.1069 149.931 36.1245C150.059 36.142 150.173 36.2823 150.185 36.4284H150.188Z" fill="#D8A866"/>
<path d="M151.041 36.5658C151.059 36.7119 150.965 36.8142 150.831 36.7937C150.696 36.7732 150.579 36.6388 150.568 36.4898C150.553 36.3408 150.647 36.2385 150.775 36.259C150.904 36.2794 151.024 36.4197 151.041 36.5658Z" fill="#D8A866"/>
<path d="M151.88 36.7496C151.906 36.8928 151.818 36.9834 151.687 36.9542C151.555 36.925 151.436 36.7847 151.415 36.6386C151.395 36.4925 151.476 36.399 151.602 36.4311C151.728 36.4633 151.851 36.6065 151.877 36.7496H151.88Z" fill="#D8A866"/>
<path d="M152.677 36.9747C152.713 37.1149 152.637 37.1968 152.514 37.1646C152.391 37.1296 152.271 36.9893 152.242 36.849C152.213 36.7088 152.283 36.6211 152.403 36.6562C152.52 36.6912 152.645 36.8373 152.677 36.9747Z" fill="#D8A866"/>
<path d="M153.437 37.2435C153.478 37.3779 153.417 37.451 153.297 37.4101C153.18 37.3692 153.055 37.226 153.019 37.0886C152.981 36.9513 153.043 36.8753 153.154 36.9191C153.268 36.963 153.396 37.1091 153.437 37.2435Z" fill="#D8A866"/>
<path d="M154.165 37.5271C154.217 37.6528 154.165 37.7229 154.054 37.6791C153.94 37.6382 153.811 37.4979 153.765 37.3664C153.718 37.2349 153.765 37.1648 153.873 37.2115C153.978 37.2583 154.112 37.3985 154.165 37.5271Z" fill="#D8A866"/>
<path d="M154.852 37.8484C154.919 37.9682 154.881 38.0237 154.773 37.977C154.665 37.9273 154.533 37.7899 154.475 37.6643C154.416 37.5416 154.448 37.4831 154.548 37.5357C154.65 37.5883 154.787 37.7286 154.852 37.8484Z" fill="#D8A866"/>
<path d="M142.237 39.3211C142.208 39.4526 142.088 39.587 141.965 39.6192C141.845 39.6513 141.772 39.5724 141.807 39.4438C141.842 39.3153 141.968 39.1808 142.082 39.1458C142.199 39.1107 142.266 39.1896 142.237 39.3211Z" fill="#D8A866"/>
<path d="M143.043 39.0523C143.02 39.1896 142.9 39.3357 142.772 39.3825C142.646 39.4293 142.561 39.3591 142.587 39.2247C142.614 39.0903 142.736 38.9413 142.862 38.8916C142.985 38.8419 143.067 38.915 143.043 39.0523Z" fill="#D8A866"/>
<path d="M143.882 38.7806C143.862 38.9209 143.742 39.064 143.61 39.1049C143.479 39.1429 143.388 39.064 143.412 38.9267C143.435 38.7894 143.558 38.6433 143.686 38.6023C143.815 38.5614 143.902 38.6433 143.882 38.7835V38.7806Z" fill="#D8A866"/>
<path d="M144.753 38.5556C144.735 38.6988 144.615 38.8391 144.478 38.8712C144.344 38.9034 144.247 38.8157 144.265 38.6754C144.282 38.5352 144.405 38.3891 144.539 38.3569C144.674 38.3219 144.767 38.4124 144.75 38.5556H144.753Z" fill="#D8A866"/>
<path d="M145.647 38.3804C145.635 38.5265 145.512 38.6609 145.375 38.6872C145.238 38.7106 145.135 38.6141 145.15 38.471C145.165 38.3278 145.287 38.1875 145.425 38.1612C145.562 38.1349 145.661 38.2343 145.65 38.3804H145.647Z" fill="#D8A866"/>
<path d="M146.556 38.2635C146.547 38.4096 146.424 38.5411 146.284 38.5586C146.144 38.5732 146.038 38.4709 146.047 38.3248C146.059 38.1787 146.182 38.0443 146.319 38.0268C146.459 38.0092 146.562 38.1174 146.553 38.2664L146.556 38.2635Z" fill="#D8A866"/>
<path d="M147.479 38.199C147.473 38.348 147.353 38.4737 147.21 38.4795C147.067 38.4883 146.959 38.3743 146.965 38.2253C146.974 38.0763 147.093 37.9477 147.234 37.9389C147.374 37.9302 147.482 38.0471 147.476 38.1961L147.479 38.199Z" fill="#D8A866"/>
<path d="M148.408 38.1875C148.405 38.3366 148.286 38.4564 148.142 38.4564C147.999 38.4564 147.885 38.3366 147.891 38.1875C147.897 38.0385 148.014 37.9158 148.157 37.9158C148.3 37.9158 148.411 38.0385 148.408 38.1875Z" fill="#D8A866"/>
<path d="M149.338 38.2341C149.338 38.3831 149.221 38.4971 149.077 38.4883C148.934 38.4795 148.82 38.3539 148.82 38.2019C148.82 38.0529 148.94 37.936 149.08 37.9448C149.221 37.9536 149.338 38.0851 149.338 38.2341Z" fill="#D8A866"/>
<path d="M150.264 38.3336C150.264 38.4826 150.153 38.5878 150.01 38.5703C149.866 38.5528 149.75 38.4183 149.75 38.2693C149.75 38.1203 149.861 38.0122 150.004 38.0297C150.144 38.0472 150.261 38.1846 150.264 38.3336Z" fill="#D8A866"/>
<path d="M151.184 38.4562C151.19 38.6023 151.079 38.7075 150.936 38.6899C150.793 38.6724 150.676 38.5409 150.673 38.3948C150.67 38.2458 150.778 38.1377 150.918 38.1552C151.059 38.1727 151.178 38.3071 151.184 38.4562Z" fill="#D8A866"/>
<path d="M152.093 38.6082C152.102 38.7513 151.997 38.8478 151.856 38.8244C151.716 38.801 151.599 38.6637 151.59 38.5176C151.585 38.3715 151.687 38.2721 151.827 38.2984C151.964 38.3247 152.084 38.465 152.093 38.6082Z" fill="#D8A866"/>
<path d="M152.97 38.7864C152.984 38.9267 152.885 39.0202 152.751 38.9939C152.616 38.9676 152.499 38.8332 152.488 38.69C152.476 38.5468 152.575 38.4504 152.707 38.4796C152.838 38.5088 152.958 38.6462 152.97 38.7864Z" fill="#D8A866"/>
<path d="M153.817 38.9969C153.835 39.1342 153.744 39.2189 153.613 39.1868C153.481 39.1547 153.364 39.0144 153.35 38.877C153.335 38.7368 153.423 38.652 153.551 38.6871C153.677 38.7222 153.797 38.8624 153.817 38.9998V38.9969Z" fill="#D8A866"/>
<path d="M154.67 39.2043C154.697 39.3387 154.606 39.4205 154.475 39.3913C154.34 39.3621 154.217 39.2277 154.194 39.0903C154.174 38.9559 154.258 38.8712 154.387 38.9033C154.516 38.9354 154.644 39.0728 154.67 39.2043Z" fill="#D8A866"/>
<path d="M155.497 39.441C155.532 39.5695 155.454 39.6455 155.325 39.6075C155.196 39.5725 155.071 39.4351 155.042 39.3036C155.012 39.1721 155.085 39.0962 155.208 39.1371C155.331 39.1751 155.462 39.3124 155.497 39.441Z" fill="#D8A866"/>
<path d="M142.018 41.0717C142.012 41.209 141.909 41.3434 141.787 41.3756C141.661 41.4077 141.562 41.323 141.562 41.1827C141.562 41.0424 141.673 40.9051 141.798 40.8759C141.924 40.8437 142.023 40.9343 142.018 41.0717Z" fill="#D8A866"/>
<path d="M142.865 40.8377C142.859 40.978 142.748 41.1212 142.617 41.1591C142.485 41.1971 142.383 41.1182 142.389 40.9809C142.395 40.8436 142.506 40.6975 142.637 40.6565C142.766 40.6156 142.868 40.6975 142.862 40.8377H142.865Z" fill="#D8A866"/>
<path d="M143.739 40.6127C143.736 40.7559 143.622 40.8962 143.487 40.9283C143.353 40.9605 143.245 40.8728 143.251 40.7326C143.257 40.5923 143.368 40.4491 143.502 40.414C143.636 40.379 143.742 40.4696 143.739 40.6127Z" fill="#D8A866"/>
<path d="M144.636 40.4286C144.633 40.5747 144.519 40.7121 144.379 40.7384C144.238 40.7647 144.13 40.6712 144.133 40.5251C144.136 40.3819 144.253 40.2387 144.39 40.2124C144.528 40.1832 144.639 40.2825 144.633 40.4286H144.636Z" fill="#D8A866"/>
<path d="M145.553 40.2856C145.553 40.4347 145.434 40.5691 145.293 40.5866C145.153 40.6071 145.039 40.5048 145.042 40.3587C145.045 40.2126 145.162 40.0752 145.305 40.0519C145.445 40.0314 145.559 40.1366 145.556 40.2856H145.553Z" fill="#D8A866"/>
<path d="M146.486 40.1891C146.486 40.3381 146.366 40.4696 146.223 40.4813C146.079 40.493 145.965 40.3849 145.968 40.2358C145.968 40.0868 146.088 39.9524 146.231 39.9407C146.374 39.9261 146.488 40.0401 146.486 40.1891Z" fill="#D8A866"/>
<path d="M147.427 40.1394C147.427 40.2914 147.307 40.417 147.161 40.4229C147.014 40.4287 146.901 40.3118 146.901 40.1628C146.901 40.0138 147.02 39.8852 147.166 39.8764C147.313 39.8706 147.427 39.9875 147.427 40.1394Z" fill="#D8A866"/>
<path d="M148.376 40.1365C148.376 40.2884 148.253 40.4082 148.11 40.4053C147.964 40.4053 147.847 40.2826 147.847 40.1306C147.847 39.9787 147.97 39.856 148.113 39.856C148.259 39.856 148.376 39.9816 148.373 40.1336L148.376 40.1365Z" fill="#D8A866"/>
<path d="M149.326 40.1804C149.326 40.3323 149.206 40.4463 149.06 40.4375C148.914 40.4288 148.797 40.3002 148.797 40.1512C148.797 39.9992 148.917 39.8823 149.063 39.8911C149.209 39.8999 149.326 40.0313 149.323 40.1804H149.326Z" fill="#D8A866"/>
<path d="M150.273 40.2708C150.273 40.4198 150.153 40.528 150.007 40.5134C149.861 40.4987 149.744 40.3643 149.747 40.2153C149.747 40.0633 149.866 39.9523 150.013 39.9698C150.159 39.9845 150.273 40.1218 150.273 40.2708Z" fill="#D8A866"/>
<path d="M151.213 40.3702C151.213 40.5192 151.094 40.6273 150.951 40.6157C150.807 40.604 150.69 40.4725 150.69 40.3234C150.69 40.1744 150.81 40.0634 150.953 40.0751C151.097 40.0897 151.213 40.2212 151.213 40.3702Z" fill="#D8A866"/>
<path d="M152.143 40.49C152.143 40.6361 152.026 40.7355 151.883 40.718C151.74 40.6975 151.626 40.566 151.626 40.417C151.626 40.2709 151.742 40.1657 151.883 40.1861C152.026 40.2066 152.14 40.3439 152.14 40.49H152.143Z" fill="#D8A866"/>
<path d="M153.057 40.6302C153.057 40.7734 152.946 40.8728 152.806 40.8523C152.666 40.8319 152.552 40.7004 152.552 40.5543C152.552 40.4111 152.663 40.3088 152.803 40.3293C152.941 40.3497 153.054 40.4871 153.057 40.6302Z" fill="#D8A866"/>
<path d="M153.949 40.7968C153.952 40.9371 153.843 41.0276 153.706 41.0013C153.569 40.975 153.458 40.8406 153.455 40.6974C153.455 40.5543 153.56 40.4607 153.694 40.49C153.829 40.5192 153.943 40.6565 153.946 40.7968H153.949Z" fill="#D8A866"/>
<path d="M154.854 40.9752C154.854 41.1155 154.746 41.2031 154.606 41.1768C154.469 41.1505 154.352 41.0161 154.349 40.8758C154.346 40.7356 154.454 40.645 154.594 40.6713C154.735 40.7005 154.852 40.8349 154.854 40.9752Z" fill="#D8A866"/>
<path d="M155.74 41.1825C155.74 41.3228 155.632 41.4046 155.497 41.3725C155.363 41.3403 155.252 41.203 155.249 41.0656C155.249 40.9254 155.351 40.8406 155.486 40.8728C155.62 40.9049 155.734 41.0452 155.737 41.1854L155.74 41.1825Z" fill="#D8A866"/>
<path d="M142.012 42.8453C142.012 42.9827 141.912 43.1141 141.787 43.1434C141.661 43.1697 141.562 43.082 141.562 42.9476C141.562 42.8132 141.661 42.6788 141.784 42.6495C141.907 42.6203 142.009 42.7109 142.012 42.8482V42.8453Z" fill="#D8A866"/>
<path d="M142.859 42.6524C142.859 42.7926 142.757 42.93 142.622 42.9621C142.491 42.9943 142.38 42.9066 142.377 42.7693C142.374 42.6319 142.479 42.4917 142.611 42.4595C142.742 42.4274 142.853 42.515 142.856 42.6553L142.859 42.6524Z" fill="#D8A866"/>
<path d="M143.739 42.4682C143.742 42.6114 143.634 42.7488 143.499 42.7751C143.365 42.8014 143.251 42.7079 143.248 42.5676C143.245 42.4273 143.353 42.2871 143.487 42.2578C143.622 42.2315 143.736 42.3251 143.739 42.4682Z" fill="#D8A866"/>
<path d="M144.642 42.3194C144.642 42.4655 144.534 42.5999 144.396 42.6204C144.256 42.6408 144.142 42.5415 144.139 42.3983C144.139 42.2551 144.247 42.1178 144.384 42.0944C144.525 42.071 144.639 42.1733 144.642 42.3194Z" fill="#D8A866"/>
<path d="M145.559 42.2053C145.559 42.3544 145.448 42.4859 145.308 42.5005C145.168 42.5151 145.051 42.4099 145.048 42.2638C145.048 42.1177 145.156 41.9833 145.299 41.9657C145.439 41.9482 145.556 42.0563 145.559 42.2053Z" fill="#D8A866"/>
<path d="M146.486 42.1293C146.486 42.2784 146.375 42.4069 146.231 42.4157C146.088 42.4245 145.971 42.3134 145.968 42.1673C145.968 42.0183 146.079 41.8868 146.223 41.878C146.366 41.8663 146.483 41.9803 146.486 42.1322V42.1293Z" fill="#D8A866"/>
<path d="M147.424 42.0913C147.424 42.2403 147.31 42.366 147.164 42.3689C147.02 42.3718 146.903 42.2579 146.901 42.1059C146.901 41.9569 147.014 41.8283 147.158 41.8254C147.301 41.8196 147.421 41.9394 147.421 42.0913H147.424Z" fill="#D8A866"/>
<path d="M148.367 42.0914C148.367 42.2433 148.251 42.3602 148.107 42.3602C147.961 42.3602 147.844 42.2375 147.844 42.0885C147.844 41.9365 147.961 41.8138 148.107 41.8167C148.253 41.8167 148.37 41.9424 148.37 42.0943L148.367 42.0914Z" fill="#D8A866"/>
<path d="M149.308 42.1294C149.308 42.2784 149.189 42.3923 149.045 42.3865C148.902 42.3807 148.785 42.255 148.785 42.1031C148.785 41.954 148.905 41.8342 149.048 41.843C149.194 41.8517 149.311 41.9803 149.308 42.1294Z" fill="#D8A866"/>
<path d="M150.249 42.2083C150.249 42.3573 150.129 42.4654 149.986 42.4537C149.843 42.442 149.726 42.3105 149.726 42.1615C149.726 42.0125 149.846 41.8985 149.992 41.9131C150.135 41.9277 150.252 42.0622 150.249 42.2083Z" fill="#D8A866"/>
<path d="M151.184 42.2843C151.181 42.4333 151.064 42.5414 150.921 42.5326C150.778 42.5239 150.664 42.3982 150.667 42.2492C150.667 42.1002 150.787 41.9862 150.933 41.9979C151.079 42.0096 151.19 42.1382 151.187 42.2843H151.184Z" fill="#D8A866"/>
<path d="M152.114 42.3778C152.111 42.5239 151.994 42.6291 151.851 42.6144C151.71 42.5998 151.596 42.4713 151.599 42.3222C151.599 42.1761 151.719 42.068 151.862 42.0826C152.005 42.0972 152.117 42.2316 152.114 42.3778Z" fill="#D8A866"/>
<path d="M153.037 42.4887C153.037 42.6319 152.917 42.7342 152.774 42.7166C152.631 42.6991 152.52 42.5705 152.523 42.4273C152.526 42.2842 152.645 42.179 152.786 42.1965C152.929 42.214 153.04 42.3455 153.037 42.4887Z" fill="#D8A866"/>
<path d="M153.946 42.6232C153.946 42.7635 153.829 42.8599 153.692 42.8395C153.551 42.819 153.44 42.6875 153.443 42.5443C153.446 42.4012 153.563 42.3018 153.7 42.3252C153.838 42.3486 153.949 42.483 153.946 42.6232Z" fill="#D8A866"/>
<path d="M154.854 42.7723C154.854 42.9125 154.741 43.006 154.6 42.9826C154.46 42.9593 154.349 42.8278 154.352 42.6875C154.352 42.5473 154.469 42.4508 154.609 42.4742C154.749 42.4976 154.857 42.632 154.857 42.7693L154.854 42.7723Z" fill="#D8A866"/>
<path d="M155.743 42.9446C155.743 43.082 155.635 43.1697 155.497 43.1404C155.363 43.1141 155.252 42.9826 155.252 42.8424C155.252 42.705 155.363 42.6144 155.5 42.6437C155.635 42.6729 155.743 42.8073 155.743 42.9417V42.9446Z" fill="#D8A866"/>
<path d="M142.035 44.6161C142.035 44.7534 141.93 44.882 141.798 44.9083C141.667 44.9317 141.562 44.844 141.562 44.7067C141.562 44.5693 141.667 44.4378 141.796 44.4145C141.927 44.3882 142.032 44.4787 142.035 44.6161Z" fill="#D8A866"/>
<path d="M142.903 44.4553C142.903 44.5927 142.798 44.7242 142.663 44.7505C142.529 44.7738 142.421 44.6832 142.421 44.5459C142.421 44.4086 142.526 44.2771 142.658 44.2508C142.792 44.2245 142.903 44.318 142.903 44.4553Z" fill="#D8A866"/>
<path d="M143.785 44.3122C143.785 44.4525 143.677 44.584 143.543 44.6044C143.406 44.6249 143.295 44.5285 143.295 44.3882C143.295 44.2479 143.4 44.1165 143.534 44.096C143.669 44.0755 143.783 44.172 143.785 44.3122Z" fill="#D8A866"/>
<path d="M144.685 44.1952C144.685 44.3384 144.577 44.467 144.44 44.4816C144.303 44.4991 144.189 44.3968 144.186 44.2566C144.186 44.1134 144.291 43.9848 144.431 43.9644C144.569 43.9468 144.685 44.0491 144.688 44.1923L144.685 44.1952Z" fill="#D8A866"/>
<path d="M145.597 44.1077C145.597 44.2538 145.489 44.3765 145.349 44.3911C145.209 44.4028 145.095 44.3005 145.092 44.1544C145.092 44.0112 145.2 43.8797 145.34 43.8681C145.48 43.8564 145.597 43.9645 145.6 44.1077H145.597Z" fill="#D8A866"/>
<path d="M146.518 44.0462C146.518 44.1923 146.407 44.3121 146.266 44.3209C146.126 44.3297 146.009 44.2215 146.006 44.0754C146.006 43.9293 146.117 43.8037 146.258 43.7949C146.401 43.7861 146.518 43.9001 146.518 44.0462Z" fill="#D8A866"/>
<path d="M147.444 44.0199C147.444 44.166 147.333 44.2829 147.19 44.2858C147.047 44.2887 146.93 44.1777 146.927 44.0316C146.927 43.8855 147.038 43.7598 147.181 43.7569C147.324 43.754 147.441 43.8709 147.444 44.017V44.0199Z" fill="#D8A866"/>
<path d="M148.376 44.02C148.376 44.1662 148.265 44.2801 148.122 44.2772C147.979 44.2772 147.862 44.1632 147.859 44.0142C147.859 43.8681 147.973 43.7483 148.116 43.7483C148.259 43.7483 148.376 43.871 148.379 44.02H148.376Z" fill="#D8A866"/>
<path d="M149.308 44.0493C149.308 44.1954 149.194 44.3006 149.054 44.2977C148.911 44.2918 148.794 44.1749 148.791 44.0288C148.791 43.8827 148.905 43.7659 149.048 43.7717C149.191 43.7775 149.308 43.9032 149.308 44.0493Z" fill="#D8A866"/>
<path d="M150.238 44.1107C150.238 44.2568 150.124 44.3562 149.983 44.3474C149.84 44.3386 149.723 44.2188 149.723 44.0727C149.723 43.9266 149.837 43.8156 149.98 43.8273C150.124 43.8389 150.238 43.9675 150.238 44.1107Z" fill="#D8A866"/>
<path d="M151.164 44.1748C151.164 44.318 151.05 44.4203 150.91 44.4115C150.766 44.4027 150.65 44.2888 150.65 44.1456C150.65 44.0024 150.766 43.8884 150.907 43.8972C151.05 43.906 151.164 44.0316 151.164 44.1748Z" fill="#D8A866"/>
<path d="M152.084 44.2508C152.084 44.3882 151.973 44.4905 151.83 44.4788C151.69 44.4671 151.576 44.3473 151.573 44.207C151.573 44.0668 151.687 43.9557 151.827 43.9674C151.967 43.9791 152.081 44.1135 152.081 44.2538L152.084 44.2508Z" fill="#D8A866"/>
<path d="M153.005 44.3443C153.005 44.4816 152.891 44.581 152.748 44.5664C152.604 44.5518 152.49 44.429 152.49 44.2917C152.49 44.1544 152.607 44.0433 152.748 44.0579C152.891 44.0725 153.002 44.204 153.002 44.3443H153.005Z" fill="#D8A866"/>
<path d="M153.917 44.4524C153.917 44.5926 153.805 44.6862 153.665 44.6686C153.525 44.6511 153.411 44.5284 153.411 44.3881C153.411 44.2478 153.528 44.1456 153.665 44.1631C153.805 44.1806 153.917 44.3121 153.917 44.4524Z" fill="#D8A866"/>
<path d="M154.837 44.5722C154.837 44.7096 154.723 44.8031 154.583 44.7856C154.442 44.768 154.326 44.6453 154.326 44.505C154.326 44.3648 154.442 44.2654 154.583 44.2859C154.723 44.3063 154.837 44.432 154.837 44.5722Z" fill="#D8A866"/>
<path d="M155.743 44.7066C155.743 44.844 155.632 44.9346 155.494 44.9141C155.357 44.8937 155.243 44.768 155.243 44.6278C155.243 44.4904 155.357 44.3969 155.494 44.4174C155.632 44.4407 155.743 44.5693 155.743 44.7037V44.7066Z" fill="#D8A866"/>
<path d="M142.044 46.3987C142.044 46.536 141.936 46.6646 141.801 46.6821C141.667 46.6996 141.559 46.6032 141.559 46.4688C141.559 46.3344 141.667 46.2058 141.798 46.1854C141.933 46.1649 142.041 46.2613 142.041 46.3987H142.044Z" fill="#D8A866"/>
<path d="M142.923 46.2787C142.923 46.4219 142.815 46.5505 142.681 46.5651C142.546 46.5826 142.435 46.4832 142.432 46.343C142.432 46.2027 142.538 46.0741 142.675 46.0537C142.809 46.0332 142.92 46.1326 142.923 46.2758V46.2787Z" fill="#D8A866"/>
<path d="M143.818 46.1737C143.818 46.3198 143.71 46.4483 143.572 46.463C143.435 46.4776 143.321 46.3724 143.321 46.2292C143.321 46.086 143.429 45.9545 143.563 45.9399C143.701 45.9224 143.815 46.0276 143.818 46.1737Z" fill="#D8A866"/>
<path d="M144.721 46.0859C144.724 46.2349 144.613 46.3635 144.475 46.3752C144.335 46.3868 144.221 46.2787 144.218 46.1326C144.218 45.9865 144.326 45.855 144.463 45.8404C144.604 45.8258 144.718 45.9368 144.721 46.0859Z" fill="#D8A866"/>
<path d="M145.632 46.0218C145.632 46.1737 145.524 46.3023 145.384 46.3111C145.244 46.3198 145.127 46.2059 145.124 46.0569C145.124 45.9078 145.232 45.7763 145.372 45.7676C145.512 45.7588 145.629 45.8728 145.632 46.0218Z" fill="#D8A866"/>
<path d="M146.55 45.9749C146.55 46.1268 146.439 46.2554 146.299 46.2612C146.158 46.2671 146.041 46.1502 146.038 45.9982C146.038 45.8463 146.147 45.7177 146.29 45.7119C146.43 45.706 146.547 45.8229 146.55 45.9749Z" fill="#D8A866"/>
<path d="M147.473 45.9515C147.473 46.1034 147.362 46.232 147.222 46.2349C147.082 46.2349 146.965 46.1151 146.962 45.9632C146.962 45.8112 147.073 45.6827 147.213 45.6797C147.356 45.6768 147.473 45.7995 147.473 45.9515Z" fill="#D8A866"/>
<path d="M148.4 45.9514C148.4 46.1063 148.289 46.229 148.145 46.229C148.002 46.229 147.885 46.1034 147.885 45.9514C147.885 45.7966 147.996 45.6738 148.139 45.6738C148.283 45.6738 148.4 45.7995 148.4 45.9544V45.9514Z" fill="#D8A866"/>
<path d="M149.329 45.969C149.329 46.1239 149.215 46.2437 149.075 46.2408C148.934 46.2379 148.817 46.1093 148.814 45.9544C148.814 45.7996 148.925 45.6797 149.069 45.6827C149.212 45.6856 149.329 45.8142 149.329 45.969Z" fill="#D8A866"/>
<path d="M150.252 46.0129C150.252 46.1648 150.138 46.2846 149.998 46.2759C149.858 46.27 149.741 46.1385 149.741 45.9866C149.741 45.8346 149.855 45.7148 149.995 45.7236C150.138 45.7324 150.252 45.8609 150.255 46.0129H150.252Z" fill="#D8A866"/>
<path d="M151.176 46.0595C151.176 46.2115 151.062 46.3284 150.921 46.3225C150.781 46.3167 150.664 46.1881 150.664 46.0362C150.664 45.8842 150.775 45.7673 150.918 45.7732C151.059 45.779 151.176 45.9076 151.176 46.0595Z" fill="#D8A866"/>
<path d="M152.09 46.1151C152.09 46.2641 151.976 46.3781 151.836 46.3693C151.696 46.3605 151.582 46.2319 151.582 46.08C151.582 45.928 151.693 45.8141 151.836 45.8258C151.976 45.8345 152.09 45.966 152.09 46.1151Z" fill="#D8A866"/>
<path d="M153.008 46.1854C153.008 46.3315 152.894 46.4426 152.753 46.4338C152.613 46.425 152.496 46.2964 152.496 46.1474C152.496 45.9984 152.61 45.8873 152.751 45.899C152.891 45.9107 153.005 46.0393 153.005 46.1854H153.008Z" fill="#D8A866"/>
<path d="M153.919 46.2699C153.919 46.4131 153.806 46.5212 153.668 46.5066C153.528 46.4949 153.414 46.3663 153.414 46.2202C153.414 46.0741 153.528 45.9689 153.665 45.9835C153.806 45.9981 153.919 46.1267 153.919 46.2699Z" fill="#D8A866"/>
<path d="M154.837 46.3607C154.837 46.501 154.723 46.6033 154.583 46.5916C154.442 46.577 154.328 46.4513 154.328 46.3111C154.328 46.1708 154.442 46.0656 154.583 46.0802C154.723 46.0948 154.837 46.2205 154.837 46.3607Z" fill="#D8A866"/>
<path d="M155.743 46.4659C155.743 46.6032 155.632 46.6997 155.492 46.685C155.354 46.6704 155.24 46.5448 155.24 46.4074C155.24 46.2701 155.354 46.1708 155.492 46.1883C155.629 46.2058 155.74 46.3315 155.74 46.4659H155.743Z" fill="#D8A866"/>
<path d="M142.056 48.1898C142.056 48.3271 141.945 48.4469 141.807 48.4586C141.67 48.4674 141.559 48.3651 141.559 48.2307C141.559 48.0963 141.67 47.9735 141.804 47.9618C141.942 47.9502 142.053 48.0524 142.053 48.1927L142.056 48.1898Z" fill="#D8A866"/>
<path d="M142.95 48.1226C142.95 48.2658 142.842 48.3885 142.704 48.3972C142.567 48.406 142.456 48.3008 142.453 48.1606C142.453 48.0203 142.561 47.8976 142.698 47.8859C142.836 47.8742 142.947 47.9823 142.95 48.1226Z" fill="#D8A866"/>
<path d="M143.85 48.0614C143.85 48.2075 143.742 48.3302 143.604 48.339C143.467 48.3477 143.353 48.2367 143.35 48.0935C143.35 47.9503 143.458 47.8247 143.596 47.8159C143.733 47.8071 143.847 47.9182 143.85 48.0643V48.0614Z" fill="#D8A866"/>
<path d="M144.756 48.0145C144.759 48.1635 144.648 48.2891 144.507 48.295C144.367 48.3008 144.253 48.1869 144.25 48.0408C144.247 47.8946 144.358 47.7661 144.496 47.7602C144.636 47.7515 144.75 47.8683 144.753 48.0174L144.756 48.0145Z" fill="#D8A866"/>
<path d="M145.667 47.9795C145.667 48.1314 145.559 48.2571 145.419 48.26C145.279 48.2629 145.162 48.1461 145.162 47.997C145.159 47.848 145.27 47.7194 145.41 47.7136C145.55 47.7077 145.667 47.8275 145.67 47.9766L145.667 47.9795Z" fill="#D8A866"/>
<path d="M146.585 47.9591C146.585 48.111 146.474 48.2367 146.334 48.2396C146.193 48.2396 146.076 48.1198 146.073 47.9678C146.073 47.8159 146.182 47.6902 146.325 47.6844C146.465 47.6815 146.582 47.8042 146.585 47.9561V47.9591Z" fill="#D8A866"/>
<path d="M147.502 47.9473C147.502 48.1022 147.391 48.2249 147.251 48.2278C147.111 48.2278 146.994 48.1051 146.991 47.9502C146.991 47.7953 147.102 47.6697 147.242 47.6697C147.383 47.6697 147.5 47.7924 147.502 47.9473Z" fill="#D8A866"/>
<path d="M148.423 47.9532C148.423 48.1081 148.312 48.2308 148.169 48.2308C148.028 48.2308 147.911 48.1051 147.909 47.9503C147.909 47.7954 148.02 47.6697 148.16 47.6727C148.3 47.6727 148.417 47.8012 148.42 47.9561L148.423 47.9532Z" fill="#D8A866"/>
<path d="M149.343 47.9708C149.343 48.1256 149.232 48.2484 149.089 48.2454C148.949 48.2454 148.832 48.1169 148.832 47.962C148.832 47.8071 148.943 47.6844 149.086 47.6873C149.227 47.6902 149.343 47.8188 149.343 47.9737V47.9708Z" fill="#D8A866"/>
<path d="M150.264 48.0029C150.264 48.1578 150.15 48.2746 150.01 48.2717C149.869 48.2659 149.752 48.1373 149.752 47.9853C149.752 47.8305 149.866 47.7107 150.007 47.7165C150.147 47.7224 150.264 47.8509 150.264 48.0058V48.0029Z" fill="#D8A866"/>
<path d="M151.181 48.032C151.181 48.184 151.067 48.3038 150.927 48.3009C150.787 48.3009 150.673 48.1723 150.673 48.0203C150.673 47.8684 150.787 47.7457 150.927 47.7486C151.067 47.7515 151.181 47.8801 151.181 48.032Z" fill="#D8A866"/>
<path d="M152.093 48.0612C152.093 48.2103 151.979 48.3301 151.839 48.3242C151.699 48.3184 151.585 48.1927 151.585 48.0408C151.585 47.8888 151.699 47.772 151.839 47.7778C151.979 47.7836 152.093 47.9093 152.093 48.0612Z" fill="#D8A866"/>
<path d="M153.008 48.0964C153.008 48.2425 152.894 48.3594 152.754 48.3536C152.613 48.3506 152.499 48.225 152.499 48.076C152.499 47.9269 152.613 47.81 152.754 47.8159C152.894 47.8217 153.008 47.9474 153.008 48.0935V48.0964Z" fill="#D8A866"/>
<path d="M153.919 48.1372C153.919 48.2804 153.806 48.3944 153.665 48.3885C153.525 48.3827 153.414 48.2599 153.414 48.1138C153.414 47.9677 153.528 47.8538 153.668 47.8625C153.808 47.8713 153.919 47.994 153.919 48.1372Z" fill="#D8A866"/>
<path d="M154.834 48.1782C154.834 48.3185 154.72 48.4266 154.58 48.4237C154.44 48.4179 154.326 48.298 154.326 48.1578C154.326 48.0175 154.44 47.9065 154.58 47.9123C154.72 47.9211 154.834 48.0409 154.834 48.1812V48.1782Z" fill="#D8A866"/>
<path d="M155.743 48.228C155.743 48.3653 155.632 48.4676 155.492 48.4618C155.351 48.4559 155.24 48.339 155.24 48.1988C155.24 48.0585 155.354 47.9533 155.492 47.965C155.632 47.9738 155.743 48.0936 155.743 48.228Z" fill="#D8A866"/>
<path d="M143.271 36.8461C143.198 36.9601 143.064 37.1004 142.973 37.1588C142.883 37.2172 142.871 37.1763 142.953 37.0653C143.032 36.9572 143.169 36.8169 143.254 36.7526C143.338 36.6883 143.347 36.7292 143.271 36.8432V36.8461Z" fill="#D8A866"/>
<path d="M143.911 36.4547C143.847 36.5774 143.71 36.7235 143.604 36.7819C143.499 36.8404 143.47 36.7936 143.54 36.6738C143.61 36.5569 143.75 36.4079 143.85 36.3466C143.949 36.2823 143.975 36.3319 143.911 36.4547Z" fill="#D8A866"/>
<path d="M144.609 36.101C144.557 36.2267 144.422 36.3728 144.311 36.4224C144.2 36.4721 144.157 36.4137 144.215 36.2909C144.273 36.1682 144.411 36.0221 144.513 35.9695C144.618 35.9169 144.659 35.9754 144.607 36.101H144.609Z" fill="#D8A866"/>
<path d="M145.343 35.8029C145.299 35.9344 145.171 36.0747 145.057 36.1185C144.94 36.1594 144.884 36.0922 144.934 35.9607C144.984 35.8321 145.112 35.689 145.223 35.6451C145.334 35.6013 145.387 35.6714 145.346 35.8029H145.343Z" fill="#D8A866"/>
<path d="M146.103 35.5721C146.071 35.7095 145.945 35.8439 145.825 35.876C145.705 35.9082 145.638 35.8264 145.676 35.692C145.714 35.5575 145.84 35.4202 145.954 35.3851C146.068 35.3501 146.135 35.4348 146.1 35.5692L146.103 35.5721Z" fill="#D8A866"/>
<path d="M146.886 35.4056C146.863 35.5459 146.743 35.6745 146.62 35.6978C146.497 35.7212 146.421 35.6277 146.448 35.4904C146.477 35.353 146.594 35.2186 146.713 35.1952C146.83 35.1719 146.906 35.2654 146.886 35.4056Z" fill="#D8A866"/>
<path d="M147.684 35.3091C147.672 35.4523 147.558 35.575 147.432 35.5867C147.307 35.5984 147.222 35.4961 147.239 35.3558C147.257 35.2156 147.371 35.087 147.491 35.0753C147.611 35.0607 147.698 35.1688 147.684 35.312V35.3091Z" fill="#D8A866"/>
<path d="M148.487 35.2769C148.484 35.423 148.376 35.537 148.25 35.5399C148.125 35.5399 148.028 35.4289 148.037 35.2857C148.046 35.1425 148.151 35.0198 148.274 35.0168C148.397 35.0168 148.49 35.1308 148.487 35.2769Z" fill="#D8A866"/>
<path d="M149.297 35.312C149.302 35.4581 149.203 35.5662 149.077 35.5575C148.952 35.5487 148.849 35.4289 148.847 35.2828C148.847 35.1367 148.943 35.0227 149.063 35.0315C149.183 35.0402 149.288 35.1659 149.294 35.312H149.297Z" fill="#D8A866"/>
<path d="M150.1 35.4203C150.115 35.5693 150.027 35.6686 149.902 35.6482C149.776 35.6307 149.668 35.4992 149.656 35.3531C149.644 35.207 149.732 35.0988 149.855 35.1164C149.975 35.1339 150.086 35.2712 150.1 35.4203Z" fill="#D8A866"/>
<path d="M150.892 35.5722C150.918 35.7183 150.837 35.8147 150.711 35.7913C150.588 35.768 150.471 35.6365 150.451 35.4874C150.43 35.3384 150.509 35.2391 150.626 35.2624C150.746 35.2887 150.863 35.4261 150.889 35.5722H150.892Z" fill="#D8A866"/>
<path d="M151.669 35.7767C151.704 35.9169 151.634 36.0017 151.515 35.9695C151.395 35.9374 151.272 35.7971 151.243 35.6539C151.211 35.5107 151.281 35.4202 151.395 35.4581C151.512 35.4932 151.634 35.6393 151.672 35.7767H151.669Z" fill="#D8A866"/>
<path d="M152.403 36.0339C152.45 36.1683 152.391 36.2443 152.28 36.2063C152.166 36.1683 152.043 36.0251 152.002 35.8878C151.962 35.7505 152.014 35.6716 152.122 35.7125C152.23 35.7534 152.356 35.8995 152.403 36.0339Z" fill="#D8A866"/>
<path d="M153.098 36.3406C153.154 36.4663 153.11 36.5335 153.002 36.4867C152.894 36.44 152.765 36.2939 152.716 36.1653C152.666 36.0338 152.704 35.9695 152.806 36.0192C152.908 36.0689 153.04 36.215 153.095 36.3406H153.098Z" fill="#D8A866"/>
<path d="M153.747 36.6826C153.814 36.8024 153.785 36.8579 153.686 36.8053C153.583 36.7557 153.455 36.6125 153.394 36.4897C153.332 36.367 153.358 36.3115 153.452 36.367C153.545 36.4225 153.68 36.5657 153.747 36.6826Z" fill="#D8A866"/>
<path d="M154.352 37.0682C154.434 37.1763 154.419 37.2202 154.323 37.1617C154.226 37.1033 154.092 36.963 154.019 36.8491C153.946 36.7351 153.954 36.6942 154.045 36.7585C154.133 36.8228 154.27 36.9601 154.352 37.0711V37.0682Z" fill="#D8A866"/>
<path d="M142.491 38.43C142.447 38.5586 142.322 38.693 142.211 38.731C142.099 38.769 142.05 38.7017 142.099 38.579C142.149 38.4563 142.278 38.3219 142.383 38.278C142.488 38.2342 142.535 38.3014 142.488 38.43H142.491Z" fill="#D8A866"/>
<path d="M143.248 38.126C143.21 38.2604 143.084 38.4094 142.961 38.4591C142.842 38.5088 142.771 38.4445 142.812 38.313C142.853 38.1815 142.985 38.0325 143.102 37.9799C143.219 37.9273 143.283 37.9945 143.245 38.126H143.248Z" fill="#D8A866"/>
<path d="M144.054 37.8279C144.022 37.9653 143.896 38.1114 143.771 38.1523C143.645 38.1961 143.569 38.1201 143.601 37.9857C143.636 37.8513 143.765 37.7023 143.888 37.6584C144.01 37.6146 144.084 37.6877 144.051 37.8279H144.054Z" fill="#D8A866"/>
<path d="M144.893 37.5797C144.867 37.7199 144.741 37.8602 144.612 37.8982C144.481 37.9333 144.396 37.8514 144.425 37.7112C144.455 37.5709 144.583 37.4277 144.712 37.3897C144.84 37.3518 144.922 37.4394 144.896 37.5797H144.893Z" fill="#D8A866"/>
<path d="M145.755 37.3897C145.735 37.5329 145.612 37.6702 145.477 37.6965C145.343 37.7228 145.252 37.6322 145.273 37.489C145.296 37.3459 145.422 37.2085 145.553 37.1793C145.685 37.1501 145.773 37.2465 145.755 37.3897Z" fill="#D8A866"/>
<path d="M146.638 37.2583C146.623 37.4044 146.5 37.533 146.363 37.5534C146.225 37.571 146.129 37.4687 146.144 37.3255C146.161 37.1823 146.287 37.0479 146.418 37.0274C146.553 37.007 146.649 37.1122 146.635 37.2583H146.638Z" fill="#D8A866"/>
<path d="M147.532 37.1851C147.523 37.3312 147.403 37.4569 147.263 37.4657C147.126 37.4744 147.02 37.3634 147.032 37.2173C147.044 37.0712 147.164 36.9426 147.301 36.9338C147.435 36.9251 147.54 37.0361 147.532 37.1851Z" fill="#D8A866"/>
<path d="M148.432 37.1704C148.429 37.3166 148.312 37.4364 148.172 37.4364C148.031 37.4364 147.923 37.3195 147.932 37.1704C147.938 37.0243 148.055 36.9016 148.192 36.9016C148.329 36.9016 148.438 37.0214 148.432 37.1704Z" fill="#D8A866"/>
<path d="M149.338 37.2144C149.338 37.3605 149.226 37.4716 149.086 37.4628C148.946 37.454 148.835 37.3284 148.838 37.1823C148.838 37.0362 148.952 36.9193 149.089 36.931C149.226 36.9397 149.338 37.0683 149.34 37.2174L149.338 37.2144Z" fill="#D8A866"/>
<path d="M150.235 37.3225C150.24 37.4686 150.132 37.5738 149.992 37.5534C149.855 37.5358 149.738 37.4014 149.735 37.2553C149.732 37.1092 149.84 37.0011 149.975 37.0215C150.109 37.0391 150.226 37.1764 150.232 37.3225H150.235Z" fill="#D8A866"/>
<path d="M151.126 37.4539C151.138 37.6 151.032 37.6994 150.895 37.6818C150.758 37.6643 150.638 37.5299 150.629 37.3838C150.62 37.2377 150.723 37.1325 150.86 37.1529C150.994 37.1734 151.114 37.3078 151.126 37.4539Z" fill="#D8A866"/>
<path d="M152.005 37.6235C152.023 37.7667 151.924 37.8602 151.789 37.831C151.655 37.8047 151.535 37.6673 151.52 37.5212C151.506 37.3751 151.602 37.2816 151.734 37.3079C151.865 37.3371 151.988 37.4774 152.005 37.6206V37.6235Z" fill="#D8A866"/>
<path d="M152.847 37.8221C152.87 37.9623 152.783 38.05 152.654 38.0208C152.526 37.9916 152.406 37.8542 152.385 37.711C152.368 37.5679 152.453 37.4773 152.578 37.5094C152.704 37.5416 152.824 37.6818 152.847 37.8221Z" fill="#D8A866"/>
<path d="M153.653 38.0617C153.683 38.1962 153.604 38.2751 153.481 38.2371C153.355 38.1991 153.236 38.0588 153.209 37.9215C153.183 37.7841 153.259 37.7023 153.379 37.7432C153.499 37.7841 153.621 37.9244 153.653 38.0617Z" fill="#D8A866"/>
<path d="M154.445 38.3042C154.486 38.4328 154.413 38.5088 154.291 38.4737C154.168 38.4387 154.039 38.3013 154.007 38.1698C153.975 38.0383 154.039 37.9594 154.159 38.0003C154.276 38.0383 154.407 38.1757 154.445 38.3042Z" fill="#D8A866"/>
<path d="M155.202 38.5791C155.252 38.7018 155.196 38.7661 155.077 38.7252C154.957 38.6843 154.828 38.5469 154.784 38.4213C154.741 38.2956 154.793 38.2284 154.904 38.2752C155.015 38.3219 155.15 38.4563 155.202 38.5791Z" fill="#D8A866"/>
<path d="M142.094 40.1335C142.076 40.2679 141.962 40.4024 141.836 40.4316C141.711 40.4608 141.62 40.379 141.641 40.2446C141.661 40.1101 141.781 39.9757 141.904 39.9436C142.026 39.9114 142.111 39.9962 142.094 40.1335Z" fill="#D8A866"/>
<path d="M142.929 39.8882C142.915 40.0255 142.801 40.1716 142.672 40.2155C142.544 40.2593 142.45 40.1833 142.465 40.046C142.479 39.9116 142.599 39.7625 142.725 39.7187C142.853 39.6749 142.944 39.7509 142.929 39.8882Z" fill="#D8A866"/>
<path d="M143.788 39.6368C143.777 39.7799 143.66 39.9202 143.525 39.9582C143.391 39.9933 143.292 39.9114 143.306 39.7712C143.318 39.6309 143.438 39.4877 143.569 39.4497C143.701 39.4118 143.797 39.4965 143.788 39.6397V39.6368Z" fill="#D8A866"/>
<path d="M144.677 39.4322C144.668 39.5783 144.548 39.7156 144.411 39.7448C144.273 39.7741 144.168 39.6835 144.18 39.5403C144.192 39.3971 144.311 39.2539 144.446 39.2218C144.583 39.1896 144.685 39.2861 144.677 39.4292V39.4322Z" fill="#D8A866"/>
<path d="M145.585 39.2715C145.577 39.4177 145.46 39.555 145.32 39.5755C145.179 39.5959 145.071 39.4995 145.08 39.3534C145.089 39.2073 145.209 39.0699 145.349 39.0465C145.489 39.0232 145.594 39.1254 145.588 39.2715H145.585Z" fill="#D8A866"/>
<path d="M146.512 39.1664C146.506 39.3155 146.386 39.447 146.243 39.4616C146.1 39.4762 145.989 39.3681 145.995 39.219C146 39.07 146.123 38.9385 146.263 38.921C146.407 38.9064 146.515 39.0174 146.509 39.1635L146.512 39.1664Z" fill="#D8A866"/>
<path d="M147.447 39.1079C147.444 39.257 147.324 39.3826 147.178 39.3914C147.035 39.3972 146.921 39.2833 146.924 39.1342C146.93 38.9852 147.05 38.8566 147.193 38.8479C147.336 38.8391 147.45 38.9589 147.447 39.1079Z" fill="#D8A866"/>
<path d="M148.391 39.1021C148.391 39.254 148.268 39.3738 148.122 39.3709C147.976 39.3709 147.862 39.2482 147.865 39.0991C147.868 38.9472 147.988 38.8245 148.134 38.8245C148.277 38.8245 148.394 38.9501 148.391 39.0991V39.1021Z" fill="#D8A866"/>
<path d="M149.335 39.1459C149.335 39.2979 149.215 39.4089 149.069 39.4002C148.923 39.3914 148.806 39.2658 148.809 39.1138C148.809 38.9618 148.928 38.8479 149.075 38.8537C149.218 38.8625 149.335 38.994 149.335 39.143V39.1459Z" fill="#D8A866"/>
<path d="M150.276 39.2452C150.276 39.3942 150.159 39.5023 150.015 39.4848C149.872 39.4673 149.755 39.3358 149.755 39.1838C149.755 39.0348 149.872 38.9237 150.015 38.9413C150.159 38.9588 150.276 39.0961 150.276 39.2452Z" fill="#D8A866"/>
<path d="M151.208 39.3533C151.208 39.5024 151.094 39.6076 150.951 39.593C150.807 39.5783 150.691 39.4469 150.688 39.2978C150.688 39.1488 150.802 39.0378 150.945 39.0553C151.088 39.0699 151.205 39.2043 151.208 39.3533Z" fill="#D8A866"/>
<path d="M152.131 39.4908C152.134 39.6369 152.023 39.7334 151.88 39.7129C151.739 39.6895 151.623 39.5551 151.62 39.409C151.617 39.2629 151.728 39.1606 151.868 39.184C152.008 39.2074 152.125 39.3476 152.131 39.4908Z" fill="#D8A866"/>
<path d="M153.031 39.6513C153.037 39.7945 152.932 39.888 152.794 39.8646C152.657 39.8412 152.54 39.7068 152.537 39.5636C152.531 39.4205 152.639 39.3211 152.774 39.3445C152.908 39.3708 153.025 39.5052 153.034 39.6484L153.031 39.6513Z" fill="#D8A866"/>
<path d="M153.902 39.8385C153.914 39.9787 153.811 40.0664 153.677 40.0372C153.542 40.0079 153.428 39.8706 153.42 39.7303C153.411 39.5901 153.51 39.4995 153.642 39.5316C153.773 39.5638 153.89 39.7011 153.899 39.8414L153.902 39.8385Z" fill="#D8A866"/>
<path d="M154.793 40.0284C154.808 40.1658 154.705 40.2534 154.568 40.2242C154.431 40.195 154.308 40.0606 154.296 39.9232C154.285 39.7859 154.384 39.6953 154.518 39.7274C154.653 39.7567 154.778 39.8911 154.793 40.0284Z" fill="#D8A866"/>
<path d="M155.664 40.2446C155.684 40.3791 155.591 40.4609 155.456 40.4258C155.322 40.3907 155.202 40.2534 155.185 40.119C155.167 39.9846 155.258 39.9027 155.389 39.9378C155.521 39.9729 155.646 40.1102 155.664 40.2446Z" fill="#D8A866"/>
<path d="M142.006 41.9044C142.006 42.0418 141.907 42.1762 141.784 42.2054C141.661 42.2346 141.562 42.1499 141.562 42.0125C141.562 41.8752 141.661 41.7408 141.784 41.7116C141.907 41.6823 142.006 41.7671 142.006 41.9044Z" fill="#D8A866"/>
<path d="M142.847 41.691C142.847 41.8313 142.739 41.9716 142.608 42.0066C142.476 42.0417 142.368 41.9599 142.371 41.8225C142.371 41.6852 142.479 41.542 142.611 41.504C142.742 41.466 142.847 41.5537 142.847 41.691Z" fill="#D8A866"/>
<path d="M143.727 41.4865C143.727 41.6297 143.619 41.77 143.482 41.7992C143.347 41.8284 143.236 41.7378 143.236 41.5976C143.236 41.4573 143.347 41.3141 143.482 41.282C143.616 41.2498 143.727 41.3433 143.727 41.4865Z" fill="#D8A866"/>
<path d="M144.627 41.3171C144.627 41.4632 144.516 41.6006 144.376 41.624C144.236 41.6473 144.125 41.5509 144.125 41.4077C144.125 41.2616 144.236 41.1243 144.376 41.098C144.516 41.0717 144.627 41.171 144.627 41.3171Z" fill="#D8A866"/>
<path d="M145.548 41.1885C145.548 41.3376 145.434 41.4691 145.293 41.4866C145.153 41.5041 145.036 41.4019 145.036 41.2528C145.036 41.1067 145.15 40.9694 145.293 40.9489C145.434 40.9314 145.55 41.0366 145.55 41.1856L145.548 41.1885Z" fill="#D8A866"/>
<path d="M146.48 41.1037C146.48 41.2527 146.363 41.3813 146.22 41.393C146.076 41.4047 145.96 41.2936 145.96 41.1446C145.96 40.9956 146.076 40.8641 146.22 40.8495C146.363 40.8378 146.48 40.9517 146.48 41.1008V41.1037Z" fill="#D8A866"/>
<path d="M147.421 41.0598C147.421 41.2118 147.304 41.3345 147.158 41.3403C147.012 41.3462 146.895 41.2293 146.895 41.0774C146.895 40.9283 147.012 40.7998 147.158 40.7939C147.304 40.7881 147.421 40.9079 147.421 41.0598Z" fill="#D8A866"/>
<path d="M148.367 41.0569C148.367 41.2088 148.248 41.3286 148.101 41.3257C147.955 41.3257 147.839 41.203 147.839 41.051C147.839 40.8991 147.958 40.7764 148.104 40.7764C148.251 40.7764 148.367 40.902 148.367 41.054V41.0569Z" fill="#D8A866"/>
<path d="M149.317 41.0979C149.317 41.2498 149.197 41.3638 149.051 41.355C148.905 41.3462 148.788 41.2206 148.788 41.0686C148.788 40.9167 148.908 40.7998 149.054 40.8086C149.2 40.8173 149.317 40.9459 149.314 41.0979H149.317Z" fill="#D8A866"/>
<path d="M150.261 41.1854C150.261 41.3344 150.141 41.4425 149.995 41.4308C149.849 41.4162 149.735 41.2847 149.735 41.1328C149.735 40.9808 149.855 40.8698 150.001 40.8873C150.147 40.9019 150.261 41.0363 150.261 41.1883V41.1854Z" fill="#D8A866"/>
<path d="M151.202 41.2733C151.202 41.4223 151.082 41.5304 150.936 41.5187C150.793 41.507 150.676 41.3814 150.679 41.2324C150.679 41.0833 150.801 40.9694 150.945 40.981C151.091 40.9927 151.205 41.1242 151.202 41.2733Z" fill="#D8A866"/>
<path d="M152.134 41.3783C152.134 41.5244 152.014 41.6267 151.871 41.6091C151.728 41.5916 151.614 41.4601 151.617 41.314C151.617 41.1679 151.737 41.0598 151.88 41.0773C152.023 41.0948 152.134 41.2322 152.134 41.3754V41.3783Z" fill="#D8A866"/>
<path d="M153.055 41.504C153.055 41.6472 152.938 41.7466 152.794 41.729C152.654 41.7115 152.54 41.58 152.543 41.4339C152.543 41.2878 152.663 41.1855 152.803 41.206C152.943 41.2264 153.057 41.3579 153.055 41.504Z" fill="#D8A866"/>
<path d="M153.957 41.6559C153.957 41.7962 153.843 41.8926 153.706 41.8692C153.569 41.8458 153.458 41.7114 153.458 41.5682C153.458 41.425 153.572 41.3286 153.709 41.3549C153.846 41.3812 153.957 41.5156 153.957 41.6559Z" fill="#D8A866"/>
<path d="M154.86 41.8196C154.86 41.9598 154.749 42.0504 154.609 42.0241C154.472 41.9978 154.358 41.8663 154.358 41.7261C154.358 41.5858 154.472 41.4923 154.609 41.5186C154.746 41.5449 154.857 41.6793 154.857 41.8196H154.86Z" fill="#D8A866"/>
<path d="M155.743 42.0125C155.743 42.1498 155.635 42.2345 155.5 42.2024C155.366 42.1732 155.255 42.0388 155.255 41.9014C155.255 41.7641 155.366 41.6764 155.5 41.7086C155.635 41.7407 155.743 41.878 155.743 42.0125Z" fill="#D8A866"/>
<path d="M142.023 43.681C142.023 43.8184 141.921 43.9499 141.793 43.9762C141.664 44.0025 141.562 43.9119 141.562 43.7775C141.562 43.643 141.664 43.5086 141.79 43.4823C141.915 43.456 142.021 43.5466 142.023 43.684V43.681Z" fill="#D8A866"/>
<path d="M142.883 43.5028C142.886 43.643 142.78 43.7774 142.649 43.8037C142.514 43.83 142.406 43.7424 142.403 43.605C142.4 43.4677 142.503 43.3304 142.637 43.3011C142.769 43.2719 142.883 43.3625 142.886 43.5028H142.883Z" fill="#D8A866"/>
<path d="M143.762 43.3391C143.765 43.4823 143.657 43.6138 143.522 43.6372C143.385 43.6606 143.274 43.567 143.271 43.4239C143.268 43.2836 143.373 43.1463 143.508 43.1229C143.645 43.0995 143.759 43.1959 143.762 43.3362V43.3391Z" fill="#D8A866"/>
<path d="M144.662 43.2047C144.665 43.3508 144.557 43.4823 144.417 43.4998C144.279 43.5202 144.162 43.418 144.159 43.2748C144.157 43.1316 144.265 42.9972 144.402 42.9767C144.539 42.9563 144.656 43.0585 144.659 43.2047H144.662Z" fill="#D8A866"/>
<path d="M145.577 43.1054C145.58 43.2515 145.469 43.383 145.328 43.3947C145.188 43.4093 145.071 43.3041 145.068 43.158C145.065 43.0119 145.176 42.8804 145.317 42.8658C145.457 42.8512 145.574 42.9593 145.577 43.1054Z" fill="#D8A866"/>
<path d="M146.5 43.0352C146.5 43.1843 146.389 43.3099 146.249 43.3187C146.106 43.3274 145.989 43.2164 145.986 43.0703C145.986 42.9213 146.097 42.7927 146.237 42.7839C146.38 42.7752 146.497 42.8891 146.5 43.0381V43.0352Z" fill="#D8A866"/>
<path d="M147.432 43.003C147.432 43.1521 147.318 43.2748 147.175 43.2777C147.032 43.2806 146.915 43.1667 146.912 43.0176C146.912 42.8686 147.023 42.743 147.166 42.74C147.31 42.7371 147.429 42.854 147.429 43.003H147.432Z" fill="#D8A866"/>
<path d="M148.367 43.003C148.367 43.152 148.253 43.2718 148.107 43.2689C147.964 43.2689 147.847 43.1462 147.844 42.9972C147.844 42.8481 147.958 42.7254 148.102 42.7283C148.245 42.7283 148.364 42.854 148.364 43.003H148.367Z" fill="#D8A866"/>
<path d="M149.305 43.041C149.305 43.19 149.189 43.304 149.045 43.2952C148.902 43.2894 148.785 43.1637 148.785 43.0147C148.785 42.8656 148.902 42.7488 149.045 42.7546C149.189 42.7604 149.305 42.889 149.305 43.0381V43.041Z" fill="#D8A866"/>
<path d="M150.24 43.1112C150.24 43.2573 150.124 43.3683 149.98 43.3566C149.837 43.3449 149.72 43.2164 149.723 43.0673C149.723 42.9183 149.84 42.8073 149.983 42.819C150.126 42.8306 150.243 42.9621 150.24 43.1112Z" fill="#D8A866"/>
<path d="M151.17 43.1785C151.17 43.3246 151.05 43.4356 150.91 43.4268C150.766 43.4181 150.652 43.2953 150.652 43.1492C150.652 43.0031 150.772 42.8892 150.915 42.8979C151.059 42.9067 151.173 43.0353 151.17 43.1814V43.1785Z" fill="#D8A866"/>
<path d="M152.093 43.2633C152.093 43.4094 151.976 43.5146 151.833 43.5C151.693 43.4854 151.579 43.3597 151.582 43.2136C151.582 43.0675 151.702 42.9594 151.842 42.974C151.982 42.9886 152.096 43.1201 152.093 43.2633Z" fill="#D8A866"/>
<path d="M153.017 43.3624C153.017 43.5056 152.897 43.6079 152.754 43.5933C152.613 43.5787 152.496 43.4501 152.499 43.3069C152.499 43.1637 152.619 43.0556 152.762 43.0732C152.906 43.0907 153.017 43.2193 153.014 43.3624H153.017Z" fill="#D8A866"/>
<path d="M153.928 43.4853C153.928 43.6256 153.811 43.7249 153.671 43.7045C153.531 43.684 153.42 43.5554 153.423 43.4123C153.423 43.2691 153.542 43.1697 153.68 43.1902C153.82 43.2106 153.928 43.3421 153.925 43.4853H153.928Z" fill="#D8A866"/>
<path d="M154.843 43.6197C154.843 43.7599 154.726 43.8534 154.586 43.833C154.445 43.8125 154.331 43.6839 154.334 43.5437C154.334 43.4034 154.454 43.307 154.594 43.3274C154.735 43.3479 154.846 43.4794 154.843 43.6197Z" fill="#D8A866"/>
<path d="M155.743 43.7744C155.743 43.9118 155.632 43.9994 155.494 43.9761C155.357 43.9527 155.246 43.8212 155.246 43.6838C155.246 43.5465 155.36 43.453 155.497 43.4793C155.635 43.5056 155.743 43.6371 155.743 43.7715V43.7744Z" fill="#D8A866"/>
<path d="M142.041 45.4518C142.041 45.5891 141.936 45.7177 141.801 45.7411C141.67 45.7615 141.562 45.6709 141.562 45.5336C141.562 45.3963 141.667 45.2677 141.798 45.2443C141.93 45.2209 142.038 45.3144 142.038 45.4518H142.041Z" fill="#D8A866"/>
<path d="M142.912 45.3086C142.912 45.4489 142.807 45.5804 142.669 45.6008C142.535 45.6213 142.424 45.5278 142.424 45.3875C142.424 45.2472 142.529 45.1157 142.663 45.0924C142.798 45.069 142.909 45.1654 142.909 45.3086H142.912Z" fill="#D8A866"/>
<path d="M143.8 45.1829C143.8 45.3261 143.692 45.4576 143.558 45.4751C143.42 45.4927 143.309 45.3933 143.306 45.2501C143.306 45.107 143.411 44.9755 143.549 44.955C143.686 44.9345 143.797 45.0368 143.8 45.18V45.1829Z" fill="#D8A866"/>
<path d="M144.7 45.0779C144.7 45.224 144.592 45.3555 144.452 45.3701C144.314 45.3847 144.198 45.2795 144.198 45.1334C144.198 44.9873 144.306 44.8558 144.443 44.8412C144.583 44.8266 144.697 44.9318 144.7 45.0779Z" fill="#D8A866"/>
<path d="M145.612 44.9961C145.612 45.1451 145.504 45.2737 145.363 45.2824C145.223 45.2941 145.109 45.1831 145.106 45.037C145.106 44.8909 145.214 44.7594 145.355 44.7477C145.495 44.736 145.612 44.847 145.615 44.9931L145.612 44.9961Z" fill="#D8A866"/>
<path d="M146.532 44.9434C146.532 45.0924 146.421 45.2181 146.281 45.2268C146.141 45.2327 146.024 45.1187 146.021 44.9697C146.021 44.8207 146.129 44.695 146.272 44.6863C146.412 44.6775 146.529 44.7944 146.532 44.9434Z" fill="#D8A866"/>
<path d="M147.459 44.9142C147.459 45.0632 147.348 45.1888 147.204 45.1918C147.061 45.1947 146.944 45.0778 146.941 44.9288C146.941 44.7798 147.052 44.6541 147.196 44.6512C147.339 44.6483 147.456 44.7651 147.459 44.9142Z" fill="#D8A866"/>
<path d="M148.388 44.9112C148.388 45.0602 148.277 45.18 148.134 45.18C147.99 45.18 147.874 45.0573 147.871 44.9082C147.871 44.7592 147.982 44.6394 148.125 44.6394C148.268 44.6394 148.385 44.7621 148.388 44.9112Z" fill="#D8A866"/>
<path d="M149.317 44.9346C149.317 45.0836 149.203 45.2005 149.063 45.1975C148.92 45.1917 148.803 45.069 148.803 44.9199C148.803 44.7709 148.917 44.654 149.057 44.6599C149.2 44.6657 149.317 44.7885 149.317 44.9375V44.9346Z" fill="#D8A866"/>
<path d="M150.246 44.9844C150.246 45.1305 150.132 45.2444 149.992 45.2357C149.849 45.2269 149.735 45.1013 149.732 44.9522C149.732 44.8032 149.843 44.6922 149.986 44.7009C150.129 44.7097 150.243 44.8353 150.246 44.9814V44.9844Z" fill="#D8A866"/>
<path d="M151.17 45.0398C151.17 45.1859 151.056 45.297 150.915 45.2911C150.775 45.2853 150.658 45.1596 150.658 45.0135C150.658 44.8674 150.772 44.7564 150.913 44.7651C151.053 44.7739 151.17 44.8966 151.17 45.0427V45.0398Z" fill="#D8A866"/>
<path d="M152.087 45.1071C152.087 45.2503 151.973 45.3613 151.833 45.3496C151.693 45.3379 151.579 45.2123 151.579 45.0662C151.579 44.9201 151.693 44.8149 151.833 44.8266C151.973 44.8383 152.087 44.9639 152.087 45.1071Z" fill="#D8A866"/>
<path d="M153.005 45.1918C153.005 45.335 152.891 45.4402 152.751 45.4256C152.607 45.4139 152.493 45.2853 152.493 45.1421C152.493 44.9989 152.607 44.8937 152.751 44.9083C152.891 44.9229 153.008 45.0486 153.008 45.1889L153.005 45.1918Z" fill="#D8A866"/>
<path d="M153.919 45.2939C153.919 45.4342 153.808 45.5365 153.668 45.519C153.528 45.5043 153.414 45.3758 153.414 45.2355C153.414 45.0952 153.528 44.993 153.668 45.0105C153.808 45.028 153.919 45.1537 153.919 45.2939Z" fill="#D8A866"/>
<path d="M154.837 45.4081C154.837 45.5454 154.723 45.6448 154.583 45.6272C154.442 45.6097 154.328 45.484 154.328 45.3438C154.328 45.2035 154.442 45.1071 154.583 45.1246C154.723 45.1421 154.837 45.2678 154.837 45.4081Z" fill="#D8A866"/>
<path d="M155.743 45.5336C155.743 45.6709 155.632 45.7644 155.494 45.744C155.357 45.7235 155.243 45.5979 155.243 45.4605C155.243 45.3232 155.357 45.2297 155.494 45.2501C155.632 45.2706 155.743 45.3991 155.743 45.5336Z" fill="#D8A866"/>
<path d="M142.05 47.2402C142.05 47.3775 141.942 47.5032 141.807 47.5149C141.673 47.5295 141.562 47.4301 141.562 47.2957C141.562 47.1613 141.67 47.0357 141.804 47.0181C141.939 47.0006 142.05 47.0999 142.05 47.2402Z" fill="#D8A866"/>
<path d="M142.938 47.1466C142.938 47.2897 142.83 47.4154 142.696 47.43C142.558 47.4446 142.447 47.3423 142.447 47.2021C142.447 47.0618 142.555 46.9362 142.69 46.9186C142.824 46.904 142.938 47.0063 142.941 47.1495L142.938 47.1466Z" fill="#D8A866"/>
<path d="M143.832 47.062C143.832 47.2081 143.724 47.3367 143.587 47.3484C143.449 47.36 143.335 47.2519 143.333 47.1087C143.333 46.9656 143.441 46.837 143.578 46.8253C143.715 46.8107 143.829 46.9188 143.832 47.0649V47.062Z" fill="#D8A866"/>
<path d="M144.738 46.9919C144.741 47.1409 144.63 47.2695 144.49 47.2782C144.349 47.287 144.235 47.176 144.233 47.0269C144.233 46.8808 144.341 46.7523 144.478 46.7406C144.615 46.7289 144.732 46.8428 144.735 46.9919H144.738Z" fill="#D8A866"/>
<path d="M145.65 46.9422C145.653 47.0941 145.542 47.2227 145.401 47.2285C145.261 47.2344 145.144 47.1204 145.144 46.9685C145.141 46.8194 145.252 46.6909 145.393 46.6821C145.533 46.6733 145.65 46.7902 145.653 46.9422H145.65Z" fill="#D8A866"/>
<path d="M146.567 46.907C146.567 47.0589 146.456 47.1875 146.316 47.1904C146.176 47.1933 146.059 47.0735 146.056 46.9216C146.056 46.7696 146.164 46.6411 146.307 46.6352C146.448 46.6294 146.564 46.7521 146.567 46.904V46.907Z" fill="#D8A866"/>
<path d="M147.488 46.8923C147.488 47.0472 147.377 47.1729 147.237 47.1729C147.096 47.1729 146.979 47.0531 146.976 46.8982C146.976 46.7433 147.087 46.6177 147.228 46.6147C147.371 46.6147 147.488 46.7375 147.488 46.8894V46.8923Z" fill="#D8A866"/>
<path d="M148.411 46.8926C148.411 47.0475 148.3 47.1702 148.157 47.1702C148.017 47.1702 147.9 47.0445 147.897 46.8897C147.897 46.7348 148.008 46.6091 148.151 46.6091C148.294 46.6091 148.411 46.7377 148.411 46.8926Z" fill="#D8A866"/>
<path d="M149.338 46.9129C149.338 47.0678 149.224 47.1905 149.083 47.1846C148.94 47.1817 148.826 47.0531 148.823 46.8983C148.823 46.7434 148.934 46.6207 149.077 46.6236C149.221 46.6265 149.335 46.7551 149.338 46.91V46.9129Z" fill="#D8A866"/>
<path d="M150.258 46.9479C150.258 47.1028 150.144 47.2197 150.004 47.2138C149.863 47.208 149.747 47.0794 149.747 46.9246C149.747 46.7697 149.861 46.6499 150.001 46.6557C150.141 46.6616 150.258 46.7931 150.258 46.9479Z" fill="#D8A866"/>
<path d="M151.178 46.986C151.178 47.138 151.065 47.2578 150.924 47.2519C150.784 47.249 150.67 47.1204 150.667 46.9685C150.667 46.8165 150.781 46.6938 150.921 46.6997C151.062 46.7055 151.176 46.8341 151.176 46.986H151.178Z" fill="#D8A866"/>
<path d="M152.093 47.0327C152.093 47.1817 151.979 47.2986 151.839 47.2928C151.699 47.2869 151.585 47.1583 151.585 47.0064C151.585 46.8544 151.696 46.7375 151.839 46.7463C151.979 46.7551 152.093 46.8837 152.093 47.0327Z" fill="#D8A866"/>
<path d="M153.008 47.0852C153.008 47.2313 152.894 47.3453 152.754 47.3394C152.613 47.3306 152.499 47.205 152.499 47.056C152.499 46.9069 152.613 46.793 152.754 46.8017C152.894 46.8105 153.008 46.9362 153.008 47.0852Z" fill="#D8A866"/>
<path d="M153.919 47.1495C153.919 47.2927 153.806 47.4038 153.668 47.395C153.528 47.3862 153.414 47.2606 153.414 47.1145C153.414 46.9684 153.528 46.8573 153.668 46.869C153.808 46.8807 153.919 47.0063 153.919 47.1525V47.1495Z" fill="#D8A866"/>
<path d="M154.834 47.2167C154.834 47.357 154.72 47.4622 154.58 47.4534C154.44 47.4447 154.326 47.3219 154.326 47.1787C154.326 47.0356 154.44 46.9304 154.58 46.942C154.72 46.9537 154.834 47.0765 154.834 47.2197V47.2167Z" fill="#D8A866"/>
<path d="M155.743 47.2956C155.743 47.433 155.632 47.5323 155.492 47.5206C155.351 47.5089 155.24 47.3891 155.24 47.2489C155.24 47.1115 155.354 47.0092 155.492 47.0209C155.632 47.0355 155.743 47.1583 155.743 47.2927V47.2956Z" fill="#D8A866"/>
<path d="M142.061 49.0314C142.061 49.1687 141.95 49.2856 141.813 49.2914C141.676 49.2973 141.562 49.1921 141.562 49.0548C141.562 48.9174 141.673 48.8005 141.81 48.7947C141.947 48.7859 142.059 48.894 142.061 49.0314Z" fill="#D8A866"/>
<path d="M142.961 48.9876C142.961 49.1279 142.853 49.2477 142.713 49.2536C142.576 49.2594 142.462 49.1513 142.462 49.011C142.462 48.8708 142.57 48.751 142.707 48.7422C142.845 48.7334 142.959 48.8445 142.959 48.9847L142.961 48.9876Z" fill="#D8A866"/>
<path d="M143.864 48.9495C143.864 49.0956 143.756 49.2154 143.616 49.2213C143.479 49.2271 143.365 49.1132 143.362 48.97C143.362 48.8268 143.47 48.7041 143.61 48.6982C143.748 48.6924 143.864 48.8063 143.864 48.9495Z" fill="#D8A866"/>
<path d="M144.773 48.9204C144.773 49.0695 144.665 49.1893 144.525 49.1951C144.385 49.198 144.271 49.0841 144.268 48.938C144.268 48.7919 144.376 48.6691 144.516 48.6633C144.656 48.6575 144.77 48.7743 144.773 48.9234V48.9204Z" fill="#D8A866"/>
<path d="M145.685 48.8971C145.685 49.0461 145.577 49.1688 145.436 49.1717C145.296 49.1717 145.182 49.0578 145.179 48.9088C145.179 48.7597 145.287 48.6341 145.428 48.6312C145.568 48.6282 145.682 48.748 145.685 48.8971Z" fill="#D8A866"/>
<path d="M146.6 48.8853C146.6 49.0372 146.491 49.16 146.348 49.16C146.208 49.16 146.094 49.0402 146.091 48.8911C146.091 48.7392 146.199 48.6164 146.339 48.6135C146.48 48.6135 146.597 48.7333 146.597 48.8853H146.6Z" fill="#D8A866"/>
<path d="M147.514 48.8823C147.514 49.0343 147.403 49.157 147.263 49.157C147.123 49.157 147.006 49.0343 147.006 48.8823C147.006 48.7304 147.117 48.6047 147.257 48.6047C147.397 48.6047 147.514 48.7304 147.514 48.8823Z" fill="#D8A866"/>
<path d="M148.432 48.8912C148.432 49.0431 148.321 49.1658 148.18 49.1629C148.04 49.1629 147.923 49.0373 147.923 48.8853C147.923 48.7334 148.034 48.6077 148.175 48.6106C148.315 48.6106 148.432 48.7392 148.432 48.8912Z" fill="#D8A866"/>
<path d="M149.352 48.9058C149.352 49.0578 149.241 49.1776 149.098 49.1746C148.958 49.1746 148.841 49.049 148.841 48.8941C148.841 48.7422 148.952 48.6194 149.095 48.6224C149.235 48.6253 149.352 48.7539 149.352 48.9058Z" fill="#D8A866"/>
<path d="M150.27 48.9322C150.27 49.0841 150.156 49.201 150.015 49.1981C149.875 49.1952 149.761 49.0695 149.758 48.9176C149.758 48.7656 149.869 48.6458 150.013 48.6487C150.153 48.6546 150.267 48.7802 150.27 48.9322Z" fill="#D8A866"/>
<path d="M151.184 48.9525C151.184 49.1015 151.07 49.2213 150.93 49.2184C150.79 49.2184 150.676 49.0956 150.676 48.9437C150.676 48.7917 150.79 48.6719 150.93 48.6749C151.07 48.6749 151.184 48.8034 151.184 48.9525Z" fill="#D8A866"/>
<path d="M152.096 48.973C152.096 49.122 151.982 49.236 151.845 49.233C151.704 49.233 151.59 49.1103 151.59 48.9583C151.59 48.8093 151.704 48.6895 151.845 48.6924C151.985 48.6954 152.099 48.821 152.099 48.97L152.096 48.973Z" fill="#D8A866"/>
<path d="M153.008 48.9906C153.008 49.1367 152.894 49.2506 152.754 49.2506C152.613 49.2506 152.499 49.1279 152.499 48.9818C152.499 48.8357 152.613 48.7159 152.754 48.7188C152.894 48.7217 153.008 48.8445 153.008 48.9906Z" fill="#D8A866"/>
<path d="M153.919 49.0139C153.919 49.1571 153.805 49.2711 153.665 49.2652C153.525 49.2652 153.411 49.1425 153.411 48.9993C153.411 48.8561 153.525 48.7392 153.665 48.7451C153.805 48.748 153.919 48.8707 153.919 49.0139Z" fill="#D8A866"/>
<path d="M154.834 49.0314C154.834 49.1716 154.72 49.2827 154.58 49.2797C154.44 49.2797 154.326 49.1629 154.326 49.0197C154.326 48.8765 154.44 48.7654 154.58 48.7684C154.72 48.7713 154.834 48.8882 154.834 49.0284V49.0314Z" fill="#D8A866"/>
<path d="M155.743 49.0548C155.743 49.1922 155.629 49.2973 155.492 49.2944C155.351 49.2944 155.24 49.1775 155.24 49.0402C155.24 48.9029 155.354 48.7947 155.494 48.7977C155.635 48.8035 155.746 48.9175 155.746 49.0519L155.743 49.0548Z" fill="#D8A866"/>
</g>
<rect x="140.951" y="49.4873" width="15.4873" height="2.92213" fill="#D8A866"/>
<path d="M141.34 50.9482H155.95V56.7925C155.95 60.8271 152.68 64.0978 148.645 64.0978C144.61 64.0978 141.34 60.8271 141.34 56.7925V50.9482Z" fill="#D8A866"/>
<rect x="146.211" y="62.929" width="4.96762" height="12.5651" fill="#D8A866"/>
<rect x="145.626" y="62.637" width="6.13647" height="2.92213" fill="#D8A866"/>
<rect x="145.626" y="65.2668" width="5.84425" height="0.584425" fill="#D8A866"/>
<rect x="145.626" y="65.8511" width="6.13647" height="1.75328" fill="#D8A866"/>
<rect x="145.626" y="68.7732" width="5.84425" height="0.584425" fill="#D8A866"/>
<rect x="145.919" y="67.3123" width="5.55204" height="1.75328" fill="#D8A866"/>
<rect x="145.626" y="69.0654" width="5.84425" height="1.46106" fill="#D8A866"/>
<rect x="145.626" y="68.7732" width="5.84425" height="0.584425" fill="#D8A866"/>
<rect x="145.626" y="72.572" width="6.13647" height="1.75328" fill="#D8A866"/>
<rect x="145.626" y="74.0332" width="6.13647" height="0.584425" fill="#D8A866"/>
<path d="M147.087 70.6697H146.786V72.4756H147.087V70.6697Z" fill="#D8A866"/>
<path d="M147.765 70.6697H147.464V72.4756H147.765V70.6697Z" fill="#D8A866"/>
<path d="M148.446 70.6697H148.145V72.4756H148.446V70.6697Z" fill="#D8A866"/>
<path d="M149.127 70.6697H148.826V72.4756H149.127V70.6697Z" fill="#D8A866"/>
<path d="M149.805 70.6697H149.504V72.4756H149.805V70.6697Z" fill="#D8A866"/>
<path d="M150.486 70.6697H150.185V72.4756H150.486V70.6697Z" fill="#D8A866"/>
<mask id="mask0_13_51" style="mask-type:luminance" maskUnits="userSpaceOnUse" x="146" y="167" width="6" height="25">
<path d="M151.237 167.585H146.12V191.061H151.237V167.585Z" fill="white"/>
</mask>
<g mask="url(#mask0_13_51)">
<rect x="146.211" y="73.1565" width="4.6754" height="136.463" fill="#D8A866"/>
</g>
<path d="M225.074 109.965C225.074 109.965 225.58 109.745 225.074 109.236C224.563 108.73 223.764 109.166 222.523 109.893C221.29 110.619 219.684 112.073 219.684 112.073C219.684 112.073 218.449 113.311 219.324 111.348C220.196 109.382 217.207 111.566 217.937 110.546C218.669 109.526 217.351 109.383 217.061 110.184C216.773 110.98 216.044 111.271 214.808 113.022C213.57 114.769 213.57 117.246 213.059 119.499C212.547 121.758 208.033 124.383 201.991 130.282C195.951 136.177 191.36 142.147 188.302 146.229C185.244 150.298 184.708 149.921 184.708 149.921C184.708 149.921 183.444 150.456 181.648 151.126C179.852 151.807 179.952 152.734 179.952 152.734C179.952 152.734 179.32 152.343 179.03 152.487C178.164 152.923 178.883 153.466 178.493 153.947C178.107 154.433 177.524 152.487 177.524 152.487C177.524 152.487 176.941 152.292 176.26 152.439C175.584 152.582 174.755 153.215 173.352 153.705C171.99 152.973 172.916 149.527 173.203 148.318C173.398 149.479 174.225 149.146 174.225 149.146C174.225 149.146 173.541 148.999 173.691 148.508C174.659 148.79 175.147 147.238 175.147 147.238C175.147 147.238 174.42 148.6 173.836 148.066C173.248 147.534 175.147 145.939 175.483 144.865C175.828 143.798 176.018 142.974 176.066 142.247C176.118 141.515 176.066 140.5 176.066 139.773C176.066 139.049 175.629 137.874 175.629 136.713C175.629 135.547 175.387 134.82 174.807 133.995C174.32 133.303 174.273 133.628 174.27 133.753V133.167C174.27 133.167 173.835 132.44 173.643 132.15C173.448 131.855 174.224 131.564 174.224 131.564C174.224 131.564 173.882 131.079 173.643 131.079C173.396 131.079 173.011 130.789 173.011 130.789L173.35 130.352C173.35 130.352 172.914 130.352 172.571 130.062C172.235 129.774 171.844 129.679 171.844 129.679L171.988 129.281C171.988 129.281 171.213 128.995 170.729 129.042C170.243 129.091 170.002 128.701 170.002 128.701L169.514 128.22L169.653 128.649C169.653 128.649 168.006 128.316 167.137 128.605C166.259 128.903 166.065 128.51 164.996 128.649C163.928 128.795 164.415 129.237 163.491 129.281C162.571 129.332 162.96 130.062 162.96 130.062L162.135 130.398C162.135 130.398 162.767 130.455 162.328 130.593C161.894 130.737 161.359 131.469 161.359 131.469L162.04 131.13C162.04 131.13 161.939 131.469 161.21 131.949C160.483 132.44 160.192 133.406 160.192 133.406L161.21 132.725C161.21 132.725 160.095 134.182 160.095 135.161C160.388 134.277 161.264 133.263 161.264 133.263C161.264 133.263 160.629 134.481 160.336 135.503C160.046 136.512 159.902 139.092 159.611 140.4C159.318 141.71 160.433 142.394 160.433 142.394C160.433 142.394 160.387 143.655 160.387 144.38C160.387 145.112 161.115 145.112 161.115 145.112C161.115 145.112 162.04 144.773 162.276 146.859C162.522 148.947 161.747 148.37 161.115 148.652C162.04 149.146 161.986 148.947 162.766 148.158C162.341 149.98 161.186 149.448 160.597 149.034C160.739 149.148 160.93 149.303 161.209 149.527C162.185 150.297 162.766 148.79 162.766 148.79C162.766 148.79 162.766 148.652 163.151 150.204C163.976 153.562 163.588 153.657 163.588 153.657C163.588 153.657 161.72 153.878 160.775 153.657C159.827 153.436 159.534 152.786 158.008 153.215C155.382 150.519 151.744 148.855 151.744 148.855C151.744 148.855 150.069 146.008 149.339 144.847C148.609 143.681 145.917 140.977 143.512 137.779C141.113 134.58 139.584 134.133 136.303 130.642C133.03 127.148 131.576 123.361 130.774 122.194C129.972 121.035 130.265 118.704 130.193 117.32C130.116 115.938 128.589 115.568 127.786 115.496C126.984 115.422 127.059 115.938 127.059 115.938C127.059 115.938 126.335 115.647 125.965 115.352C125.605 115.061 125.022 115.717 125.022 115.717C125.022 115.717 124.652 115.422 123.927 115.647C123.198 115.86 123.999 116.811 123.999 116.811C123.999 116.811 123.269 116.873 122.91 117.392C122.545 117.898 123.347 119.065 123.927 119.718C123.786 119.939 124.148 121.174 124.148 121.174L126.548 124.165C126.548 124.165 130.846 129.332 132.96 133.484C135.07 137.636 137.032 138.506 137.032 138.506C137.032 138.506 139.944 143.465 143.222 149.358C146.5 155.26 152.692 161.007 153.198 163.486C153.71 165.961 154.948 170.397 155.313 174.991C155.68 179.585 157.348 183.218 157.348 183.218C157.348 183.218 157.348 184.456 157.348 184.891C157.348 185.328 157.787 187.226 157.787 187.226C157.787 187.226 157.867 188.387 158.516 191.157C158.338 191.911 158.17 192.646 158.013 193.367C165.633 190.736 174.854 190.794 183.849 191.294C183.764 191.205 183.713 191.158 183.713 191.158C183.713 191.158 183.207 188.388 182.836 186.937C182.474 185.478 183.494 181.616 183.643 179.586C183.787 177.541 183.417 175.352 183.712 172.947C183.998 170.548 185.387 165.229 186.184 162.755C186.986 160.281 191.725 154.673 195.433 149.146C197.895 145.479 200.322 140.973 202.496 137.831C203.598 136.228 204.792 135.414 205.561 134.36C207.816 131.231 215.239 124.088 216.334 122.269C217.423 120.45 218.446 119.209 219.83 118.045C221.21 116.873 224.702 112.657 225.218 112.367C225.727 112.072 224.85 111.709 224.85 111.709C224.85 111.709 224.995 111.057 225.431 110.688C225.879 110.328 225.074 109.965 225.074 109.965Z" fill="#3B3B3B"/>
<path d="M108.425 211.13C108.425 211.13 108.04 211.184 108.101 209.604C108.159 208.012 108.08 207.297 107.46 206.854C107.465 207.352 105.344 209.042 105.344 209.042L104.183 210.171C104.183 210.171 104.111 208.952 104.547 208.067C104.994 207.181 104.662 205.4 104.568 205.108C104.473 204.809 104.505 203.888 103.447 203.336C102.389 202.786 101.618 201.393 101.084 198.691C100.541 195.998 95.7058 192.186 95.7058 192.186C95.7058 192.186 92.6398 188.853 90.5218 183.222C89.7588 185.115 89.3098 187.988 89.3098 187.988C89.3098 187.988 89.8228 190.366 89.9078 191.897C89.9138 192.004 89.9148 192.103 89.9178 192.205C87.8648 191.48 85.4878 191.546 83.0388 192.879C79.2528 194.939 75.1558 193.82 70.4608 196.436C69.4528 196.998 68.6228 197.659 67.9168 198.384C67.9468 196.642 67.9448 194.78 67.8588 193.338C67.6368 189.623 67.5578 183.57 67.4768 180.549C67.3978 177.533 66.7248 173.649 67.0128 170.51C67.3008 167.365 66.5248 166.226 67.4198 163.457C68.3058 160.7 70.0258 159.298 69.5038 157.66C68.9828 156.026 67.8418 149.411 68.9848 144.428C70.1218 139.439 70.0178 138.075 69.6608 136.22C69.7458 133.974 69.9868 131.183 70.8758 127.428C71.7718 123.67 73.2588 117.252 73.8588 115.329C74.4438 113.404 74.5708 112.783 74.5708 112.783C74.5708 112.783 74.0248 111.069 74.6718 108.797C74.6298 107.415 74.8478 106.602 75.4298 106.408C76.0138 106.213 76.1328 106.583 76.1328 106.583C76.1328 106.583 75.7308 104.827 76.7068 103.843C77.6788 102.861 78.2038 103.262 78.2038 103.262L78.0968 105.435C78.0968 105.435 78.6278 105.583 79.1068 102.543C79.4328 100.47 80.2428 98.7978 80.7928 99.0198C81.3458 99.2488 80.9308 100.954 80.9308 100.954L80.0068 105.123C80.0068 105.123 80.6758 106.468 81.0458 104.863C81.4198 103.256 81.9838 102.001 82.2808 101.16C82.5788 100.32 83.7438 99.6858 83.3658 101.539C82.9928 103.391 81.9238 108.352 82.5168 109.474C82.8868 108.86 85.7328 106.18 86.5678 107.296C86.9468 107.747 85.6338 109.418 85.6338 109.418C85.6338 109.418 84.0828 110.346 83.6438 111.236C83.2028 112.124 82.3978 113.374 81.0648 113.988C79.7338 114.596 79.4418 114.446 79.4418 114.446C79.4418 114.446 78.5478 121.734 77.7968 126.429C77.0448 131.122 76.5878 134.231 76.5878 134.231C76.5878 134.231 78.3368 136.949 78.0558 139.091C77.7748 141.245 78.7358 139.443 79.3918 138.243C80.0538 137.029 81.5168 137.857 81.5168 137.857C81.5168 137.857 82.7328 137.127 83.4368 137.55C84.1288 137.973 84.9518 138.526 84.9518 138.526C84.9518 138.526 85.8388 139.79 86.8508 139.7C87.8618 139.608 88.4908 140.795 88.4908 140.795L88.7708 140.338C88.6988 140.591 88.7128 140.829 88.9428 140.97C89.1518 141.098 89.3888 141.183 89.6208 141.243C89.4858 141.304 89.4128 141.432 89.4958 141.695C89.7808 142.586 91.0858 143.133 90.9798 143.824C90.8768 144.523 91.1558 143.355 89.9938 143.002C89.9138 143.77 91.1468 144.842 90.5158 145.136C90.3308 145.215 90.3688 145.288 90.5098 145.355C90.8558 145.512 91.8678 145.587 91.8678 145.587C91.8678 145.587 90.8458 146.424 89.9538 145.642C90.0408 146.444 91.2018 147.046 90.6188 147.728C90.0298 148.425 90.0418 151.467 90.7738 150.482C91.4948 150.044 91.6958 149.869 91.7438 149.797C91.7518 150.03 91.7148 150.982 90.5698 151.364C89.2608 151.801 89.0718 152.195 89.0718 152.195C89.0718 152.195 90.2928 153.016 89.8788 153.978C89.4638 154.944 87.9828 155.607 87.9828 155.607L88.0098 159.455C88.0098 159.455 89.4338 159.888 90.1448 161.38C91.2328 161.757 95.1258 161.606 95.0518 165.418C94.9828 169.231 94.3578 172.564 94.3578 172.564C94.3578 172.564 94.3528 175.838 96.8688 180.438C98.8038 183.992 102.68 194.872 102.68 194.872C102.68 194.872 104.595 196.367 104.9 198.574C106.193 200.117 108.569 203.27 108.947 204.709C109.326 206.138 109.632 208.09 109.214 208.807C108.791 209.525 108.425 211.13 108.425 211.13Z" fill="#3B3B3B"/>
<path d="M156.114 118.662C156.114 118.286 154.329 118.286 154.329 118.286C154.329 118.286 154.329 117.628 154.363 116.727C154.894 115.912 156.269 114.259 155.895 113.757C155.521 113.26 154.737 114.724 154.207 114.877C154.364 114.411 154.986 113.131 155.703 111.54C156.429 109.95 155.177 110.51 155.177 110.51L154.05 111.975C154.05 111.975 153.929 110.725 154.303 109.977C154.677 109.224 154.986 107.692 154.457 107.567C154.11 107.486 153.982 108.095 153.691 108.969C153.534 109.448 153.171 109.91 153.05 110.599C152.7 112.561 152.329 113.511 152.051 113.475C151.769 113.444 151.361 112.561 151.52 111.316C151.675 110.075 151.236 109.323 150.736 108.848C150.237 108.377 149.612 108.606 149.957 109.417C150.396 110.04 150.49 111.54 150.271 112.351C150.054 113.166 149.986 114.098 149.83 115.294C149.68 116.477 149.613 118.313 149.613 118.313C149.613 118.313 148.365 120.441 147.68 122.004C146.988 123.567 145.304 126.811 143.864 128.692C142.428 130.569 138.93 137.969 137.868 140.285C136.804 142.587 135.337 144.343 134.432 145.965C133.523 147.586 132.618 149.553 131.118 151.676C130.84 150.216 131.057 147.215 131.026 147.34C130.997 147.466 129.933 146.905 129.933 146.905C129.933 146.905 131.868 146.959 132.995 146.341C130.901 146.466 129.591 145.906 129.591 145.906C129.591 145.906 131.372 146.314 132.373 145.592C130.868 146.188 129.62 145.18 129.247 145.157C129.563 145.211 131.155 145.404 131.843 144.557C131.218 144.933 129.809 144.777 129.187 144.494C128.562 144.216 128.029 141.622 125.153 139.742C122.277 137.879 121.095 138.81 119.187 139.558C117.908 138.281 115.973 137.842 113.599 139.531C111.22 141.211 113.033 142.877 112.316 143.934C111.597 145 111.29 146.465 111.655 147.75C112.04 149.022 111.29 149.837 111.032 150.276C110.849 150.598 109.562 150.7 108.887 150.732C109.388 150.752 110.261 150.92 111.032 151.772C112.188 153.048 112.282 154.182 110.004 153.523C107.722 152.864 106.851 149.68 106.851 149.68C106.851 149.68 106.289 147.839 104.007 146.401C106.634 148.152 106.101 149.707 106.101 149.707L104.17 150.034C104.17 150.034 103.122 147.727 101.919 146.415C100.712 145.102 98.9468 142.155 98.5678 141.165C98.1958 140.18 96.4808 137.819 95.6788 136.936C94.8768 136.049 92.1938 132.416 90.4298 130.029C88.6628 127.641 88.8508 127.216 88.6918 126.974C88.5278 126.732 87.8848 126.092 87.2698 125.344C86.6518 124.592 86.3048 124.054 85.9838 122.956C85.6658 121.859 85.1548 120.654 84.9158 119.503C84.6738 118.347 83.9528 117.097 83.9238 116.824C83.8968 116.551 83.9238 115.511 83.9238 115.511C83.9238 115.511 83.9238 115.43 83.5768 115.354C83.2278 115.269 83.0688 116.044 83.2858 117.648C83.4958 119.26 83.7088 119.829 83.7088 119.829C83.7088 119.829 83.7088 119.829 82.6918 118.857C81.6728 117.894 81.9148 119.373 81.9148 119.373C81.9148 119.373 82.8018 120.949 82.8528 121.697C82.9088 122.445 81.8898 121.89 81.3498 121.482C80.8168 121.079 79.9298 121.379 81.3008 122.369C82.6648 123.364 82.9848 124.054 82.8528 124.613C82.7188 125.182 81.8898 125.124 80.5778 124.945C79.2628 124.748 80.1208 125.688 80.1208 125.688L80.9518 125.854C80.9518 125.854 82.1828 125.769 82.5038 125.93C82.8288 126.091 82.7188 127.511 82.7188 127.511C82.7188 127.511 81.5118 128.42 80.9248 128.711C80.3358 129.007 80.7588 129.576 80.7588 129.576C80.7588 129.576 80.7928 129.576 81.4908 129.195C82.1828 128.819 83.5198 128.286 83.5198 128.286C83.5198 128.286 83.7078 128.398 84.3818 128.895C85.0518 129.406 86.2808 129.683 86.2808 129.683C86.2808 129.683 87.6178 132.518 89.0048 135.184C90.3908 137.863 94.2428 143.632 94.2428 143.632C94.2428 143.632 94.8838 144.966 95.8448 145.871C96.8038 149.934 102.734 160.415 104.819 164.469C106.899 168.532 107.332 171.573 107.652 174.292C107.972 177.02 110.004 184.08 110.805 189.101C111.047 190.612 111.16 192.044 111.203 193.31C118.673 193.559 126.103 194.128 133.453 195.394C133.333 191.632 134.336 184.906 134.185 179.17C133.992 172.115 134.682 171.049 135.557 167.986C136.433 164.922 135.367 163.735 135.367 163.735L136.565 160.089L136.863 157.953C136.863 157.953 137.53 158.786 138.704 159.646C139.887 160.497 139.564 160.605 139.969 162.455C140.365 164.296 141.651 164.484 143.483 164.717C142.094 164.489 141.382 164.336 140.594 163.583C139.806 162.84 140.184 160.515 139.205 159.839C138.231 159.167 136.845 157.406 136.845 157.406C136.845 157.406 137.479 155.234 137.555 155.001C138.117 155.789 138.455 156.501 138.793 158.638C138.829 157.137 138.381 156.017 138.005 155.306C137.633 154.589 138.005 153.698 138.005 153.698C138.005 153.698 139.232 153.985 140.968 155.414C143.905 157.84 142.161 162.153 144.257 165.171C142.92 163.134 143.336 160.253 142.65 157.748C141.866 154.854 138.157 153.242 138.157 153.242C138.157 153.242 137.593 152.794 139.92 153.802C141.873 154.653 143.519 153.354 144.155 153.47C146.592 156.095 148.274 156.467 149.176 156.247C147.863 156.247 146.515 155.414 145.393 153.913C144.264 152.413 143.664 152.986 141.42 153.277C139.169 153.577 138.678 151.893 138.678 151.893C138.678 151.893 139.505 150.276 139.471 149.04C140.183 147.468 141.756 143.799 141.979 142.894C142.203 141.994 146.555 134.155 148.145 130.441C149.74 126.723 151.578 122.5 151.578 122.5C151.578 122.5 152.553 122.316 153.233 121.313C153.927 120.314 154.268 119.66 154.268 119.66C154.268 119.66 154.893 119.472 155.609 119.378C156.326 119.28 156.114 119.039 156.114 118.662Z" fill="#3B3B3B"/>
<path fill-rule="evenodd" clip-rule="evenodd" d="M-8.8972 151.156C-8.8972 151.156 -8.7412 156.278 -7.1652 156.896C-7.1652 156.896 -5.6762 159.643 -4.9592 160.089C-4.9592 160.089 -1.9812 163.456 -1.9002 164.337C-1.9002 164.337 0.442801 170.523 2.6438 173.002C2.6438 173.002 7.9948 181.402 8.3778 183.696C8.3778 183.696 9.3818 188.296 10.6378 193.721C21.4958 195.773 32.3338 198.067 43.2648 199.42C43.7268 196.584 44.1418 193.092 43.9468 190.508C43.9468 190.508 45.1178 182.287 44.9718 181.495C44.9718 181.495 45.5868 177.148 46.7688 174.775C47.9598 172.387 49.7568 168.403 49.7568 167.688C49.7568 167.688 51.5598 162.915 52.3458 162.204C52.3458 162.204 53.6828 160.356 53.6828 158.85L58.7058 152.668C58.7058 152.668 60.5838 151.677 61.3708 147.883C61.3708 147.883 64.0358 140.185 63.8898 136.212C63.8898 136.212 63.7998 130.367 64.4398 129.226C64.4398 129.226 65.9288 126.217 66.0098 125.238C66.0098 125.238 66.9378 118.439 64.7468 118.519C64.7468 118.519 63.0918 116.845 62.7838 117.54C62.7838 117.54 61.6938 116.574 61.1428 117.101C61.1428 117.101 60.1178 116.574 59.4928 117.192C59.4928 117.192 58.3058 115.072 58.2358 116.846C58.2358 116.846 57.6748 117.987 57.3668 118.439C57.3668 118.439 55.4788 122.233 58.0738 124.272C58.0738 124.272 59.9558 125.332 59.4928 128.878L58.2358 134.344C58.2358 134.344 57.4478 137.259 56.9838 137.792C56.9838 137.792 53.2888 144.166 53.2888 147.61L51.0178 149.292C51.0178 149.292 48.4938 149.825 47.6358 151.957C47.6358 151.957 44.8088 154.789 42.9108 155.218C42.9108 155.218 39.6248 156.815 39.5638 157.876C39.5638 157.876 36.3278 159.47 36.3278 160.357L33.3398 159.991V159.643C33.3398 159.643 34.2938 156.738 34.2078 155.93C34.2078 155.93 34.8388 154.699 34.8388 153.81C34.8388 153.81 36.5598 149.825 36.0948 147.884C36.0948 147.884 36.0948 144.878 35.5448 144.878C35.5448 144.878 34.6768 142.838 34.1318 143.106C34.1318 143.106 33.3438 142.398 32.6328 142.492C32.6328 142.492 31.7038 141.238 31.2948 141.603C31.2948 141.603 30.1288 140.185 29.3468 140.453C29.3468 140.453 27.2268 140.105 26.8318 140.637C26.8318 140.637 24.2378 140.185 24.3988 140.81C24.3988 140.81 22.1928 140.984 22.1928 142.138C22.1928 142.138 20.6228 144.084 20.7038 144.702C20.7038 144.702 20.0828 146.823 20.3208 147.357C20.3208 147.357 19.9218 149.036 20.1538 149.916C20.1538 149.916 19.6038 150.27 19.6848 152.036C19.6848 152.036 19.6848 155.928 20.1538 155.928C20.1538 155.928 20.2348 159.989 20.7038 160.449C20.7038 160.449 18.5028 162.029 18.5028 162.741C18.5028 162.741 16.9378 162.301 16.5388 162.915C16.5388 162.915 14.9688 160.621 13.7928 162.204C13.7928 162.204 8.0588 158.93 7.8208 159.642C7.8208 159.642 5.0848 157.257 4.4488 156.371C4.4488 156.371 2.4198 154.698 1.8598 154.788L0.128802 154.17L-1.4362 152.668C-1.4362 152.668 -1.9002 152.749 -1.8202 150.977C-1.8202 150.977 -2.1372 142.398 -3.0112 140.81C-3.0112 140.81 -3.7942 138.69 -3.7942 137.443C-3.7942 137.443 -4.2582 132.844 -4.0162 131.971C-4.0162 131.971 -4.2582 129.316 -3.4762 128.431C-3.4762 128.431 -1.5882 127.186 -0.730199 124.271C-0.730199 124.271 1.0668 122.678 0.284801 121.351C0.284801 121.351 -0.422199 120.12 -0.882199 120.478C-0.882199 120.478 -1.9022 118.252 -2.5372 119.06C-2.5372 119.06 -4.4142 118.346 -4.4142 119.406C-4.4142 119.406 -6.6262 118.787 -7.0042 119.766C-7.0042 119.766 -7.8732 121.433 -7.7962 125.604C-7.7962 125.604 -7.7962 126.796 -8.0442 127.533L-8.1152 127.72C-8.4182 128.432 -8.9782 133.919 -8.9782 134.439C-8.9782 134.439 -10.7852 144.879 -9.5932 146.471C-9.5942 146.469 -8.8162 150.352 -8.8972 151.156Z" fill="#3B3B3B"/>
<path d="M249.371 122.503C249.371 122.503 250.472 113.556 249.029 111.659C249.029 111.659 247.584 110.934 247.528 112.386C247.528 112.386 246.842 110.83 246.035 111.549C246.035 111.549 244.854 109.758 244.161 110.995C244.161 110.995 244.109 112.602 243.826 112.699C243.532 112.808 243.322 110.608 243.322 110.608L243.475 107.623C243.475 107.623 243.708 105.584 243.174 105.745C243.174 105.745 242.227 105.244 242.016 106.414L241.817 109.47C241.817 109.47 241.822 110.976 241.876 111.123C241.929 111.263 241.773 112.484 241.894 112.622C242.019 112.764 240.96 113.879 240.483 114.252C240.007 114.623 239.657 115.073 239.675 115.604C239.693 116.14 239.74 117.688 239.74 117.688C239.74 117.688 239.776 118.653 239.919 118.984C240.077 119.314 241.316 120.783 241.705 120.869C242.103 120.954 243.103 122.275 243.103 122.275C243.103 122.275 243.923 122.937 243.89 123.469C243.858 124.008 243.99 124.969 243.99 124.969C243.99 124.969 244.403 125.447 244.468 125.923C244.528 126.404 244.896 128.626 244.896 128.626C244.896 128.626 245.185 131.627 245.147 132.061C245.104 132.496 245.397 135.4 245.477 136.51C245.556 137.623 245.37 140.934 245.647 142.085C245.925 143.241 246.517 149.719 246.463 151.173C246.407 152.629 244.379 153.423 244.107 154.157C243.838 154.888 244.123 156.048 244.368 156.384C244.626 156.708 244.939 157.378 244.664 157.873C244.384 158.366 244.093 158.571 243.825 159.063C243.542 159.556 243.506 159.947 243.535 160.721C243.559 161.505 243.511 161.687 243.282 162.043C243.042 162.388 242.849 162.344 242.875 163.118C242.896 163.888 241.8 164.945 241.833 165.675C241.849 166.398 241.362 166.755 241.475 167.18C241.598 167.624 240.974 168.067 240.931 168.509C240.901 168.952 240.336 169.64 240.362 170.276C240.375 170.91 240.62 170.949 240.382 171.198C240.153 171.452 237.286 171.971 236.504 170.256C235.719 168.529 236.146 168.037 236.146 168.037C236.146 168.037 238.066 167.245 238.463 165.731C238.861 164.217 238.735 163.589 238.735 163.589C238.735 163.589 238.671 162.862 238.2 163.507C238.2 163.507 241.005 148.388 231.144 149.669C231.144 149.669 225.164 147.185 222.416 154.743C222.416 154.743 220.657 158.097 220.665 159.688C220.666 161.294 220.75 162.55 220.75 162.55C220.75 162.55 220.093 161.703 219.962 162.329C219.837 162.968 220.029 164.365 220.029 164.365C220.029 164.365 220.52 166.195 221.111 166.419C221.707 166.644 221.654 168.198 221.654 168.198C221.654 168.198 221.418 168.498 221.143 169.033C220.865 169.574 218.062 170.595 217.528 170.608C216.987 170.634 215.163 170.145 215.163 170.145C215.163 170.145 212.268 169.88 212.229 168.802C212.229 168.802 211.572 165.823 212.111 165.064C212.656 164.306 213.299 162.981 212.047 163.017C210.786 163.059 211.543 161.495 210.487 160.734C210.487 160.734 212.206 158.579 210.729 157.434C209.264 156.285 210.375 157.156 210.375 157.156C210.375 157.156 210.037 156.773 209.961 156.37C209.886 155.979 211.371 153.999 210.505 153.743C209.633 153.484 208.97 152.368 209.278 151.162C209.585 149.963 208.56 150.028 208.164 150.211C207.766 150.389 207.615 149.183 207.615 149.183L207.196 149.196C207.196 149.196 207.509 143.616 207.423 140.833C207.335 138.046 205.896 133.923 206.021 130.676C206.158 127.431 206.407 122.5 206.116 122.447C205.834 122.398 207.23 121.4 206.689 120.558C206.154 119.728 206.151 119.699 206.151 119.699C206.151 119.699 209.441 115.211 209.472 114.245C209.504 113.273 208.691 112.835 208.828 112.037C208.977 111.235 209.122 108.442 209.405 108.26C209.692 108.077 207.878 106.996 207.637 110.308C207.397 113.61 207.585 112.696 207.366 112.697C207.132 112.715 206.534 111.535 205.939 111.093C205.353 110.66 205.422 109.008 205.318 108.61C205.221 108.217 205.246 105.093 205.207 104.633C205.16 104.186 205.068 101.223 204.385 101.359C203.713 101.494 203.481 101.841 203.492 102.017C203.498 102.186 203.79 104.395 203.811 104.732C203.815 105.071 203.442 105.939 203.621 106.107C203.792 106.266 203.894 107.744 203.894 107.744L203.645 108.44C203.645 108.44 203.298 108.727 202.955 108.742C202.611 108.756 202.461 107.565 202.461 107.565L201.708 105.543L201.134 103.563L200.169 101.776C200.169 101.776 199.853 100.984 199.345 101.234C198.843 101.473 198.275 101.602 198.531 102.569L199.504 104.413C199.504 104.413 199.827 105.655 199.889 105.878C199.956 106.11 200.339 107.002 200.339 107.002L200.953 108.18L201.042 109.027C201.042 109.027 201.272 109.476 200.932 109.49C200.587 109.5 198.311 104.619 198.047 103.433C198.047 103.433 196.548 103.251 196.81 104.27C197.075 105.285 197.423 105.786 197.423 105.786L197.817 107.083C197.817 107.083 198.597 108.368 198.591 108.538C198.604 108.712 198.968 109.386 199.033 109.546C199.094 109.716 199.289 110.284 199.289 110.284C199.289 110.284 199.136 111.024 198.477 110.135C197.821 109.246 196.898 108.021 196.898 108.021C196.898 108.021 196.037 106.916 195.806 107.034C195.578 107.153 195.257 107.734 195.257 107.734L195.685 108.858C195.685 108.858 195.941 109.482 196.353 109.809C196.753 110.137 196.711 110.361 197.011 110.808C197.306 111.255 197.367 111.361 197.656 111.641C197.961 111.91 198.252 112.36 198.319 112.592C198.388 112.809 198.335 113.267 198.629 113.432C198.922 113.588 199.166 114.04 199.243 114.718C199.319 115.401 199.746 116.352 199.759 116.7C199.771 117.043 200.314 117.932 200.32 118.216C200.335 118.496 200.575 118.954 200.575 119.176C200.589 119.404 200.377 120.039 200.377 120.039C200.377 120.039 200.515 120.939 200.579 121.112C200.639 121.275 200.94 121.717 200.94 121.717L201.192 122.168C201.192 122.168 200.195 131.079 200.471 132.603C200.471 132.603 200.187 134.5 200.28 135.68C200.372 136.878 200.779 139.084 200.637 139.768C200.483 140.453 200.534 142.219 200.676 143.065C200.814 143.923 201.365 146.69 201.365 146.969C201.374 147.26 201.731 147.705 201.699 148.445C201.665 149.178 201.738 149.803 201.859 149.975C201.977 150.137 201.708 150.55 201.708 150.55C201.708 150.55 200.002 151.224 200.164 152.584C200.321 153.944 200.922 154.784 200.645 155.241C200.375 155.709 200.081 157.542 200.385 158.101C200.697 158.663 200.479 159.238 200.211 159.756C199.943 160.279 200.136 161.012 200.568 162.011C201.003 163.034 201.471 163.532 201.491 164.156C201.506 164.78 201.929 165.391 201.902 166.304C201.869 167.206 201.854 168.637 201.869 169.15C201.882 169.383 202.007 170.388 202.14 171.401C202.192 171.831 202.263 174.775 202.321 178.299C202.348 180.335 205.686 183.493 205.712 185.546C205.753 189.419 202.467 191.722 202.45 191.762C202.333 191.934 251.644 192.499 251.644 192.499C251.644 192.499 249.637 190.035 249.631 184.899C249.63 183.15 251.629 178.398 251.623 176.97C251.62 174.9 251.625 173.413 251.633 173.219C251.674 172.077 251.684 170.548 251.429 170.04C250.984 169.2 255.054 167.142 254.478 165.395C253.913 163.653 253.55 163.088 253.428 162.812C253.299 162.527 254.385 162.152 254.747 160.95C255.106 159.741 255.009 156.56 254.618 156.683C254.224 156.817 255.436 154.441 254.849 154.462C254.256 154.472 253.114 152.577 253.114 152.577C253.114 152.577 253.655 145.734 252.886 145.077C252.886 145.077 251.951 142.656 252.661 141.496C252.661 141.496 251.353 132.324 250.748 131.255C250.141 130.195 249.295 124.987 249.279 124.537C249.268 124.07 249.371 122.503 249.371 122.503Z" fill="#3B3B3B"/>
<path d="M263.606 111.082C263.606 111.082 264.352 110.105 264.229 109.351C264.095 108.609 264.151 108.057 264.151 108.057C264.151 108.057 263.394 105.998 264.219 106.301C265.044 106.603 264.97 107.316 264.97 107.316L265.223 108.808L265.311 110.013C265.311 110.013 266.222 110.155 266.41 109.2C266.607 108.253 266.845 107.943 266.845 107.943L266.511 106C266.511 106 265.904 104.507 266.506 104.372C267.107 104.237 267.518 105.925 267.518 105.925L267.959 107.784C267.959 107.784 268.101 108.498 267.902 108.704C267.7 108.923 268.87 108.316 268.601 107.12C268.601 107.12 268.714 105.56 268.656 105.25C268.608 104.937 268.615 103.979 269.107 103.921C269.607 103.864 269.896 104.382 269.85 105.13C269.807 105.879 269.947 107.432 269.947 107.432L270.062 108.242C270.062 108.242 270.567 107.379 270.516 107.096C270.473 106.81 270.769 105.27 270.965 105.234C270.965 105.234 271.292 104.372 271.953 104.919C271.953 104.919 272.148 105.539 272.003 106.249C271.857 106.954 271.828 107.436 271.828 107.436L271.911 108.459L271.57 109.557L270.954 110.134C270.954 110.134 270.93 111.003 271.022 111.048C271.119 111.091 270.452 112.338 270.326 112.322C270.207 112.319 270.019 113.3 270.058 113.533C270.105 113.763 268.089 115.533 267.644 115.703C267.196 115.865 266.676 116.998 266.748 117.426C266.826 117.858 267.068 120.976 267.068 120.976L267.783 125.6C267.783 125.6 268.657 129.841 268.681 129.935C268.69 130.016 269.965 136.685 269.965 137.518C269.952 138.355 271.025 141.59 270.598 142.104C270.19 142.62 270.608 145.191 270.608 145.191C270.608 145.191 271.693 147.202 271.392 147.999C271.079 148.794 271.934 150.286 271.934 150.286C271.934 150.286 272.156 152.078 272.092 152.597C272.039 153.109 272.324 153.778 272.575 153.857C272.832 153.926 272.873 152.994 272.873 152.994L272.692 151.933C272.692 151.933 273.078 151.091 273.176 151.108C273.268 151.12 273.538 150.743 273.538 150.743C273.538 150.743 274.332 146.006 275.448 144.74C276.565 143.478 279.88 142.162 279.88 142.162C279.88 142.162 283.214 141.672 283.924 142.71C283.924 142.71 286.743 143.885 286.922 145.814C287.116 147.746 287.059 147.927 287.059 147.927L287.319 149.608C287.319 149.608 287.984 151.214 287.513 151.923L287.153 152.939C287.153 152.939 286.995 157.181 285.614 156.738C285.614 156.738 284.269 160.118 283.965 160.407L284.083 160.951C284.083 160.951 286.543 162.636 286.698 163.174C286.847 163.71 291.386 166.903 291.962 168.885C292.538 170.863 293.032 175.083 293.032 175.083C293.032 175.083 293.582 177.411 293.607 177.832C293.64 178.251 293.669 178.925 293.611 179.276C293.542 179.628 293.535 180.094 293.663 180.833C293.79 181.582 293.914 182.531 293.798 182.85C293.686 183.169 293.983 184.644 293.925 185.029C293.862 185.424 293.243 189.91 293.115 189.929C292.989 189.949 292.299 191.344 292.149 191.702C291.999 192.068 281.394 193.563 281.394 193.563L273.807 193.819L270.793 193.829L266.325 194.224L263.806 192.662C263.806 192.662 260.709 183.096 261.251 179.858C261.793 176.629 260.362 177.176 262.397 172.959C262.397 172.959 262.798 169.199 263.443 168.027C264.094 166.851 264.115 162.565 264.554 162.616C264.984 162.663 263.814 157.649 263.624 156.79C263.436 155.935 261.955 153.559 261.672 151.909C261.391 150.262 260.905 148.432 261.228 148.079C261.542 147.725 260.849 144.921 260.783 144.508C260.705 144.101 259.738 141.421 260.839 140.893C261.932 140.363 261.24 137.381 261.103 136.814C260.959 136.24 260.126 133.632 261.158 132.474C261.158 132.474 260.445 129.337 262.053 129.056C262.053 129.056 261.552 124.979 261.815 124.51C262.071 124.045 261.732 121.559 262.088 120.69C262.443 119.822 262.217 117.275 261.983 116.627C261.74 115.995 261.862 114.229 262.175 114.094C262.492 113.967 262.688 111.941 263.606 111.082Z" fill="#3B3B3B"/>
</g>
<defs>
<clipPath id="clip0_13_51">
<rect width="298" height="190" rx="16" fill="white"/>
</clipPath>
</defs>
</svg>
