<svg width="298" height="190" viewBox="0 0 298 190" fill="none" xmlns="http://www.w3.org/2000/svg">
<rect width="298" height="190" rx="16" fill="#3B3B3B"/>
<ellipse cx="148.5" cy="95" rx="94.5" ry="95" fill="#EDDAC4"/>
<path d="M166.394 51.6385C166.409 51.646 166.404 51.6435 166.394 51.6385V51.6385ZM185.002 58.8302C184.997 58.8293 184.994 58.8286 185.002 58.8302V58.8302ZM199.526 45.4094C200.04 44.6951 200.557 43.9832 201.078 43.2744C201.121 43.2159 201.165 43.1573 201.208 43.0988C201.18 43.0916 201.151 43.0846 201.123 43.0774C199.997 42.7843 198.883 42.4468 197.784 42.065C196.682 41.6823 195.593 41.2603 194.513 40.8205C193.444 40.3855 192.383 39.9337 191.321 39.4829C190.255 39.0301 189.19 38.5722 188.142 38.0782C187.189 37.6289 186.25 37.1512 185.338 36.6238C185.076 36.9476 184.816 37.2734 184.558 37.6005C184.277 37.9576 183.998 38.3173 183.721 38.678L182.106 40.8287C181.424 41.7569 180.754 42.6936 180.096 43.638C178.697 45.6423 177.347 47.6795 176.044 49.7474C176.043 49.7493 176.041 49.7507 176.04 49.7525C175.99 49.9026 175.862 50.032 175.76 50.1428C175.614 50.3019 175.453 50.4472 175.282 50.5795C174.933 50.8485 174.543 51.0615 174.138 51.2392C173.336 51.5909 172.471 51.7968 171.599 51.9264C170.728 52.0555 169.845 52.1016 168.961 52.1229C168.069 52.1441 167.129 52.2139 166.283 51.8257C166.082 51.7331 165.891 51.6138 165.717 51.4762C165.578 51.3665 165.452 51.2349 165.38 51.0728C165.239 50.7514 165.421 50.3762 165.592 50.1137C165.69 49.9647 165.802 49.8407 165.948 49.7366C166.11 49.6209 166.276 49.5104 166.446 49.4054C166.776 49.2015 167.12 49.0205 167.475 48.8606C168.154 48.5552 168.874 48.34 169.612 48.198C170.38 48.0502 171.163 47.9762 171.949 47.9419C172.161 47.9328 172.366 47.9539 172.578 47.972C172.748 47.9863 172.918 48.0007 173.088 48.015C173.094 48.0154 173.1 48.0159 173.106 48.0164C173.122 48.0178 173.14 48.0204 173.159 48.024C173.379 48.0549 173.6 48.0907 173.818 48.1397C174.288 48.2451 174.751 48.4076 175.165 48.6623C175.366 48.786 175.555 48.9311 175.724 49.0956C175.735 49.1064 175.746 49.1172 175.757 49.1284C176.389 48.1325 177.032 47.1432 177.686 46.1619C179.08 44.0712 180.522 42.0123 182.022 39.9958C183.486 38.0256 185.005 36.0935 186.609 34.2349C186.694 34.1363 186.969 34.2536 187.045 34.3002C188.107 34.9551 189.218 35.5242 190.354 36.0374C192.482 36.9972 194.69 37.7647 196.912 38.4714C199.094 39.165 201.295 39.7935 203.482 40.4711C203.556 40.4941 203.792 40.5937 203.705 40.7067C203.624 40.8126 203.543 40.9185 203.462 41.0247C202.74 41.9714 202.029 42.9274 201.326 43.888C200.528 44.9772 199.74 46.0736 198.96 47.1755C198.156 48.3103 197.361 49.4512 196.576 50.5987C195.824 51.6968 195.082 52.8011 194.354 53.9145C193.714 54.8932 193.084 55.8791 192.478 56.8787C192.459 56.9096 192.425 56.9269 192.383 56.9338C192.213 57.6688 191.567 58.2301 190.923 58.5601C190.12 58.9715 189.221 59.1188 188.349 59.2232C187.902 59.2769 187.449 59.3329 187.001 59.3212C186.529 59.3088 186.054 59.2667 185.589 59.1984C184.825 59.0864 184.076 58.8676 183.405 58.4921C182.819 58.1649 182.185 57.7062 182.111 56.9637C182.026 56.1151 182.808 55.5255 183.479 55.1837C184.198 54.8169 184.975 54.5727 185.758 54.4347C186.585 54.2893 187.421 54.2588 188.247 54.3304C188.254 54.3307 188.261 54.3311 188.268 54.332C188.355 54.3426 188.442 54.3533 188.53 54.3638C188.92 54.4114 189.3 54.4965 189.679 54.5894C190.085 54.6886 190.485 54.806 190.871 54.9629C191.078 55.0468 191.287 55.1335 191.477 55.2503C191.673 55.3704 191.852 55.5114 192.011 55.6784C192.12 55.794 192.225 55.9249 192.299 56.0705C192.871 55.1483 193.458 54.236 194.054 53.3296C194.796 52.2022 195.552 51.0837 196.317 49.9714C196.74 49.3563 197.165 48.7434 197.593 48.1325L199.526 45.4094Z" fill="#D8A866"/>
<path d="M81.8188 66.106C79.6941 67.634 77.5695 69.1623 75.4448 70.6904C74.3885 71.4502 73.3319 72.21 72.2756 72.9699C71.8358 73.2861 71.2881 73.6628 71.4435 74.2862C71.497 74.5007 71.6107 74.7024 71.7059 74.901C71.7895 75.0757 71.8743 75.2497 71.9602 75.4234C72.1138 75.734 72.2713 76.0429 72.4303 76.3508C72.4296 76.3684 72.431 76.3863 72.4371 76.4038C72.4474 76.435 72.4663 76.4541 72.4896 76.4655C73.1564 77.7504 73.8648 79.0142 74.5901 80.2666C75.61 82.0282 76.6698 83.7669 77.7622 85.4844C78.6167 86.8279 79.4899 88.1606 80.3991 89.4679C79.7708 89.4379 79.0917 89.7719 78.5838 90.0954C78.1516 90.3708 77.7487 90.6884 77.3595 91.0209C77.0052 91.3236 76.6619 91.6337 76.3441 91.9748C76.2719 92.0525 76.1993 92.13 76.1271 92.2076C74.8459 93.6725 73.8767 95.4745 73.5344 97.4018C73.3852 98.2417 73.3577 99.3596 74.1869 99.8639C74.9036 100.3 75.7708 99.9996 76.4628 99.6699C77.3068 99.268 78.0456 98.6856 78.6948 98.0186C79.089 97.6135 79.4712 97.1839 79.8132 96.7334C80.1378 96.3061 80.4061 95.8375 80.6721 95.3725C81.1929 94.4621 81.688 93.4985 81.8747 92.4563C82.0254 91.6154 81.9742 90.5631 81.3516 89.9094C80.3923 88.5667 79.4782 87.1916 78.5854 85.8043C77.5048 84.1258 76.4574 82.4258 75.445 80.7053C74.5854 79.2441 73.749 77.7678 72.9654 76.264C74.6707 75.1689 76.3406 74.0201 78.0106 72.872C78.8856 72.2704 79.7614 71.6693 80.6429 71.0772C81.0854 70.7799 81.5293 70.4849 81.9757 70.1932C82.1935 70.0508 82.4118 69.9091 82.6305 69.7685C82.8472 69.6292 83.1076 69.5025 83.2688 69.2957C83.4448 69.0699 83.4049 68.8339 83.2886 68.5947C83.158 68.3252 83.0263 68.0563 82.8952 67.7871C82.6265 67.2356 82.3579 66.6841 82.0891 66.1325C82.0378 66.0272 81.9027 66.0456 81.8188 66.106Z" fill="#D8A866"/>
<path d="M127.634 167.071C127.468 166.471 127.151 165.936 126.813 165.418C126.202 164.484 125.482 163.589 124.699 162.794C124.607 162.701 124.516 162.608 124.424 162.515C123.49 161.619 122.456 160.825 121.33 160.185C120.314 159.607 119.199 159.121 118.046 158.899C117.632 158.82 117.164 158.79 116.745 158.875C117.331 156.164 117.95 153.46 118.586 150.76C119.316 147.663 120.065 144.57 120.803 141.475C121.213 139.753 121.62 138.03 122.017 136.304C122.053 136.147 121.245 136.045 121.194 136.268C120.485 139.344 119.748 142.412 119.012 145.481C118.268 148.583 117.526 151.686 116.818 154.797C116.463 156.351 116.119 157.908 115.786 159.467C115.711 159.578 115.648 159.704 115.604 159.851C115.445 160.373 115.535 160.936 115.715 161.439C115.883 161.91 116.096 162.36 116.343 162.794C116.895 163.762 117.575 164.616 118.361 165.406C118.821 165.868 119.295 166.331 119.806 166.736C120.329 167.15 120.891 167.519 121.45 167.881C122.503 168.564 123.646 169.233 124.9 169.452C125.809 169.61 126.999 169.52 127.546 168.657C127.85 168.177 127.778 167.594 127.634 167.071Z" fill="#D8A866"/>
<path d="M205.952 105.808C202.123 105.225 194.106 106.581 188.522 102.524C182.938 98.4664 184.501 90.9255 173.969 83.8291C163.757 76.9488 152.967 91.9156 152.967 91.9156L150.525 94.5704L148.965 96.2665L146.523 98.9213C146.523 98.9213 132.227 110.075 139.624 119.919C146.611 129.218 155.554 128.241 160.063 133.467C164.572 138.693 163.313 147.589 164.69 151.209C166.067 154.83 172.26 163.482 181.655 165.848C190.693 168.123 200.416 167.955 213.296 153.892C226.392 139.653 225.614 130.153 222.593 121.337C219.452 112.172 210.039 106.43 205.952 105.808Z" fill="#3B3B3B"/>
<path d="M87.2969 48.5169L87.1715 48.6532C86.6981 49.168 85.8974 49.2014 85.3826 48.728L84.8463 48.2347C84.3315 47.7613 84.2983 46.9603 84.7714 46.4459L84.8968 46.3095C85.3702 45.7948 86.171 45.7613 86.6857 46.2347L87.2221 46.728C87.7368 47.2015 87.7703 48.0022 87.2969 48.5169Z" fill="#3B3B3B"/>
<path d="M95.2824 36.5722L86.0526 46.6077L87.0881 47.5601L96.3179 37.5246L95.2824 36.5722Z" fill="#3B3B3B"/>
<path d="M91.22 52.1253L91.0947 52.2616C90.6212 52.7764 89.8205 52.8098 89.3058 52.3364L88.7694 51.8431C88.2547 51.3697 88.2215 50.5687 88.6946 50.0543L88.82 49.9179C89.2934 49.4032 90.0944 49.37 90.6088 49.8431L91.1452 50.3364C91.66 50.8099 91.6935 51.6106 91.22 52.1253Z" fill="#3B3B3B"/>
<path d="M99.2055 40.1806L89.9756 50.2161L91.0112 51.1685L100.241 41.133L99.2055 40.1806Z" fill="#3B3B3B"/>
<path d="M95.1431 55.7332L95.0177 55.8695C94.5443 56.3843 93.7436 56.4178 93.2289 55.9443L92.6925 55.451C92.1778 54.9776 92.1446 54.1766 92.6177 53.6622L92.7431 53.5258C93.2165 53.0111 94.0175 52.9779 94.5319 53.451L95.0683 53.9444C95.5831 54.4178 95.6165 55.2185 95.1431 55.7332Z" fill="#3B3B3B"/>
<path d="M97.4794 37.4456L97.3541 37.5819C96.8806 38.0967 96.0799 38.1302 95.5652 37.6567L95.0288 37.1634C94.5141 36.69 94.4806 35.8893 94.954 35.3746L95.0794 35.2382C95.5528 34.7235 96.3535 34.69 96.8682 35.1634L97.4046 35.6568C97.9194 36.1302 97.9529 36.9309 97.4794 37.4456Z" fill="#3B3B3B"/>
<path d="M101.403 41.0538L101.277 41.1901C100.804 41.7048 100.003 41.7383 99.4883 41.2649L98.9519 40.7716C98.4372 40.2982 98.4037 39.4974 98.8771 38.9827L99.0025 38.8464C99.4759 38.3317 100.277 38.2984 100.791 38.7716L101.328 39.2649C101.842 39.7383 101.876 40.539 101.403 41.0538Z" fill="#3B3B3B"/>
<path d="M105.326 44.6619L105.2 44.7982C104.727 45.313 103.926 45.3465 103.411 44.8731L102.875 44.3797C102.36 43.9063 102.327 43.1056 102.8 42.5909L102.926 42.4545C103.399 41.9398 104.2 41.9066 104.715 42.3797L105.251 42.8731C105.766 43.3465 105.799 44.1472 105.326 44.6619Z" fill="#3B3B3B"/>
<path d="M103.129 43.7887L93.8988 53.8242L94.9343 54.7766L104.164 44.7411L103.129 43.7887Z" fill="#3B3B3B"/>
<path d="M200.775 103.035C196.946 102.453 189.264 102.127 183.68 98.0699C178.096 94.0127 179.58 84.9954 168.677 80.6843C157.226 76.1568 148.125 87.4618 148.125 87.4618L145.683 90.1166L144.123 91.8127L141.681 94.4675C141.681 94.4675 131.176 104.481 136.643 115.514C141.85 126.02 150.712 123.787 155.221 129.013C159.73 134.239 160.219 142.014 161.596 145.634C162.974 149.254 167.418 159.029 176.813 161.394C185.851 163.669 194.647 163.065 207.776 148.79C221.131 134.334 220.772 125.699 217.75 116.883C214.609 107.718 204.861 103.657 200.775 103.035Z" fill="#3B3B3B"/>
<path d="M207.475 148.225L207.333 148.38C194.849 161.953 186.456 163.198 176.961 160.808C168.032 158.56 163.637 149.297 162.162 145.419C161.781 144.417 161.467 143.071 161.103 141.512C160.212 137.69 158.991 132.457 155.679 128.618C153.811 126.454 151.286 125.517 148.612 124.525C144.499 122.999 140.246 121.421 137.185 115.245C132.695 106.186 139.401 97.8104 141.564 95.4592C141.896 95.0981 142.098 94.9044 142.108 94.8971L142.129 94.8734L148.586 87.8527C148.619 87.8116 148.794 87.5979 149.103 87.2617C151.266 84.9104 159.052 77.5286 168.454 81.2462C174.865 83.7808 176.792 87.8869 178.656 91.8581C179.868 94.4404 181.012 96.8786 183.325 98.5594C188.171 102.08 194.487 102.856 198.666 103.369C199.466 103.467 200.12 103.548 200.684 103.634C204.775 104.256 214.19 108.361 217.179 117.08C218.442 120.767 219.568 125.249 218.329 130.53C217.081 135.852 213.531 141.641 207.475 148.225ZM141.78 95.6587C139.65 97.975 133.042 106.223 137.449 115.114C140.458 121.186 144.655 122.743 148.715 124.249C151.425 125.255 153.985 126.204 155.902 128.426C159.262 132.32 160.492 137.594 161.39 141.445C161.751 142.994 162.063 144.33 162.437 145.314C163.896 149.15 168.238 158.308 177.033 160.523C186.423 162.887 194.732 161.647 207.116 148.181L207.259 148.026C213.279 141.48 216.807 135.735 218.043 130.462C219.264 125.254 218.151 120.823 216.901 117.175C213.956 108.584 204.674 104.538 200.64 103.924C200.08 103.84 199.428 103.758 198.634 103.661C194.421 103.144 188.059 102.363 183.152 98.7972C180.777 97.072 179.618 94.6005 178.39 91.9836C176.55 88.0639 174.648 84.0115 168.346 81.5199C159.118 77.8713 151.45 85.1449 149.32 87.4612C149.017 87.7899 148.846 87.999 148.826 88.024L142.343 95.0759L142.306 95.114C142.299 95.1207 142.104 95.3072 141.78 95.6587Z" fill="#3B3B3B"/>
<path d="M172.72 116.614C168.393 121.319 161.044 121.627 156.338 117.299C151.632 112.971 151.325 105.622 155.653 100.916C159.981 96.2108 167.33 95.9035 172.035 100.231C176.741 104.559 177.049 111.908 172.72 116.614ZM155.87 101.116C151.652 105.702 151.951 112.864 156.537 117.082C161.123 121.3 168.286 121.001 172.504 116.415C176.722 111.828 176.422 104.666 171.836 100.448C167.25 96.2301 160.087 96.5296 155.87 101.116Z" fill="#3B3B3B"/>
<path d="M171.688 115.665C167.876 119.809 161.403 120.08 157.258 116.268C153.114 112.456 152.843 105.983 156.655 101.838C160.467 97.6936 166.941 97.4229 171.085 101.235C175.23 105.047 175.5 111.52 171.688 115.665ZM156.872 102.037C153.17 106.062 153.432 112.349 157.457 116.051C161.483 119.753 167.769 119.49 171.471 115.465C175.174 111.44 174.911 105.153 170.885 101.451C166.86 97.7489 160.574 98.0118 156.872 102.037Z" fill="#3B3B3B"/>
<path d="M156.29 115.965C156.018 116.261 155.557 116.28 155.261 116.008C154.966 115.737 154.947 115.276 155.218 114.98C155.49 114.685 155.951 114.666 156.247 114.937C156.542 115.209 156.561 115.67 156.29 115.965ZM155.435 115.18C155.273 115.355 155.285 115.63 155.461 115.792C155.637 115.954 155.911 115.942 156.073 115.766C156.235 115.59 156.223 115.316 156.047 115.154C155.872 114.992 155.597 115.004 155.435 115.18Z" fill="#3B3B3B"/>
<path d="M157.174 116.937C156.902 117.232 156.441 117.251 156.145 116.98C155.85 116.708 155.831 116.247 156.103 115.952C156.374 115.656 156.835 115.637 157.131 115.908C157.426 116.18 157.445 116.642 157.174 116.937ZM156.319 116.151C156.157 116.327 156.169 116.601 156.345 116.763C156.52 116.925 156.796 116.913 156.957 116.738C157.119 116.562 157.108 116.287 156.931 116.125C156.756 115.964 156.481 115.975 156.319 116.151Z" fill="#3B3B3B"/>
<path d="M158.196 117.794C157.925 118.089 157.464 118.108 157.168 117.837C156.873 117.565 156.854 117.104 157.125 116.808C157.397 116.513 157.858 116.494 158.153 116.765C158.449 117.037 158.468 117.498 158.196 117.794ZM157.342 117.007C157.18 117.183 157.191 117.458 157.367 117.62C157.543 117.781 157.818 117.77 157.98 117.594C158.141 117.418 158.13 117.144 157.954 116.982C157.778 116.82 157.504 116.832 157.342 117.007Z" fill="#3B3B3B"/>
<path d="M159.261 118.528C158.99 118.823 158.528 118.842 158.233 118.571C157.937 118.299 157.918 117.838 158.19 117.542C158.461 117.247 158.923 117.228 159.218 117.499C159.514 117.771 159.533 118.232 159.261 118.528ZM158.407 117.742C158.245 117.917 158.256 118.192 158.432 118.354C158.608 118.516 158.883 118.504 159.045 118.328C159.206 118.152 159.195 117.878 159.019 117.716C158.843 117.554 158.568 117.566 158.407 117.742Z" fill="#3B3B3B"/>
<path d="M160.442 119.087C160.171 119.382 159.709 119.401 159.414 119.13C159.119 118.858 159.1 118.397 159.371 118.102C159.643 117.806 160.104 117.787 160.399 118.058C160.694 118.33 160.714 118.792 160.442 119.087ZM159.587 118.301C159.426 118.477 159.437 118.751 159.613 118.913C159.789 119.075 160.063 119.063 160.225 118.887C160.387 118.711 160.376 118.437 160.2 118.275C160.024 118.113 159.749 118.125 159.587 118.301Z" fill="#3B3B3B"/>
<path d="M161.691 119.584C161.419 119.879 160.958 119.898 160.663 119.627C160.367 119.355 160.348 118.894 160.62 118.599C160.891 118.303 161.352 118.284 161.648 118.556C161.943 118.827 161.962 119.288 161.691 119.584ZM160.836 118.797C160.674 118.973 160.686 119.248 160.862 119.41C161.037 119.571 161.312 119.56 161.474 119.384C161.635 119.208 161.624 118.934 161.448 118.772C161.272 118.61 160.998 118.622 160.836 118.797Z" fill="#3B3B3B"/>
<path d="M163.012 119.808C162.741 120.103 162.279 120.122 161.984 119.851C161.689 119.579 161.67 119.118 161.941 118.823C162.213 118.527 162.674 118.508 162.969 118.78C163.265 119.051 163.284 119.512 163.012 119.808ZM162.158 119.022C161.996 119.198 162.007 119.472 162.183 119.634C162.359 119.796 162.634 119.784 162.795 119.608C162.957 119.432 162.945 119.158 162.77 118.996C162.594 118.834 162.319 118.846 162.158 119.022Z" fill="#3B3B3B"/>
<path d="M164.366 119.995C164.095 120.29 163.633 120.31 163.338 120.038C163.043 119.767 163.024 119.305 163.295 119.01C163.567 118.715 164.028 118.696 164.323 118.967C164.618 119.239 164.638 119.7 164.366 119.995ZM163.511 119.209C163.35 119.385 163.361 119.659 163.537 119.821C163.713 119.983 163.988 119.971 164.149 119.796C164.311 119.62 164.3 119.345 164.124 119.184C163.948 119.022 163.673 119.033 163.511 119.209Z" fill="#3B3B3B"/>
<path d="M165.675 119.919C165.404 120.214 164.942 120.234 164.647 119.962C164.352 119.691 164.333 119.229 164.604 118.934C164.876 118.639 165.337 118.619 165.632 118.891C165.927 119.163 165.947 119.624 165.675 119.919ZM164.821 119.133C164.659 119.309 164.67 119.584 164.846 119.746C165.022 119.907 165.297 119.896 165.459 119.72C165.62 119.544 165.609 119.27 165.433 119.108C165.257 118.946 164.983 118.958 164.821 119.133Z" fill="#3B3B3B"/>
<path d="M166.97 119.77C166.698 120.066 166.237 120.085 165.942 119.813C165.646 119.542 165.627 119.08 165.899 118.785C166.17 118.49 166.632 118.47 166.927 118.742C167.222 119.014 167.241 119.475 166.97 119.77ZM166.115 118.984C165.953 119.16 165.965 119.435 166.141 119.596C166.317 119.758 166.591 119.747 166.753 119.571C166.915 119.395 166.903 119.12 166.727 118.958C166.552 118.797 166.277 118.808 166.115 118.984Z" fill="#3B3B3B"/>
<path d="M168.26 119.429C168.176 119.52 168.069 119.588 167.948 119.627C167.763 119.687 167.565 119.671 167.393 119.582C167.22 119.494 167.092 119.343 167.032 119.158C166.973 118.973 166.989 118.776 167.077 118.603C167.166 118.429 167.317 118.302 167.502 118.242C167.687 118.182 167.884 118.199 168.057 118.287C168.23 118.376 168.358 118.527 168.418 118.712C168.477 118.897 168.461 119.094 168.372 119.267C168.342 119.327 168.304 119.381 168.26 119.429ZM167.406 118.641C167.38 118.669 167.357 118.701 167.339 118.737C167.286 118.84 167.277 118.958 167.312 119.068C167.348 119.178 167.424 119.268 167.527 119.321C167.63 119.374 167.747 119.383 167.857 119.348C167.968 119.312 168.058 119.236 168.11 119.133C168.163 119.03 168.172 118.913 168.137 118.802C168.101 118.692 168.025 118.602 167.922 118.549C167.819 118.497 167.702 118.487 167.592 118.522C167.52 118.546 167.456 118.586 167.406 118.641Z" fill="#3B3B3B"/>
<path d="M169.474 118.892C169.258 119.127 168.904 119.2 168.607 119.047C168.434 118.959 168.306 118.808 168.246 118.623C168.186 118.438 168.203 118.241 168.291 118.068C168.379 117.893 168.531 117.767 168.716 117.707C168.901 117.647 169.098 117.664 169.271 117.752C169.444 117.841 169.572 117.992 169.632 118.177C169.691 118.362 169.675 118.559 169.586 118.731C169.555 118.791 169.518 118.845 169.474 118.892ZM168.62 118.106C168.594 118.134 168.571 118.166 168.553 118.202C168.5 118.305 168.491 118.422 168.526 118.532C168.562 118.643 168.638 118.733 168.741 118.785C168.953 118.894 169.215 118.81 169.324 118.598C169.377 118.494 169.387 118.377 169.351 118.267C169.316 118.157 169.239 118.067 169.137 118.014C169.034 117.961 168.916 117.952 168.806 117.987C168.734 118.011 168.67 118.051 168.62 118.106Z" fill="#3B3B3B"/>
<path d="M170.631 118.261C170.547 118.352 170.44 118.421 170.319 118.46C170.134 118.52 169.936 118.503 169.763 118.415C169.59 118.326 169.462 118.175 169.403 117.99C169.343 117.805 169.359 117.608 169.448 117.435C169.631 117.078 170.07 116.937 170.428 117.12C170.601 117.208 170.729 117.359 170.788 117.544C170.848 117.729 170.832 117.926 170.743 118.099C170.713 118.159 170.675 118.213 170.631 118.261ZM169.777 117.474C169.751 117.502 169.728 117.534 169.71 117.569C169.601 117.782 169.685 118.044 169.898 118.152C170.001 118.205 170.118 118.215 170.229 118.179C170.338 118.144 170.428 118.068 170.481 117.965C170.534 117.861 170.543 117.744 170.508 117.634C170.472 117.523 170.396 117.433 170.293 117.381C170.116 117.291 169.905 117.334 169.777 117.474Z" fill="#3B3B3B"/>
<path d="M171.713 117.459C171.629 117.55 171.522 117.619 171.4 117.658C171.215 117.718 171.018 117.702 170.845 117.613C170.672 117.524 170.544 117.374 170.485 117.189C170.425 117.003 170.441 116.807 170.53 116.634C170.714 116.276 171.152 116.135 171.509 116.318C171.682 116.407 171.81 116.558 171.87 116.743C171.93 116.928 171.913 117.125 171.825 117.298C171.794 117.357 171.756 117.412 171.713 117.459ZM170.858 116.672C170.832 116.7 170.81 116.732 170.792 116.768C170.739 116.871 170.729 116.988 170.765 117.099C170.8 117.209 170.877 117.299 170.979 117.352C171.082 117.404 171.2 117.414 171.31 117.379C171.42 117.343 171.51 117.267 171.563 117.164C171.616 117.061 171.625 116.943 171.59 116.833C171.554 116.723 171.478 116.633 171.375 116.58C171.198 116.489 170.987 116.532 170.858 116.672Z" fill="#3B3B3B"/>
<path d="M172.657 116.47C172.574 116.561 172.467 116.63 172.345 116.669C172.16 116.728 171.963 116.712 171.79 116.623C171.617 116.535 171.489 116.384 171.429 116.199C171.37 116.014 171.386 115.817 171.475 115.644C171.658 115.287 172.097 115.145 172.455 115.329C172.627 115.417 172.756 115.568 172.815 115.753C172.874 115.938 172.858 116.135 172.77 116.308C172.739 116.368 172.701 116.422 172.657 116.47ZM171.803 115.683C171.777 115.711 171.755 115.743 171.736 115.778C171.627 115.991 171.712 116.252 171.924 116.361C172.027 116.414 172.145 116.424 172.255 116.388C172.365 116.353 172.455 116.277 172.508 116.174C172.561 116.071 172.57 115.953 172.534 115.843C172.499 115.733 172.423 115.643 172.32 115.59C172.143 115.499 171.932 115.543 171.803 115.683Z" fill="#3B3B3B"/>
<path d="M155.504 114.906C155.232 115.201 154.771 115.221 154.476 114.949C154.181 114.678 154.161 114.216 154.433 113.921C154.705 113.626 155.166 113.607 155.461 113.878C155.756 114.15 155.775 114.611 155.504 114.906ZM154.65 114.12C154.488 114.296 154.499 114.571 154.675 114.732C154.851 114.894 155.126 114.882 155.287 114.707C155.449 114.531 155.438 114.256 155.262 114.095C155.086 113.933 154.811 113.944 154.65 114.12Z" fill="#3B3B3B"/>
<path d="M154.951 113.715C154.68 114.01 154.218 114.029 153.923 113.758C153.628 113.486 153.608 113.025 153.88 112.73C154.152 112.434 154.613 112.415 154.908 112.687C155.203 112.958 155.223 113.42 154.951 113.715ZM154.096 112.929C153.935 113.105 153.946 113.379 154.122 113.541C154.298 113.703 154.572 113.691 154.734 113.515C154.896 113.34 154.885 113.065 154.709 112.903C154.533 112.741 154.258 112.753 154.096 112.929Z" fill="#3B3B3B"/>
<path d="M154.398 112.524C154.126 112.819 153.665 112.839 153.37 112.567C153.075 112.296 153.056 111.835 153.327 111.539C153.599 111.244 154.06 111.225 154.355 111.496C154.651 111.768 154.67 112.229 154.398 112.524ZM153.544 111.738C153.382 111.914 153.393 112.189 153.569 112.351C153.745 112.512 154.019 112.5 154.181 112.324C154.343 112.149 154.331 111.874 154.156 111.713C153.98 111.551 153.705 111.562 153.544 111.738Z" fill="#3B3B3B"/>
<path d="M154.145 111.237C153.873 111.532 153.412 111.551 153.116 111.28C152.821 111.008 152.802 110.547 153.073 110.252C153.345 109.956 153.806 109.937 154.101 110.209C154.397 110.48 154.416 110.942 154.145 111.237ZM153.29 110.451C153.128 110.627 153.14 110.901 153.316 111.063C153.492 111.225 153.766 111.214 153.928 111.038C154.09 110.862 154.078 110.587 153.902 110.425C153.726 110.263 153.452 110.275 153.29 110.451Z" fill="#3B3B3B"/>
<path d="M153.997 109.922C153.725 110.217 153.264 110.236 152.968 109.965C152.673 109.693 152.654 109.232 152.925 108.937C153.197 108.641 153.658 108.622 153.954 108.894C154.249 109.165 154.268 109.626 153.997 109.922ZM153.142 109.136C152.98 109.312 152.992 109.586 153.168 109.748C153.344 109.91 153.618 109.898 153.78 109.722C153.941 109.547 153.93 109.272 153.754 109.11C153.578 108.949 153.304 108.96 153.142 109.136Z" fill="#3B3B3B"/>
<path d="M153.983 108.589C153.712 108.884 153.25 108.903 152.955 108.632C152.66 108.36 152.64 107.899 152.912 107.604C153.183 107.308 153.645 107.289 153.94 107.561C154.236 107.832 154.255 108.294 153.983 108.589ZM153.129 107.803C152.967 107.979 152.978 108.253 153.154 108.415C153.33 108.577 153.605 108.565 153.766 108.389C153.928 108.214 153.917 107.939 153.741 107.777C153.565 107.615 153.29 107.627 153.129 107.803Z" fill="#3B3B3B"/>
<path d="M154.177 107.32C153.905 107.615 153.444 107.634 153.149 107.363C152.854 107.091 152.834 106.63 153.106 106.335C153.377 106.039 153.839 106.02 154.134 106.292C154.429 106.563 154.448 107.024 154.177 107.32ZM153.322 106.534C153.16 106.709 153.172 106.984 153.348 107.146C153.524 107.308 153.798 107.296 153.96 107.12C154.122 106.944 154.11 106.67 153.934 106.508C153.759 106.346 153.484 106.358 153.322 106.534Z" fill="#3B3B3B"/>
<path d="M169.463 99.4798C169.221 99.7432 168.814 99.7944 168.512 99.5843C168.352 99.4732 168.245 99.3066 168.211 99.1155C168.177 98.9239 168.219 98.7311 168.33 98.5714C168.441 98.4127 168.607 98.3049 168.799 98.2705C168.991 98.2361 169.183 98.2786 169.343 98.3897C169.503 98.5007 169.61 98.6674 169.644 98.8584C169.678 99.0494 169.636 99.2429 169.525 99.4025C169.505 99.43 169.485 99.4558 169.463 99.4798ZM168.68 99.3428C168.876 99.4788 169.146 99.4306 169.283 99.2346C169.42 99.038 169.371 98.7676 169.175 98.6311C168.979 98.4949 168.708 98.544 168.571 98.7394C168.435 98.9356 168.483 99.2061 168.68 99.3428Z" fill="#3B3B3B"/>
<path d="M170.602 100.132C170.495 100.248 170.354 100.326 170.196 100.354C170.005 100.389 169.812 100.346 169.652 100.235C169.493 100.124 169.386 99.9574 169.351 99.7664C169.317 99.5748 169.359 99.3819 169.47 99.2223C169.7 98.8908 170.153 98.8113 170.483 99.0408C170.643 99.1519 170.75 99.3185 170.784 99.5096C170.818 99.7006 170.776 99.894 170.665 100.054C170.646 100.082 170.625 100.108 170.602 100.132ZM169.749 99.3448C169.736 99.359 169.723 99.3745 169.712 99.3905C169.576 99.5867 169.625 99.8574 169.821 99.9939C170.017 100.13 170.287 100.082 170.424 99.886C170.49 99.791 170.515 99.6758 170.494 99.5619C170.474 99.4481 170.41 99.3488 170.316 99.2825C170.136 99.1576 169.893 99.188 169.749 99.3448Z" fill="#3B3B3B"/>
<path d="M171.661 100.943C171.419 101.207 171.012 101.258 170.711 101.048C170.551 100.937 170.444 100.77 170.41 100.579C170.375 100.388 170.418 100.194 170.529 100.035C170.64 99.8763 170.806 99.768 170.998 99.7341C171.189 99.6997 171.382 99.7422 171.542 99.8533C171.701 99.9644 171.808 100.131 171.843 100.322C171.877 100.514 171.834 100.707 171.723 100.866C171.704 100.894 171.683 100.919 171.661 100.943ZM170.807 100.157C170.794 100.171 170.781 100.186 170.77 100.202C170.704 100.297 170.679 100.413 170.7 100.526C170.72 100.64 170.784 100.74 170.879 100.806C171.075 100.942 171.345 100.893 171.482 100.698C171.618 100.502 171.57 100.231 171.374 100.094C171.194 99.9698 170.951 99.9999 170.807 100.157Z" fill="#3B3B3B"/>
<path d="M172.609 101.823C172.367 102.087 171.96 102.138 171.659 101.928C171.499 101.816 171.392 101.65 171.358 101.459C171.323 101.267 171.366 101.074 171.477 100.915C171.705 100.583 172.16 100.504 172.489 100.733C172.649 100.844 172.756 101.011 172.79 101.202C172.825 101.394 172.782 101.586 172.671 101.746C172.652 101.774 172.631 101.799 172.609 101.823ZM171.827 101.686C172.023 101.822 172.294 101.773 172.43 101.578C172.496 101.483 172.521 101.368 172.5 101.254C172.48 101.14 172.416 101.04 172.322 100.974C172.126 100.838 171.855 100.886 171.719 101.082C171.582 101.279 171.631 101.549 171.827 101.686Z" fill="#3B3B3B"/>
<path d="M173.412 102.854C173.17 103.118 172.763 103.169 172.461 102.958C172.302 102.847 172.195 102.681 172.16 102.49C172.126 102.298 172.168 102.105 172.279 101.946C172.39 101.787 172.557 101.679 172.748 101.645C172.94 101.611 173.132 101.653 173.292 101.764C173.622 101.993 173.703 102.447 173.474 102.777C173.456 102.804 173.434 102.83 173.412 102.854ZM172.63 102.717C172.825 102.853 173.096 102.805 173.233 102.609C173.369 102.412 173.32 102.141 173.125 102.005C172.928 101.869 172.659 101.917 172.521 102.113C172.385 102.31 172.434 102.58 172.63 102.717Z" fill="#3B3B3B"/>
<path d="M174.168 103.965C174.061 104.081 173.92 104.16 173.761 104.188C173.57 104.222 173.377 104.18 173.217 104.069C172.888 103.84 172.807 103.385 173.036 103.056C173.144 102.895 173.313 102.79 173.504 102.755C173.695 102.721 173.889 102.763 174.049 102.874C174.208 102.985 174.316 103.152 174.349 103.343C174.384 103.534 174.341 103.727 174.23 103.887C174.211 103.915 174.19 103.941 174.168 103.965ZM173.315 103.177C173.302 103.192 173.289 103.208 173.278 103.224C173.141 103.42 173.19 103.691 173.386 103.827C173.582 103.963 173.853 103.916 173.989 103.719C174.126 103.522 174.077 103.252 173.881 103.116C173.786 103.049 173.671 103.024 173.557 103.045C173.462 103.062 173.379 103.108 173.315 103.177Z" fill="#3B3B3B"/>
<path d="M174.675 105.206C174.432 105.469 174.025 105.52 173.724 105.31C173.564 105.199 173.457 105.032 173.423 104.841C173.388 104.65 173.431 104.457 173.542 104.297C173.652 104.139 173.819 104.031 174.01 103.996C174.202 103.962 174.395 104.005 174.554 104.116C174.714 104.227 174.821 104.393 174.855 104.584C174.89 104.776 174.847 104.969 174.736 105.128C174.717 105.156 174.697 105.182 174.675 105.206ZM173.892 105.069C174.088 105.205 174.357 105.156 174.495 104.96C174.631 104.764 174.583 104.494 174.387 104.357C174.191 104.221 173.921 104.271 173.783 104.465C173.647 104.662 173.696 104.932 173.892 105.069Z" fill="#3B3B3B"/>
<path d="M175.151 106.488C175.045 106.604 174.904 106.682 174.745 106.71C174.554 106.744 174.361 106.702 174.201 106.591C174.042 106.48 173.935 106.313 173.9 106.122C173.866 105.931 173.909 105.738 174.02 105.578C174.248 105.247 174.703 105.167 175.032 105.396C175.192 105.507 175.299 105.674 175.333 105.865C175.367 106.057 175.325 106.25 175.214 106.409C175.195 106.437 175.174 106.463 175.151 106.488ZM174.298 105.7C174.285 105.714 174.272 105.73 174.261 105.746C174.125 105.942 174.174 106.213 174.37 106.349C174.465 106.415 174.58 106.441 174.694 106.42C174.808 106.401 174.908 106.336 174.973 106.242C175.039 106.147 175.065 106.032 175.044 105.917C175.023 105.803 174.96 105.704 174.865 105.638C174.685 105.513 174.442 105.543 174.298 105.7Z" fill="#3B3B3B"/>
<path d="M175.363 107.782C175.256 107.898 175.114 107.976 174.956 108.004C174.765 108.038 174.572 107.996 174.412 107.885C174.253 107.774 174.146 107.608 174.112 107.416C174.077 107.225 174.12 107.032 174.231 106.873C174.46 106.54 174.914 106.462 175.243 106.691C175.403 106.802 175.509 106.969 175.544 107.16C175.578 107.351 175.536 107.544 175.425 107.704C175.406 107.731 175.385 107.758 175.363 107.782ZM174.509 106.995C174.496 107.009 174.483 107.024 174.472 107.041C174.406 107.135 174.381 107.251 174.402 107.365C174.422 107.479 174.485 107.578 174.58 107.644C174.675 107.71 174.79 107.735 174.905 107.715C175.018 107.695 175.118 107.63 175.184 107.536C175.25 107.441 175.275 107.326 175.255 107.212C175.234 107.098 175.171 106.999 175.076 106.933C174.896 106.808 174.653 106.838 174.509 106.995Z" fill="#3B3B3B"/>
<path d="M175.499 109.077C175.256 109.34 174.85 109.391 174.548 109.181C174.388 109.07 174.281 108.904 174.247 108.712C174.213 108.521 174.255 108.328 174.366 108.168C174.595 107.836 175.049 107.757 175.379 107.987C175.539 108.098 175.646 108.264 175.68 108.456C175.714 108.647 175.672 108.84 175.561 109C175.541 109.027 175.521 109.053 175.499 109.077ZM174.716 108.94C174.811 109.006 174.926 109.031 175.04 109.01C175.154 108.99 175.253 108.926 175.319 108.832C175.385 108.737 175.41 108.622 175.389 108.508C175.369 108.393 175.306 108.294 175.211 108.228C175.015 108.092 174.743 108.141 174.607 108.336C174.471 108.533 174.519 108.803 174.716 108.94Z" fill="#3B3B3B"/>
<path d="M175.446 110.41C175.424 110.434 175.4 110.456 175.375 110.478C175.225 110.602 175.036 110.66 174.842 110.642C174.649 110.624 174.474 110.532 174.35 110.383C174.226 110.233 174.167 110.045 174.185 109.851C174.203 109.657 174.297 109.482 174.444 109.358C174.754 109.102 175.213 109.144 175.47 109.453C175.704 109.736 175.688 110.146 175.446 110.41ZM174.59 109.625C174.526 109.695 174.487 109.783 174.478 109.878C174.468 109.993 174.503 110.106 174.577 110.195C174.651 110.284 174.755 110.339 174.87 110.349C174.985 110.36 175.097 110.325 175.186 110.251C175.276 110.176 175.33 110.073 175.341 109.958C175.351 109.843 175.317 109.73 175.243 109.642C175.169 109.552 175.065 109.497 174.95 109.487C174.835 109.476 174.722 109.511 174.633 109.585C174.617 109.598 174.603 109.611 174.59 109.625Z" fill="#3B3B3B"/>
<path d="M175.187 111.711C175.165 111.735 175.141 111.758 175.116 111.779C174.966 111.903 174.777 111.962 174.584 111.944C174.39 111.926 174.215 111.834 174.091 111.685C173.835 111.376 173.882 110.915 174.186 110.659C174.495 110.403 174.954 110.445 175.211 110.754C175.446 111.037 175.43 111.448 175.187 111.711ZM174.331 110.927C174.267 110.996 174.228 111.084 174.22 111.179C174.209 111.295 174.244 111.407 174.318 111.496C174.392 111.586 174.496 111.64 174.611 111.651C174.726 111.661 174.839 111.626 174.927 111.553C175.018 111.478 175.071 111.374 175.082 111.259C175.092 111.144 175.058 111.031 174.984 110.943C174.831 110.759 174.558 110.734 174.374 110.886C174.359 110.899 174.344 110.912 174.331 110.927Z" fill="#3B3B3B"/>
<path d="M174.821 112.978C174.799 113.002 174.776 113.024 174.75 113.046C174.601 113.17 174.411 113.229 174.218 113.211C174.024 113.193 173.85 113.1 173.726 112.951C173.601 112.802 173.542 112.612 173.56 112.419C173.578 112.225 173.672 112.05 173.82 111.926C174.129 111.67 174.589 111.712 174.845 112.021C175.08 112.304 175.064 112.715 174.821 112.978ZM173.965 112.193C173.902 112.263 173.862 112.351 173.854 112.446C173.843 112.562 173.878 112.675 173.952 112.763C174.026 112.853 174.13 112.907 174.245 112.917C174.36 112.928 174.473 112.894 174.562 112.82C174.652 112.745 174.706 112.641 174.716 112.526C174.727 112.411 174.692 112.298 174.618 112.209C174.544 112.12 174.44 112.065 174.325 112.055C174.21 112.044 174.097 112.079 174.008 112.153C173.993 112.166 173.979 112.179 173.965 112.193Z" fill="#3B3B3B"/>
<path d="M174.274 114.209C174.252 114.233 174.228 114.255 174.203 114.276C174.054 114.4 173.864 114.459 173.671 114.441C173.477 114.423 173.302 114.331 173.178 114.181C172.922 113.872 172.968 113.413 173.273 113.156C173.581 112.9 174.041 112.942 174.298 113.251C174.533 113.534 174.516 113.945 174.274 114.209ZM173.418 113.424C173.355 113.493 173.315 113.581 173.307 113.677C173.296 113.792 173.331 113.905 173.405 113.993C173.479 114.083 173.583 114.137 173.698 114.148C173.813 114.158 173.926 114.124 174.015 114.05C174.205 113.896 174.224 113.623 174.071 113.44C173.919 113.256 173.645 113.231 173.461 113.383C173.446 113.396 173.432 113.409 173.418 113.424Z" fill="#3B3B3B"/>
<path d="M173.513 115.347C173.491 115.37 173.468 115.393 173.442 115.414C173.293 115.538 173.104 115.596 172.91 115.578C172.716 115.56 172.541 115.468 172.417 115.319C172.293 115.169 172.234 114.98 172.252 114.787C172.27 114.593 172.362 114.419 172.512 114.294C172.82 114.038 173.28 114.08 173.537 114.389C173.772 114.672 173.756 115.083 173.513 115.347ZM172.658 114.561C172.594 114.63 172.554 114.718 172.546 114.814C172.536 114.929 172.57 115.041 172.644 115.13C172.718 115.22 172.822 115.275 172.937 115.285C173.052 115.296 173.165 115.261 173.254 115.187C173.437 115.036 173.463 114.76 173.311 114.577C173.158 114.394 172.884 114.368 172.7 114.521C172.685 114.533 172.671 114.546 172.658 114.561Z" fill="#3B3B3B"/>
<path d="M168.258 98.943C168.016 99.2062 167.609 99.2573 167.307 99.0472C166.977 98.8183 166.896 98.3639 167.125 98.0341C167.236 97.8742 167.402 97.7681 167.594 97.7337C167.785 97.6993 167.978 97.7418 168.138 97.8529C168.297 97.9637 168.404 98.1303 168.439 98.3214C168.473 98.513 168.43 98.7058 168.319 98.8654C168.3 98.8932 168.28 98.919 168.258 98.943ZM167.474 98.8061C167.671 98.9423 167.941 98.8932 168.078 98.6978C168.144 98.6028 168.169 98.4876 168.148 98.3738C168.128 98.2599 168.065 98.1609 167.97 98.0946C167.875 98.0286 167.76 98.0031 167.646 98.024C167.531 98.0443 167.432 98.1082 167.366 98.2023C167.23 98.3986 167.279 98.6698 167.474 98.8061Z" fill="#3B3B3B"/>
<path d="M166.974 98.6635C166.867 98.7796 166.726 98.8577 166.568 98.8857C166.377 98.9201 166.184 98.8776 166.024 98.7665C165.865 98.6555 165.758 98.4888 165.723 98.2978C165.689 98.1068 165.731 97.9134 165.842 97.7537C166.07 97.4223 166.525 97.3427 166.855 97.5722C167.014 97.6831 167.121 97.8494 167.156 98.0404C167.19 98.232 167.148 98.4251 167.037 98.585C167.018 98.6128 166.997 98.6389 166.974 98.6635ZM166.121 97.876C166.108 97.8901 166.095 97.9056 166.084 97.9216C165.948 98.1179 165.996 98.3886 166.192 98.5251C166.388 98.661 166.659 98.6128 166.796 98.4171C166.862 98.3218 166.887 98.2069 166.866 98.0928C166.846 97.9787 166.782 97.8797 166.687 97.8137C166.507 97.6887 166.265 97.7191 166.121 97.876Z" fill="#3B3B3B"/>
<path d="M165.692 98.3824C165.585 98.4986 165.444 98.5767 165.285 98.6049C165.094 98.6393 164.901 98.5969 164.741 98.4858C164.582 98.3747 164.475 98.2083 164.44 98.017C164.406 97.8254 164.448 97.6326 164.56 97.473C164.671 97.3144 164.837 97.2064 165.028 97.172C165.22 97.1376 165.413 97.1801 165.572 97.2909C165.732 97.402 165.839 97.5683 165.873 97.7596C165.907 97.951 165.865 98.1441 165.754 98.3037C165.735 98.3317 165.714 98.3579 165.692 98.3824ZM164.838 97.5949C164.825 97.6093 164.813 97.6246 164.801 97.6409C164.665 97.8371 164.714 98.1078 164.91 98.2443C165.106 98.3808 165.376 98.3323 165.513 98.136C165.65 97.9395 165.601 97.6691 165.405 97.5326C165.225 97.4079 164.983 97.4381 164.838 97.5949Z" fill="#3B3B3B"/>
<path d="M164.381 98.4141C164.138 98.6776 163.732 98.7285 163.43 98.5181C163.27 98.4075 163.164 98.2406 163.129 98.0493C163.095 97.8585 163.137 97.6654 163.248 97.5052C163.474 97.1795 163.931 97.0945 164.261 97.3237C164.42 97.4348 164.528 97.6012 164.562 97.7925C164.596 97.9841 164.554 98.1769 164.443 98.3363C164.423 98.3643 164.403 98.3902 164.381 98.4141ZM163.527 97.6275C163.514 97.6416 163.501 97.6572 163.49 97.6735C163.424 97.7687 163.398 97.8839 163.419 97.9978C163.439 98.1119 163.503 98.2109 163.598 98.2769C163.794 98.4131 164.065 98.3665 164.201 98.1689C164.337 97.9727 164.289 97.702 164.093 97.5655C163.913 97.4405 163.671 97.4706 163.527 97.6275Z" fill="#3B3B3B"/>
<path d="M163.064 98.5567C162.957 98.6725 162.816 98.7507 162.658 98.7789C162.466 98.8133 162.273 98.7709 162.114 98.66C161.954 98.5489 161.847 98.3823 161.813 98.1913C161.779 98 161.821 97.8069 161.932 97.6472C162.16 97.3158 162.615 97.2362 162.945 97.4657C163.104 97.5766 163.211 97.7423 163.246 97.9339C163.28 98.1255 163.238 98.3186 163.127 98.4785C163.107 98.506 163.086 98.5322 163.064 98.5567ZM162.21 97.7692C162.197 97.7833 162.185 97.7989 162.174 97.8149C162.037 98.0111 162.086 98.2818 162.282 98.4183C162.377 98.4844 162.492 98.5098 162.606 98.4887C162.72 98.4689 162.82 98.4053 162.885 98.3103C162.951 98.2151 162.977 98.1002 162.956 97.986C162.935 97.8719 162.872 97.7729 162.777 97.7069C162.597 97.5819 162.355 97.6123 162.21 97.7692Z" fill="#3B3B3B"/>
<path d="M161.76 98.8332C161.653 98.9494 161.512 99.0275 161.354 99.0555C161.162 99.0899 160.969 99.0474 160.81 98.9363C160.65 98.8252 160.543 98.6586 160.509 98.4676C160.474 98.276 160.517 98.0831 160.628 97.9235C160.857 97.5926 161.311 97.5125 161.64 97.742C161.8 97.8528 161.907 98.0191 161.941 98.2102C161.976 98.4018 161.934 98.5949 161.822 98.7548C161.803 98.7825 161.782 98.8087 161.76 98.8332ZM160.906 98.0457C160.893 98.0599 160.881 98.0754 160.87 98.0914C160.733 98.2879 160.782 98.5583 160.978 98.6948C161.174 98.8308 161.445 98.7828 161.581 98.5869C161.647 98.4916 161.673 98.3767 161.652 98.2626C161.631 98.1484 161.568 98.0494 161.473 97.9834C161.293 97.859 161.051 97.8889 160.906 98.0457Z" fill="#3B3B3B"/>
<path d="M160.563 99.2983C160.457 99.4142 160.316 99.4923 160.157 99.5205C159.966 99.5549 159.773 99.5125 159.613 99.4014C159.454 99.2903 159.347 99.1237 159.312 98.9326C159.278 98.741 159.321 98.5482 159.432 98.3886C159.661 98.0571 160.115 97.9778 160.444 98.2068C160.604 98.3179 160.711 98.4839 160.745 98.6758C160.78 98.8674 160.737 99.0603 160.626 99.2199C160.607 99.2476 160.586 99.2738 160.563 99.2983ZM159.71 98.5108C159.697 98.5252 159.684 98.5405 159.673 98.5565C159.537 98.7527 159.586 99.0234 159.782 99.1599C159.877 99.2259 159.992 99.2514 160.106 99.2303C160.22 99.2105 160.319 99.1463 160.385 99.0519C160.451 98.957 160.476 98.8418 160.455 98.7276C160.435 98.6135 160.371 98.5145 160.277 98.4482C160.097 98.3232 159.854 98.3539 159.71 98.5108Z" fill="#3B3B3B"/>
<path d="M170.258 114.045C167.301 117.26 162.28 117.47 159.065 114.513C155.85 111.556 155.64 106.535 158.597 103.32C161.554 100.105 166.575 99.8954 169.79 102.852C173.005 105.809 173.215 110.83 170.258 114.045ZM158.814 103.519C155.967 106.615 156.169 111.45 159.265 114.297C162.36 117.143 167.195 116.941 170.042 113.846C172.888 110.751 172.686 105.916 169.591 103.069C166.495 100.222 161.661 100.424 158.814 103.519Z" fill="#3B3B3B"/>
<path d="M156.729 109.763L164.678 101.12L105.825 49.6996L99.9126 56.1277L156.729 109.763Z" fill="#3B3B3B"/>
<path d="M170.891 114.866C174.262 111.201 174.024 105.496 170.358 102.125C166.693 98.7533 160.988 98.9919 157.617 102.658C154.245 106.323 154.484 112.028 158.15 115.399C161.815 118.77 167.52 118.532 170.891 114.866Z" fill="#3B3B3B"/>
<g opacity="0.6">
<path d="M170.891 114.866C174.262 111.201 174.024 105.496 170.358 102.125C166.693 98.7533 160.988 98.9919 157.617 102.658C154.245 106.323 154.484 112.028 158.15 115.399C161.815 118.77 167.52 118.532 170.891 114.866Z" fill="#3B3B3B"/>
</g>
<g opacity="0.3">
<path d="M161.632 106.111C164.073 103.456 167.933 102.887 170.979 104.495C170.625 103.943 170.196 103.425 169.69 102.96C166.53 100.054 161.612 100.259 158.706 103.42C155.799 106.58 156.005 111.498 159.165 114.404C159.671 114.87 160.222 115.254 160.802 115.56C158.945 112.659 159.19 108.765 161.632 106.111Z" fill="#3B3B3B"/>
</g>
<path d="M86.3804 33.9252C85.8753 34.5207 86.0415 34.8009 85.4677 35.3326C85.0396 35.7291 84.4818 35.6527 84.2252 35.5879L84.1279 35.4984C84.1279 35.4984 84.1406 35.5245 84.1583 35.5696C84.1119 35.5557 84.0848 35.5452 84.0848 35.5452L84.1822 35.6347C84.2679 35.8847 84.3911 36.4342 84.0315 36.8942C83.5493 37.5106 83.2562 37.3685 82.7052 37.9212C82.1543 38.4744 81.2422 40.4337 83.6769 42.6729C86.1116 44.9122 97.1833 54.5864 97.1833 54.5864C97.2523 54.6499 99.9124 56.1282 99.9124 56.1282L102.915 52.8639L102.957 52.8174L105.96 49.5531C105.96 49.5531 104.264 47.0255 104.195 46.9622C104.195 46.9622 93.6306 36.7369 91.1959 34.4976C88.7619 32.2575 86.8857 33.33 86.3804 33.9252ZM99.4311 51.1551C99.9727 51.6532 100.008 52.4963 99.5099 53.0382C99.0118 53.5798 98.1686 53.6153 97.6268 53.117L86.8192 43.177C86.2776 42.6789 86.2421 41.8358 86.7404 41.2939C87.2388 40.752 88.0817 40.7168 88.6236 41.2151L99.4311 51.1551ZM102.769 47.526C103.31 48.0241 103.346 48.8672 102.848 49.4091C102.349 49.951 101.506 49.9862 100.965 49.4879L90.1569 39.5479C89.6154 39.0498 89.5801 38.2064 90.0782 37.6648C90.5763 37.1232 91.4194 37.0876 91.9613 37.586L102.769 47.526Z" fill="#3B3B3B"/>
<g opacity="0.6">
<path d="M105.99 49.5199L99.8111 56.2383L100.525 56.8953L106.704 50.1769L105.99 49.5199Z" fill="#3B3B3B"/>
</g>
<g opacity="0.4">
<path d="M111.085 54.6354L105.247 60.9825C105.192 61.0423 105.099 61.0462 105.039 60.9912C104.979 60.9362 104.976 60.8431 105.031 60.7833L110.868 54.4361C110.923 54.3763 111.016 54.3724 111.076 54.4274C111.136 54.4824 111.14 54.5756 111.085 54.6354Z" fill="#3B3B3B"/>
</g>
<g opacity="0.4">
<path d="M115.547 58.4689L109.575 64.9625C109.52 65.0223 109.427 65.0262 109.367 64.9712C109.307 64.9162 109.304 64.8231 109.359 64.7633L115.331 58.2696C115.386 58.2099 115.479 58.206 115.539 58.261C115.599 58.3159 115.602 58.4091 115.547 58.4689Z" fill="#3B3B3B"/>
</g>
<g opacity="0.4">
<path d="M119.665 62.0174L113.461 68.7623C113.406 68.8221 113.313 68.826 113.254 68.771C113.194 68.716 113.19 68.6229 113.245 68.5631L119.448 61.8181C119.503 61.7584 119.596 61.7545 119.656 61.8095C119.716 61.8644 119.72 61.9573 119.665 62.0174Z" fill="#3B3B3B"/>
</g>
<g opacity="0.4">
<path d="M123.602 65.4128L117.286 72.2799C117.231 72.3397 117.138 72.3436 117.078 72.2886C117.018 72.2336 117.014 72.1404 117.069 72.0806L123.385 65.2135C123.44 65.1537 123.533 65.1499 123.593 65.2048C123.653 65.2598 123.657 65.353 123.602 65.4128Z" fill="#3B3B3B"/>
</g>
<g opacity="0.4">
<path d="M127.268 68.5931L120.857 75.5636C120.802 75.6234 120.709 75.6273 120.649 75.5723C120.589 75.5173 120.585 75.4241 120.64 75.3643L127.051 68.3938C127.106 68.334 127.199 68.3301 127.259 68.3851C127.319 68.4401 127.323 68.5333 127.268 68.5931Z" fill="#3B3B3B"/>
</g>
<g opacity="0.4">
<path d="M130.908 71.8008L124.427 78.8475C124.372 78.9073 124.279 78.9112 124.219 78.8562C124.16 78.8012 124.156 78.7081 124.211 78.6483L130.692 71.6015C130.747 71.5417 130.84 71.5378 130.9 71.5928C130.959 71.6478 130.963 71.741 130.908 71.8008Z" fill="#3B3B3B"/>
</g>
<g opacity="0.4">
<path d="M134.165 74.6985L127.475 81.972C127.42 82.0318 127.327 82.0357 127.267 81.9807C127.208 81.9257 127.204 81.8326 127.259 81.7728L133.948 74.4993C134.003 74.4395 134.096 74.4356 134.156 74.4906C134.216 74.5456 134.22 74.6387 134.165 74.6985Z" fill="#3B3B3B"/>
</g>
<g opacity="0.4">
<path d="M137.391 77.4273L130.583 84.8299C130.528 84.8897 130.435 84.8936 130.375 84.8386C130.315 84.7836 130.311 84.6905 130.366 84.6307L137.174 77.2281C137.229 77.1683 137.323 77.1644 137.382 77.2194C137.442 77.2744 137.446 77.3675 137.391 77.4273Z" fill="#3B3B3B"/>
</g>
<g opacity="0.4">
<path d="M140.499 80.286L133.691 87.6886C133.636 87.7484 133.543 87.7523 133.483 87.6973C133.423 87.6423 133.419 87.5491 133.474 87.4893L140.282 80.0867C140.337 80.0269 140.431 80.023 140.49 80.078C140.55 80.133 140.554 80.2262 140.499 80.286Z" fill="#3B3B3B"/>
</g>
<g opacity="0.4">
<path d="M143.706 83.0365L136.713 90.6393C136.658 90.6991 136.565 90.703 136.505 90.648C136.446 90.593 136.442 90.4998 136.497 90.44L143.489 82.8372C143.544 82.7774 143.637 82.7735 143.697 82.8285C143.757 82.8835 143.761 82.9767 143.706 83.0365Z" fill="#3B3B3B"/>
</g>
<g opacity="0.4">
<path d="M146.715 86.0024L139.821 93.4974C139.766 93.5572 139.673 93.5611 139.613 93.5061C139.553 93.4511 139.55 93.358 139.605 93.2982L146.498 85.8031C146.553 85.7433 146.646 85.7394 146.706 85.7944C146.766 85.8494 146.769 85.9426 146.715 86.0024Z" fill="#3B3B3B"/>
</g>
<g opacity="0.4">
<path d="M150.112 88.6768L142.955 96.4581C142.9 96.5179 142.807 96.5218 142.748 96.4668C142.688 96.4118 142.684 96.3187 142.739 96.2589L149.895 88.4776C149.95 88.4178 150.044 88.4139 150.103 88.4689C150.163 88.5239 150.167 88.617 150.112 88.6768Z" fill="#3B3B3B"/>
</g>
<g opacity="0.4">
<path d="M152.741 90.9716L145.276 99.088C145.221 99.1478 145.128 99.1517 145.068 99.0967C145.008 99.0417 145.004 98.9485 145.059 98.8888L152.524 90.7724C152.579 90.7126 152.672 90.7087 152.732 90.7637C152.792 90.8187 152.796 90.9115 152.741 90.9716Z" fill="#3B3B3B"/>
</g>
<g opacity="0.4">
<path d="M155.402 93.2321L147.937 101.348C147.882 101.408 147.789 101.412 147.729 101.357C147.669 101.302 147.665 101.209 147.72 101.149L155.185 93.0329C155.24 92.9731 155.333 92.9692 155.393 93.0242C155.453 93.0792 155.457 93.1723 155.402 93.2321Z" fill="#3B3B3B"/>
</g>
<g opacity="0.4">
<path d="M157.706 95.3515L150.241 103.468C150.186 103.528 150.093 103.532 150.033 103.477C149.973 103.422 149.969 103.328 150.024 103.269L157.489 95.1523C157.544 95.0925 157.637 95.0886 157.697 95.1436C157.757 95.1986 157.761 95.2917 157.706 95.3515Z" fill="#3B3B3B"/>
</g>
<g opacity="0.4">
<path d="M160.604 97.9789L153.139 106.096C153.084 106.155 152.991 106.159 152.931 106.104C152.871 106.049 152.867 105.956 152.922 105.896L160.388 97.7797C160.442 97.7199 160.536 97.716 160.595 97.771C160.655 97.826 160.659 97.9191 160.604 97.9789Z" fill="#3B3B3B"/>
</g>
<path d="M199.797 121.546L180.263 142.785C179.454 143.664 178.086 143.722 177.207 142.913L176.73 142.474C175.851 141.666 175.794 140.298 176.602 139.419L196.137 118.179C196.945 117.3 198.313 117.243 199.192 118.051L199.669 118.49C200.548 119.299 200.606 120.667 199.797 121.546Z" fill="#3B3B3B"/>
<g opacity="0.5">
<path d="M191.242 123.501L181.562 134.026L183.402 135.718L193.082 125.193L191.242 123.501Z" fill="#3B3B3B"/>
</g>
<path d="M191.712 123.932L182.032 134.458L182.689 135.062L192.37 124.537L191.712 123.932Z" fill="#3B3B3B"/>
<g opacity="0.2">
<path d="M165.375 130.086C165.339 130.125 165.277 130.128 165.237 130.091L147.104 113.415C147.064 113.378 147.062 113.316 147.099 113.276C147.135 113.236 147.197 113.233 147.237 113.27L165.37 129.947C165.41 129.984 165.412 130.046 165.375 130.086Z" fill="#3B3B3B"/>
</g>
<g opacity="0.2">
<path d="M185.991 107.43C185.954 107.47 185.892 107.473 185.852 107.436L172.094 94.7827C172.055 94.7461 172.052 94.684 172.089 94.6441C172.125 94.6042 172.187 94.6016 172.227 94.6383L185.985 107.292C186.025 107.328 186.027 107.391 185.991 107.43Z" fill="#3B3B3B"/>
</g>
<g opacity="0.2">
<path d="M208.667 139.526C208.63 139.565 208.568 139.568 208.528 139.531L194.77 126.878C194.73 126.841 194.728 126.779 194.764 126.739C194.801 126.699 194.863 126.697 194.903 126.734L208.661 139.387C208.701 139.424 208.703 139.486 208.667 139.526Z" fill="#3B3B3B"/>
</g>
<path d="M193.005 127.498C193.165 127.645 193.175 127.893 193.028 128.053C192.881 128.213 192.633 128.223 192.473 128.076C192.313 127.929 192.303 127.681 192.45 127.521C192.597 127.361 192.845 127.351 193.005 127.498Z" fill="#3B3B3B"/>
<path d="M191.655 128.965C191.815 129.112 191.825 129.361 191.678 129.52C191.531 129.68 191.283 129.69 191.123 129.544C190.963 129.397 190.953 129.148 191.1 128.988C191.247 128.829 191.495 128.818 191.655 128.965Z" fill="#3B3B3B"/>
<path d="M190.263 130.478C190.423 130.625 190.433 130.874 190.286 131.033C190.139 131.193 189.891 131.204 189.731 131.057C189.572 130.91 189.561 130.661 189.708 130.502C189.855 130.342 190.103 130.332 190.263 130.478Z" fill="#3B3B3B"/>
<path d="M188.871 131.992C189.031 132.139 189.042 132.387 188.895 132.547C188.748 132.706 188.499 132.717 188.34 132.57C188.18 132.423 188.169 132.175 188.316 132.015C188.463 131.855 188.712 131.845 188.871 131.992Z" fill="#3B3B3B"/>
<path d="M187.454 133.533C187.614 133.68 187.624 133.928 187.477 134.088C187.33 134.248 187.082 134.258 186.922 134.111C186.762 133.964 186.752 133.716 186.899 133.556C187.046 133.397 187.294 133.386 187.454 133.533Z" fill="#3B3B3B"/>
<path d="M186.142 134.959C186.302 135.106 186.312 135.355 186.165 135.514C186.018 135.674 185.77 135.685 185.61 135.538C185.45 135.391 185.44 135.142 185.587 134.983C185.734 134.823 185.982 134.812 186.142 134.959Z" fill="#3B3B3B"/>
<g opacity="0.2">
<path d="M137.798 103.182C136.782 105.619 136.208 108.287 136.515 110.91C137.086 115.799 140.756 119.982 145.238 122.016C147.45 123.02 149.847 123.569 152.06 124.572C152.859 124.935 153.649 125.361 154.517 125.491C155.386 125.62 156.377 125.381 156.868 124.654C157.248 124.091 157.257 123.342 157.051 122.695C156.845 122.048 156.449 121.482 156.054 120.93C154.45 118.691 152.742 116.481 151.71 113.927C150.677 111.373 150.399 108.364 151.672 105.921L141.756 96.3392C140.258 98.5132 138.814 100.746 137.798 103.182Z" fill="#3B3B3B"/>
</g>
<g opacity="0.2">
<path d="M192.185 136.971C190.116 136.564 188.046 137.717 186.492 139.142C184.938 140.567 183.665 142.31 181.939 143.52C180.212 144.731 177.778 145.305 176.02 144.14C174.047 142.833 173.816 140.096 172.872 137.926C171.857 135.595 169.606 133.666 167.064 133.66C164.522 133.655 162.063 136.09 162.57 138.581L162.608 140.088C163.278 147.754 168.45 154.857 175.539 157.85C182.628 160.843 191.326 159.594 197.286 154.728C199.21 153.157 200.933 151.074 201.173 148.602C201.345 146.82 200.714 145.033 199.742 143.528C198.771 142.024 197.474 140.761 196.177 139.526C195.016 138.421 193.758 137.279 192.185 136.971Z" fill="#3B3B3B"/>
</g>
<g opacity="0.2">
<path d="M203.259 137.236C203.223 137.276 203.161 137.278 203.121 137.242L196.242 130.915C196.202 130.878 196.199 130.816 196.236 130.776C196.273 130.737 196.335 130.734 196.375 130.771L203.253 137.097C203.293 137.134 203.296 137.196 203.259 137.236Z" fill="#3B3B3B"/>
</g>
<g opacity="0.2">
<path d="M193.048 150.225C193.012 150.265 192.95 150.268 192.91 150.231L186.031 143.905C185.991 143.868 185.988 143.806 186.025 143.766C186.062 143.726 186.124 143.723 186.164 143.76L193.043 150.087C193.082 150.123 193.085 150.185 193.048 150.225Z" fill="#3B3B3B"/>
</g>
<g opacity="0.2">
<path d="M191.356 144.818C191.32 144.858 191.257 144.861 191.218 144.824L184.339 138.498C184.299 138.461 184.296 138.399 184.333 138.359C184.369 138.319 184.432 138.316 184.471 138.353L191.35 144.68C191.39 144.717 191.393 144.779 191.356 144.818Z" fill="#3B3B3B"/>
</g>
<g opacity="0.2">
<path d="M205.249 130.99C205.213 131.03 205.151 131.033 205.111 130.996L198.232 124.669C198.192 124.633 198.19 124.571 198.226 124.531C198.263 124.491 198.325 124.488 198.365 124.525L205.244 130.851C205.284 130.888 205.286 130.95 205.249 130.99Z" fill="#3B3B3B"/>
</g>
<g opacity="0.2">
<path d="M194.371 145.076C194.335 145.116 194.272 145.118 194.233 145.082L187.354 138.755C187.314 138.719 187.311 138.657 187.348 138.617C187.385 138.577 187.447 138.574 187.487 138.611L194.365 144.937C194.405 144.974 194.408 145.036 194.371 145.076Z" fill="#3B3B3B"/>
</g>
<g opacity="0.2">
<path d="M208.013 136.642C207.977 136.682 207.915 136.685 207.875 136.648L203.733 132.839C203.693 132.802 203.691 132.74 203.728 132.7C203.764 132.661 203.826 132.658 203.866 132.695L208.008 136.504C208.048 136.54 208.05 136.603 208.013 136.642Z" fill="#3B3B3B"/>
</g>
<g opacity="0.2">
<path d="M202.892 131.932C202.855 131.972 202.793 131.974 202.753 131.938L195.874 125.611C195.835 125.574 195.832 125.512 195.869 125.472C195.905 125.433 195.967 125.43 196.007 125.467L202.886 131.793C202.926 131.83 202.929 131.892 202.892 131.932Z" fill="#3B3B3B"/>
</g>
<g opacity="0.2">
<path d="M186.924 105.745C186.888 105.785 186.825 105.787 186.786 105.75L175.838 95.6816C175.798 95.645 175.796 95.5829 175.832 95.543C175.869 95.5032 175.931 95.5006 175.971 95.5372L186.918 105.606C186.958 105.643 186.961 105.705 186.924 105.745Z" fill="#3B3B3B"/>
</g>
<g opacity="0.2">
<path d="M191.336 117.459C191.3 117.499 191.238 117.502 191.198 117.465L180.25 107.396C180.211 107.36 180.208 107.298 180.245 107.258C180.281 107.218 180.343 107.215 180.383 107.252L191.331 117.321C191.37 117.357 191.373 117.419 191.336 117.459Z" fill="#3B3B3B"/>
</g>
<g opacity="0.2">
<path d="M172.402 134.059C172.365 134.099 172.303 134.102 172.263 134.065L161.316 123.997C161.276 123.96 161.274 123.898 161.31 123.858C161.347 123.818 161.409 123.816 161.449 123.852L172.396 133.921C172.436 133.957 172.439 134.019 172.402 134.059Z" fill="#3B3B3B"/>
</g>
<g opacity="0.2">
<path d="M168.64 128.413C168.603 128.452 168.541 128.455 168.501 128.418L161.625 122.094C161.585 122.057 161.582 121.995 161.619 121.955C161.656 121.916 161.718 121.913 161.758 121.95L168.634 128.274C168.674 128.311 168.676 128.373 168.64 128.413Z" fill="#3B3B3B"/>
</g>
<g opacity="0.2">
<path d="M168.329 137.452C168.292 137.491 168.23 137.494 168.19 137.457L161.314 131.133C161.274 131.097 161.272 131.035 161.309 130.995C161.345 130.955 161.407 130.952 161.447 130.989L168.323 137.313C168.363 137.35 168.366 137.412 168.329 137.452Z" fill="#3B3B3B"/>
</g>
<g opacity="0.2">
<path d="M171.17 137.361C171.134 137.401 171.072 137.403 171.032 137.367L164.156 131.043C164.116 131.006 164.113 130.944 164.15 130.904C164.187 130.864 164.249 130.862 164.288 130.898L171.165 137.222C171.204 137.259 171.207 137.321 171.17 137.361Z" fill="#3B3B3B"/>
</g>
<g opacity="0.2">
<path d="M167.506 94.1357C167.47 94.1755 167.408 94.1781 167.368 94.1414L160.492 87.8174C160.452 87.7807 160.449 87.7186 160.486 87.6788C160.523 87.6389 160.585 87.6363 160.624 87.673L167.501 93.997C167.54 94.0337 167.543 94.0961 167.506 94.1357Z" fill="#3B3B3B"/>
</g>
<g opacity="0.2">
<path d="M185.209 115.783C185.172 115.823 185.11 115.825 185.07 115.789L178.194 109.465C178.154 109.428 178.152 109.366 178.188 109.326C178.225 109.286 178.287 109.284 178.327 109.32L185.203 115.644C185.243 115.681 185.245 115.743 185.209 115.783Z" fill="#3B3B3B"/>
</g>
<g opacity="0.2">
<path d="M145.929 112.2C145.892 112.24 145.83 112.243 145.79 112.206L142.169 108.875C142.129 108.839 142.126 108.776 142.163 108.737C142.2 108.697 142.262 108.694 142.302 108.731L145.923 112.061C145.962 112.098 145.965 112.16 145.929 112.2Z" fill="#3B3B3B"/>
</g>
<g opacity="0.2">
<path d="M158.851 126.716C158.814 126.756 158.752 126.759 158.712 126.722L146.886 115.845C146.846 115.809 146.843 115.747 146.88 115.707C146.917 115.667 146.979 115.664 147.019 115.701L158.845 126.578C158.885 126.614 158.887 126.676 158.851 126.716Z" fill="#3B3B3B"/>
</g>
<g opacity="0.2">
<path d="M191.555 115.092C191.518 115.132 191.456 115.134 191.416 115.098L173.284 98.4209C173.244 98.3842 173.241 98.3221 173.278 98.2823C173.315 98.2424 173.377 98.2398 173.417 98.2765L191.549 114.953C191.589 114.99 191.592 115.052 191.555 115.092Z" fill="#3B3B3B"/>
</g>
<path d="M186.061 135.471L186.06 135.472C186.005 135.531 185.912 135.535 185.853 135.479L100.234 55.7145C98.8622 53.7255 96.7891 50.7418 96.6135 50.5739C96.5548 50.5183 96.5459 50.4242 96.6076 50.3658C96.6632 50.3071 96.7555 50.3035 96.8145 50.3588C97.0605 50.5888 100.109 55.019 100.456 55.5231L186.053 135.263C186.112 135.319 186.116 135.411 186.061 135.471Z" fill="#3B3B3B"/>
<path d="M187.439 133.973C187.383 134.033 187.29 134.037 187.231 133.981L101.502 54.6249C101.002 54.1703 89.2313 43.4727 88.9914 43.2489C88.9324 43.1936 88.9288 43.1012 88.9835 43.0417C88.9838 43.0414 88.9841 43.0412 88.9843 43.0409C89.0399 42.9816 89.1331 42.9783 89.1923 43.0338C89.4308 43.2563 101.578 54.2968 101.701 54.408L187.431 133.765C187.49 133.82 187.494 133.913 187.439 133.973Z" fill="#3B3B3B"/>
<path d="M188.817 132.475C188.762 132.535 188.668 132.539 188.609 132.484L102.767 53.6742C101.831 53.0026 93.4951 47.0073 93.2537 46.7816C93.1945 46.7266 93.1918 46.6345 93.2465 46.575L93.2467 46.5747C93.3015 46.5152 93.3949 46.5116 93.4544 46.5663C93.6678 46.7615 100.383 51.5986 102.952 53.4462L188.808 132.267C188.868 132.322 188.872 132.415 188.817 132.475Z" fill="#3B3B3B"/>
<path d="M190.195 130.977C190.14 131.036 190.047 131.041 189.988 130.986L103.523 52.542C102.103 50.4458 99.9594 47.304 99.7803 47.1306C99.7221 47.0745 99.7194 46.984 99.7752 46.9228C99.8308 46.8641 99.9226 46.8606 99.9815 46.9159C100.228 47.1464 103.385 51.8187 103.744 52.3508L190.185 130.768C190.245 130.823 190.25 130.916 190.195 130.976L190.195 130.977Z" fill="#3B3B3B"/>
<path d="M191.572 129.479C191.518 129.538 191.426 129.543 191.366 129.489L104.719 51.5545C104.594 51.4358 92.582 39.9889 92.3436 39.7664C92.284 39.7112 92.2807 39.6185 92.3354 39.559L92.3362 39.5582C92.3915 39.4986 92.4844 39.4956 92.544 39.5509C92.7836 39.7744 104.423 50.8658 104.919 51.3384L191.563 129.27C191.623 129.324 191.628 129.417 191.573 129.478L191.572 129.479Z" fill="#3B3B3B"/>
<path d="M192.95 127.981C192.896 128.04 192.804 128.045 192.744 127.991L105.708 50.4802C105.345 50.201 96.62 43.4831 96.3764 43.2553C96.3174 43.2 96.3138 43.1077 96.3685 43.0482L96.3693 43.0473C96.4246 42.9878 96.5181 42.9847 96.5774 43.0403C96.7644 43.2149 102.754 47.8352 105.896 50.2537L192.94 127.772C193 127.826 193.006 127.919 192.952 127.979C192.951 127.98 192.951 127.98 192.95 127.981Z" fill="#3B3B3B"/>
<g opacity="0.2">
<path d="M199.51 121.34L179.881 142.682C179.254 143.364 178.192 143.409 177.51 142.781L177.183 142.48L199.127 118.621L199.407 118.879C200.115 119.53 200.161 120.632 199.51 121.34Z" fill="#3B3B3B"/>
</g>
</svg>
