<svg width="440" height="440" viewBox="0 0 440 440" fill="none" xmlns="http://www.w3.org/2000/svg">
<g clip-path="url(#clip0_3_186)">
<path fill-rule="evenodd" clip-rule="evenodd" d="M413.082 258.205L412.403 260.99L411.697 263.756L410.966 266.504L410.209 269.234L409.428 271.945L408.623 274.639L407.795 277.314L406.943 279.972L406.069 282.612L405.173 285.234L404.255 287.84L403.316 290.427L402.355 292.998L401.373 295.552L400.369 298.088L399.344 300.608L398.298 303.111L397.23 305.598L396.141 308.067L395.03 310.52L393.896 312.956L392.739 315.375L391.559 317.776L390.356 320.16L389.129 322.527L387.877 324.875L386.599 327.205L385.297 329.516L383.968 331.808L382.612 334.079L381.23 336.331L379.82 338.562L378.382 340.771L376.915 342.958L375.421 345.122L373.897 347.263L372.345 349.379L370.764 351.472L369.154 353.539L367.515 355.58L365.848 357.596L364.153 359.584L362.43 361.546L360.68 363.48L358.903 365.386L357.099 367.264L355.27 369.113L353.414 370.933L351.533 372.723L349.627 374.484L347.697 376.214L345.743 377.913L343.765 379.581L341.765 381.218L339.742 382.823L337.698 384.397L335.632 385.938L333.546 387.447L331.44 388.923L329.315 390.367L327.171 391.778L325.01 393.156L322.831 394.5L320.635 395.812L318.423 397.091L316.196 398.336L313.954 399.549L311.698 400.728L309.429 401.875L307.146 402.988L304.852 404.069L302.546 405.116L300.229 406.131L297.902 407.113L295.565 408.062L293.217 408.978L290.861 409.861L288.496 410.71L286.122 411.525L283.741 412.306L281.351 413.053L278.955 413.765L276.551 414.441L274.141 415.081L271.725 415.685L269.303 416.252L266.875 416.782L264.443 417.273L262.007 417.726L259.567 418.139L257.123 418.513L254.677 418.846L252.229 419.138L249.78 419.388L247.33 419.597L244.88 419.763L242.432 419.885L239.984 419.965L237.54 420L235.099 419.991L232.662 419.938L230.23 419.841L227.805 419.698L225.387 419.511L222.977 419.28L220.576 419.004L218.185 418.685L215.806 418.321L213.438 417.915L211.083 417.466L208.742 416.976L206.416 416.445L204.105 415.874L201.811 415.265L199.533 414.619L197.274 413.937L195.032 413.221L192.809 412.472L190.605 411.692L188.42 410.881L186.255 410.042L184.11 409.176L181.984 408.284L179.879 407.368L177.793 406.429L175.728 405.469L173.682 404.489L171.656 403.491L169.649 402.475L167.661 401.444L165.691 400.398L163.739 399.339L161.805 398.268L159.887 397.187L157.985 396.095L156.099 394.995L154.228 393.888L152.37 392.774L150.525 391.655L148.693 390.531L146.871 389.403L145.06 388.272L143.258 387.139L141.464 386.004L139.678 384.868L137.897 383.73L136.122 382.593L134.351 381.454L132.584 380.315L130.82 379.175L129.057 378.034L127.296 376.891L125.536 375.747L123.776 374.599L122.016 373.448L120.255 372.294L118.494 371.134L116.731 369.969L114.968 368.797L113.203 367.617L111.438 366.429L109.671 365.231L107.903 364.023L106.135 362.803L104.366 361.57L102.598 360.324L100.83 359.064L99.0627 357.788L97.2972 356.495L95.5337 355.185L93.773 353.856L92.0157 352.508L90.2626 351.14L88.5143 349.751L86.7716 348.341L85.0353 346.908L83.3063 345.452L81.5854 343.972L79.8734 342.468L78.1711 340.94L76.4794 339.386L74.7991 337.806L73.1311 336.201L71.4761 334.569L69.8349 332.91L68.2083 331.225L66.597 329.512L65.0016 327.773L63.4229 326.006L61.8615 324.212L60.318 322.391L58.7933 320.542L57.2879 318.666L55.8027 316.762L54.3382 314.832L52.8952 312.874L51.4745 310.888L50.0767 308.876L48.7026 306.837L47.353 304.771L46.0285 302.678L44.7299 300.558L43.4579 298.413L42.2133 296.241L40.9969 294.043L39.8093 291.82L38.6512 289.571L37.5234 287.297L36.4266 284.999L35.3615 282.676L34.3288 280.33L33.329 277.96L32.3629 275.567L31.4311 273.151L30.5341 270.712L29.6726 268.253L28.847 265.771L28.0579 263.269L27.3057 260.747L26.5907 258.205L25.9131 255.644L25.2732 253.063L24.6709 250.465L24.1064 247.849L23.5794 245.215L23.09 242.565L22.6378 239.898L22.2227 237.216L21.8444 234.517L21.5024 231.803L21.1965 229.074L20.9263 226.33L20.6914 223.572L20.4913 220.799L20.3256 218.011L20.1941 215.21L20.0961 212.394L20.0316 209.563L20 206.719L20.0012 203.86L20.0349 200.987L20.1011 198.1L20.1996 195.198L20.3304 192.282L20.4936 189.351L20.6894 186.406L20.9181 183.446L21.18 180.471L21.4757 177.483L21.8057 174.479L22.1707 171.462L22.5715 168.431L23.0092 165.386L23.4847 162.328L23.9992 159.257L24.554 156.175L25.1505 153.082L25.7902 149.978L26.4747 146.866L27.2057 143.745L27.985 140.618L28.8144 137.487L29.6958 134.352L30.631 131.216L31.6216 128.081L32.6693 124.948L33.7759 121.82L34.9428 118.699L36.1716 115.587L37.4635 112.487L38.8199 109.401L40.242 106.332L41.7308 103.283L43.2872 100.255L44.9121 97.2524L46.6061 94.277L48.3699 91.332L50.2037 88.42L52.1078 85.5439L54.0824 82.7065L56.1273 79.9104L58.2424 77.1586L60.4273 74.4536L62.6815 71.7981L65.0044 69.1947L67.395 66.646L69.8525 64.1544L72.3757 61.7222L74.9634 59.3517L77.6141 57.0451L80.3263 54.8043L83.0984 52.6313L85.9285 50.5276L88.8147 48.4948L91.7547 46.5342L94.7466 44.6467L97.7878 42.8332L100.876 41.0945L104.009 39.4308L107.184 37.8425L110.399 36.3296L113.651 34.892L116.937 33.5292L120.255 32.2408L123.603 31.0261L126.977 29.8841L130.376 28.8139L133.798 27.8143L137.239 26.8839L140.698 26.0214L144.172 25.2252L147.659 24.4935L151.159 23.8248L154.667 23.2171L158.184 22.6687L161.707 22.1776L165.235 21.7419L168.767 21.3596L172.3 21.0288L175.835 20.7476L179.37 20.514L182.904 20.3264L186.437 20.1828L189.968 20.0816L193.496 20.0211L197.02 20L200.542 20.0168L204.06 20.0702L207.573 20.1592L211.083 20.2829L214.589 20.4403L218.09 20.6311L221.587 20.8546L225.08 21.1107L228.569 21.3993L232.053 21.7205L235.534 22.0744L239.009 22.4613L242.481 22.8816L245.947 23.3356L249.409 23.824L252.866 24.3473L256.318 24.9062L259.764 25.5014L263.204 26.1339L266.638 26.8044L270.065 27.514L273.484 28.2635L276.895 29.054L280.297 29.8867L283.689 30.7624L287.071 31.6824L290.441 32.6477L293.798 33.6595L297.142 34.7187L300.47 35.8265L303.782 36.984L307.076 38.1922L310.351 39.4519L313.605 40.7643L316.836 42.13L320.044 43.5501L323.225 45.0251L326.38 46.5559L329.505 48.1429L332.598 49.7867L335.659 51.4876L338.685 53.2457L341.675 55.0612L344.626 56.934L347.537 58.864L350.406 60.8509L353.231 62.8942L356.011 64.9936L358.744 67.1482L361.428 69.3575L364.062 71.6206L366.644 73.9366L369.173 76.3044L371.648 78.7229L374.067 81.1909L376.428 83.7072L378.732 86.2704L380.976 88.8791L383.16 91.5317L385.283 94.2267L387.344 96.9626L389.343 99.7377L391.278 102.55L393.149 105.399L394.955 108.281L396.697 111.195L398.374 114.14L399.986 117.114L401.532 120.114L403.012 123.139L404.428 126.188L405.778 129.257L407.062 132.346L408.282 135.453L409.438 138.575L410.529 141.712L411.556 144.861L412.52 148.021L413.422 151.189L414.262 154.365L415.04 157.547L415.758 160.733L416.416 163.922L417.015 167.112L417.556 170.303L418.039 173.491L418.467 176.677L418.839 179.858L419.158 183.034L419.423 186.204L419.637 189.365L419.8 192.518L419.914 195.661L419.981 198.793L420 201.914L419.974 205.021L419.904 208.116L419.791 211.196L419.636 214.262L419.441 217.312L419.207 220.346L418.935 223.364L418.627 226.366L418.282 229.35L417.903 232.316L417.491 235.266L417.046 238.197L416.569 241.11L416.061 244.005L415.523 246.882L414.956 249.74L414.359 252.58L413.735 255.402L413.082 258.205Z" fill="url(#paint0_linear_3_186)"/>
<path d="M347.461 302.306C340.619 293.017 331.722 286.357 321.209 281.765C315.803 279.404 310.884 276.859 307.138 272.163C303.786 267.961 301.707 262.951 299.968 257.908C296.322 247.339 294.124 236.264 287.998 226.732C277.438 210.299 257.799 200.745 238.48 200.973C234.462 201.019 230.483 201.584 226.586 202.53C213.086 174.153 199.586 145.775 186.086 117.399C179.16 102.839 172.232 88.2792 165.306 73.7192C164.567 72.1674 163.749 70.6291 163.122 69.0276C162.993 68.6976 162.908 67.9582 162.734 67.6236C163.225 67.1189 163.651 66.6756 164.493 65.8037C165.607 64.6498 166.777 63.497 167.538 62.0653C169.026 59.2659 168.516 56.3117 167.175 53.5729C165.556 50.2668 163.824 47.009 162.08 43.7673C158.498 37.1125 154.737 30.5579 151.066 23.9523C149.209 20.61 147.374 17.254 145.595 13.8683C144.073 10.9721 142.791 6.66272 139.907 4.82198C137.788 3.46948 134.694 3.75516 132.314 4.15677C128.775 4.75373 125.227 5.90072 121.896 7.22254C114.975 9.96845 107.713 14.1831 102.913 20.0095C100.628 22.7842 100.306 26.0324 101.566 29.2561C102.377 31.3276 103.187 33.3984 103.997 35.4699C106.725 42.4457 109.454 49.4211 112.183 56.3973C114.462 62.2232 116.74 68.0494 119.019 73.8753C119.751 75.7451 120.428 77.6188 121.778 79.1663C125.161 83.045 129.836 82.9323 134.51 82.8617C135.101 82.8527 135.692 82.8438 136.283 82.8348C143.38 97.7803 150.477 112.726 157.575 127.672C169.324 152.415 181.074 177.16 192.824 201.903C195.116 206.729 197.407 211.555 199.699 216.381C185.732 228.444 178.168 247.548 179.501 265.899C180.262 276.367 184.067 285.61 189.837 294.286C195.995 303.545 204.131 312.252 206.863 323.315C208.27 329.016 207.032 334.482 205.65 340.043C204.294 345.504 203.433 351.019 203.526 356.66C203.711 367.864 207.079 378.989 212.442 388.776C217.169 397.403 222.517 406.103 229.474 413.124C236.102 419.813 243.655 425.338 252.24 429.241C255.102 430.543 258.136 431.581 261.115 432.57C266.182 434.251 271.585 434.566 276.895 434.667C284.427 434.808 291.948 433.897 299.293 432.255C322.091 427.159 342.458 411.869 355.363 392.544C361.231 383.759 364.566 373.777 364.916 363.178C365.251 353.032 364.115 342.499 361.499 332.692C358.613 321.888 354.115 311.339 347.461 302.306Z" fill="#EDDAC4"/>
<path d="M259.313 263.343C256.416 262.967 253.183 262.543 250.341 263.037C243.85 264.166 238.292 268.013 233.427 272.275C233.247 272.421 233.09 272.558 232.993 272.649C232.87 272.758 232.699 272.934 232.521 273.144C224.784 280.963 224.506 294.385 229.465 304.809C235.194 316.851 248.572 321.876 260.078 319.003C272.335 315.943 280.854 303.705 280.928 290.405C281.002 277.039 272.458 265.051 259.313 263.343Z" fill="#DEB841"/>
<path d="M101.918 33.8032C101.895 33.7734 101.869 33.7477 101.843 33.7219C101.804 33.6835 101.766 33.648 101.721 33.6169C101.698 33.6002 101.673 33.585 101.648 33.5709C101.59 33.5372 101.529 33.5083 101.464 33.4857C101.458 33.4841 101.452 33.4813 101.446 33.4797C101.196 33.3962 100.912 33.3971 100.645 33.4879C100.644 33.4886 100.643 33.489 100.642 33.4897C100.605 33.5023 100.568 33.5096 100.532 33.5256C100.523 33.5299 100.513 33.5341 100.504 33.5384C100.381 33.5825 100.262 33.6362 100.153 33.7024C97.4894 34.9674 94.9213 36.8752 94.2718 39.9263C93.9951 41.228 94.0277 42.6917 94.6451 43.8968C95.2579 45.0938 96.2741 46.0107 97.5475 46.4618C98.887 46.9354 100.298 46.9434 101.69 46.7148C102.377 46.6015 103.124 46.496 103.781 46.2581C104.866 45.8645 105.782 44.7803 105.716 43.5886C105.676 42.8706 105.356 42.1681 105.128 41.4968C104.872 40.7415 104.616 39.9859 104.36 39.2314C104.18 38.6987 103.985 38.2164 103.751 37.7087C103.185 36.4776 102.619 35.2476 102.053 34.0165C102.033 33.9733 102.005 33.9418 101.982 33.9038C101.961 33.8673 101.942 33.8338 101.918 33.8032Z" fill="#DEB841"/>
<path d="M107.358 49.1157C107.334 49.0859 107.308 49.0601 107.282 49.0343C107.245 48.9955 107.205 48.9605 107.161 48.9294C107.137 48.9127 107.113 48.8974 107.087 48.8833C107.029 48.8496 106.968 48.8207 106.903 48.7978C106.897 48.7961 106.891 48.7934 106.884 48.7917C106.634 48.7083 106.35 48.7091 106.083 48.8003C106.082 48.801 106.081 48.8014 106.079 48.8013C106.042 48.8139 106.005 48.8212 105.969 48.8372C105.96 48.8414 105.951 48.8457 105.942 48.85C105.818 48.8942 105.7 48.9478 105.59 49.0141C102.927 50.279 100.359 52.1869 99.7091 55.2379C99.4324 56.5396 99.4658 58.003 100.082 59.2084C100.695 60.4054 101.711 61.3224 102.985 61.7734C104.324 62.2471 105.735 62.2551 107.126 62.0269C107.814 61.9135 108.561 61.8079 109.218 61.5701C110.303 61.1765 111.218 60.0923 111.152 58.9006C111.112 58.1826 110.793 57.4801 110.565 56.8087C110.308 56.0535 110.053 55.2978 109.797 54.5433C109.616 54.0107 109.421 53.5284 109.188 53.0207C108.622 51.7896 108.056 50.5596 107.49 49.3285C107.47 49.2849 107.442 49.2538 107.418 49.2158C107.401 49.1797 107.381 49.1462 107.358 49.1157Z" fill="#DEB841"/>
<path d="M163.839 23.1167C163.144 21.9693 162 21.2539 160.729 20.8978C159.325 20.5035 157.863 20.7093 156.477 21.0741C154.864 21.4977 152.557 22.237 152.72 24.3239C152.774 25.024 153.155 25.6552 153.445 26.2779C153.814 27.0667 154.181 27.8551 154.549 28.6442C154.824 29.235 155.134 29.778 155.468 30.3343C156.129 31.4354 156.79 32.5377 157.451 33.6388C157.48 33.692 157.506 33.7474 157.542 33.7906C157.543 33.7944 157.546 33.7971 157.547 33.8009C157.716 34.0817 158.233 34.1324 158.507 34.1013C158.749 34.0744 159.008 33.9762 159.244 33.8468C159.264 33.8367 159.286 33.8272 159.305 33.8164C159.346 33.7923 159.388 33.7656 159.429 33.7408C159.432 33.7383 159.435 33.7368 159.439 33.735C161.999 32.1958 164.283 30.0091 164.638 26.899C164.789 25.5796 164.526 24.2526 163.839 23.1167Z" fill="#DEB841"/>
<path d="M152.164 19.22C152.184 19.2088 152.207 19.2 152.225 19.1896C152.267 19.1651 152.307 19.1388 152.349 19.1136C152.352 19.1114 152.355 19.11 152.358 19.1086C154.918 17.5693 157.203 15.3823 157.557 12.2726C157.708 10.9543 157.446 9.62687 156.758 8.49018C156.063 7.34283 154.919 6.62739 153.649 6.27126C152.244 5.87696 150.782 6.08284 149.396 6.44763C147.783 6.87127 145.477 7.6105 145.639 9.69744C145.694 10.3975 146.074 11.0288 146.364 11.6514C146.732 12.4406 147.1 13.2286 147.468 14.0178C147.743 14.6086 148.053 15.1516 148.387 15.7078C149.048 16.809 149.708 17.9105 150.37 19.0116C150.398 19.0648 150.425 19.1209 150.461 19.1642C150.462 19.1672 150.465 19.1707 150.466 19.1745C150.635 19.4553 151.152 19.506 151.426 19.4749C151.67 19.4472 151.928 19.3491 152.164 19.22Z" fill="#DEB841"/>
<path d="M122.533 34.553C131.604 53.2665 140.531 72.0503 149.412 90.855C159.348 111.893 169.217 132.963 179.058 154.046C188.573 174.43 198.061 194.828 207.546 215.227C215.49 232.313 223.429 249.401 231.405 266.472C236.441 277.251 241.453 288.044 246.647 298.749C247.018 299.514 247.39 300.277 247.765 301.039C248.144 301.809 250.217 301.25 249.764 300.328C244.946 290.54 240.362 280.634 235.739 270.753C228.029 254.281 220.366 237.788 212.697 221.296C203.331 201.154 193.966 181.012 184.577 160.881C174.706 139.718 164.811 118.567 154.854 97.4445C145.834 78.3099 136.771 59.1956 127.578 40.1432C126.564 38.0423 125.549 35.942 124.531 33.8429C124.157 33.0704 122.085 33.6277 122.533 34.553Z" fill="#DEB841"/>
<path d="M128.039 31.6376C137.11 50.351 146.037 69.1348 154.918 87.9395C164.854 108.978 174.723 130.047 184.563 151.13C194.079 171.515 203.567 191.912 213.052 212.312C220.996 229.397 228.935 246.486 236.911 263.557C241.947 274.335 246.959 285.129 252.152 295.834C252.523 296.598 252.895 297.361 253.27 298.124C253.574 298.74 255.608 298.163 255.406 297.754C250.588 287.967 246.005 278.06 241.381 268.18C233.672 251.708 226.008 235.214 218.34 218.723C208.974 198.581 199.609 178.439 190.22 158.307C180.349 137.144 170.454 115.994 160.497 94.8709C151.478 75.7363 142.414 56.622 133.221 37.5696C132.207 35.4687 131.192 33.3684 130.174 31.2692C129.876 30.6505 127.839 31.224 128.039 31.6376Z" fill="#DEB841"/>
<path d="M132.966 29.211C142.037 47.9245 150.965 66.7083 159.845 85.513C169.781 106.551 179.65 127.621 189.491 148.703C199.007 169.088 208.494 189.486 217.979 209.885C225.924 226.971 233.862 244.059 241.838 261.13C246.874 271.909 251.887 282.702 257.079 293.407C257.45 294.171 257.822 294.935 258.197 295.696C258.477 296.265 260.499 295.663 260.334 295.328C255.516 285.54 250.932 275.634 246.308 265.754C238.599 249.281 230.935 232.788 223.267 216.296C213.901 196.154 204.537 176.012 195.147 155.881C185.276 134.718 175.381 113.568 165.424 92.4448C156.404 73.3101 147.341 54.1958 138.148 35.1435C137.134 33.0425 136.118 30.9423 135.101 28.8431C134.826 28.274 132.801 28.8711 132.966 29.211Z" fill="#DEB841"/>
<path d="M113.31 63.719C113.287 63.6892 113.261 63.6634 113.235 63.6377C113.197 63.5992 113.158 63.5638 113.114 63.5327C113.09 63.516 113.065 63.5008 113.04 63.4866C112.982 63.453 112.921 63.4241 112.856 63.4011C112.849 63.3994 112.843 63.3967 112.837 63.395C112.587 63.3116 112.303 63.3124 112.036 63.4036C112.034 63.4043 112.034 63.4047 112.032 63.4054C111.995 63.418 111.958 63.4253 111.923 63.4409C111.914 63.4452 111.905 63.4495 111.896 63.4538C111.773 63.4976 111.653 63.5508 111.544 63.6178C108.881 64.8827 106.313 66.7906 105.663 69.8417C105.386 71.1433 105.42 72.6068 106.036 73.8121C106.649 75.0092 107.665 75.9261 108.939 76.3771C110.278 76.8508 111.689 76.8588 113.08 76.6306C113.768 76.5172 114.515 76.4117 115.172 76.1739C116.257 75.7802 117.172 74.6961 117.106 73.5044C117.066 72.7863 116.747 72.0838 116.52 71.4121C116.263 70.6569 116.008 69.9012 115.751 69.1467C115.571 68.6141 115.376 68.1318 115.142 67.6241C114.577 66.393 114.01 65.163 113.445 63.9319C113.424 63.8886 113.397 63.8572 113.373 63.8191C113.353 63.783 113.333 63.7499 113.31 63.719Z" fill="#DEB841"/>
<path d="M171.786 36.7375C171.091 35.5901 169.947 34.8747 168.676 34.5186C167.272 34.1243 165.81 34.3302 164.424 34.6949C162.811 35.1186 160.505 35.8578 160.667 37.9448C160.721 38.6448 161.102 39.2761 161.392 39.8988C161.76 40.6879 162.128 41.4759 162.496 42.2651C162.771 42.8559 163.081 43.3988 163.415 43.9551C164.076 45.0563 164.737 46.1585 165.398 47.2597C165.427 47.3129 165.453 47.3683 165.489 47.4115C165.49 47.4153 165.493 47.418 165.494 47.4218C165.663 47.7026 166.18 47.7533 166.454 47.7222C166.696 47.6952 166.955 47.5971 167.191 47.4676C167.211 47.4576 167.233 47.4481 167.252 47.4373C167.293 47.4132 167.335 47.3865 167.376 47.3617C167.379 47.3591 167.382 47.3577 167.385 47.3555C169.944 45.8162 172.229 43.6296 172.584 40.5195C172.735 39.2008 172.473 37.8734 171.786 36.7375Z" fill="#DEB841"/>
</g>
<defs>
<linearGradient id="paint0_linear_3_186" x1="-234.756" y1="120.601" x2="-381.672" y2="-251.441" gradientUnits="userSpaceOnUse">
<stop stop-color="#3B3B3B"/>
</linearGradient>
<clipPath id="clip0_3_186">
<rect width="440" height="440" fill="white"/>
</clipPath>
</defs>
</svg>
