<svg width="16" height="16" viewBox="0 0 16 16" fill="none" xmlns="http://www.w3.org/2000/svg">
<line y1="1.664" x2="16" y2="1.664" stroke="white" stroke-width="0.4"/>
<line y1="4.224" x2="16" y2="4.224" stroke="white" stroke-width="0.4"/>
<line y1="6.784" x2="16" y2="6.784" stroke="white" stroke-width="0.4"/>
<line y1="9.344" x2="16" y2="9.344" stroke="white" stroke-width="0.4"/>
<line y1="11.904" x2="16" y2="11.904" stroke="white" stroke-width="0.4"/>
<path d="M12.84 7.42211C13.0937 7.90028 12.7188 8.59888 12.0022 8.98216C11.2852 9.36627 10.4982 9.28962 10.2436 8.81124C9.98966 8.33287 10.3646 7.63426 11.082 7.25098C11.7986 6.86729 12.5856 6.94394 12.84 7.42211Z" fill="#DEB841"/>
<path d="M12.9194 1H12.6545V7.77577H12.9194V1Z" fill="#DEB841"/>
<path d="M5.44372 12.9901C5.69745 13.4683 5.32253 14.1669 4.60593 14.5502C3.88891 14.9343 3.10191 14.8576 2.84736 14.3792C2.59342 13.9009 2.96834 13.2023 3.68576 12.819C4.40236 12.4353 5.18937 12.5119 5.44372 12.9901Z" fill="#DEB841"/>
<path d="M5.52318 6.56801H5.2583V13.3438H5.52318V6.56801Z" fill="#DEB841"/>
<path d="M6.59038 13.6121H1.94208V13.9073H6.59038V13.6121Z" fill="#DEB841"/>
</svg>
