<svg width="204" height="52" viewBox="0 0 204 52" fill="none" xmlns="http://www.w3.org/2000/svg">
<line x1="8" y1="9.5" x2="58" y2="9.5" stroke="white"/>
<line x1="8" y1="17.5" x2="58" y2="17.5" stroke="white"/>
<line x1="8" y1="25.5" x2="58" y2="25.5" stroke="white"/>
<line x1="8" y1="33.5" x2="58" y2="33.5" stroke="white"/>
<line x1="8" y1="41.5" x2="58" y2="41.5" stroke="white"/>
<path d="M48.1248 27.3691C48.9177 28.8634 47.7461 31.0465 45.5067 32.2443C43.2661 33.4446 40.8067 33.2051 40.0112 31.7101C39.2176 30.2152 40.3893 28.0321 42.6312 26.8343C44.8706 25.6353 47.33 25.8748 48.1248 27.3691Z" fill="#DEB841"/>
<path d="M48.3732 7.3H47.5455V28.4743H48.3732V7.3Z" fill="#DEB841"/>
<path d="M25.0115 44.7691C25.8044 46.2634 24.6328 48.4465 22.3934 49.6443C20.1528 50.8446 17.6934 50.6051 16.8979 49.1101C16.1043 47.6152 17.276 45.4321 19.5179 44.2343C21.7573 43.0353 24.2167 43.2748 25.0115 44.7691Z" fill="#DEB841"/>
<path d="M25.2599 24.7H24.4322V45.8743H25.2599V24.7Z" fill="#DEB841"/>
<path d="M28.5949 46.7127H14.069V47.6353H28.5949V46.7127Z" fill="#DEB841"/>
<path d="M92.32 38.6V14.56H78.92L78.68 21.36C78.6 23.4667 78.4667 25.4933 78.28 27.44C78.12 29.36 77.8533 31.0933 77.48 32.64C77.1333 34.16 76.6533 35.4 76.04 36.36C75.4533 37.32 74.68 37.88 73.72 38.04L70.48 37.44C71.5467 37.4933 72.4267 37.1067 73.12 36.28C73.84 35.4533 74.3867 34.2933 74.76 32.8C75.16 31.3067 75.4533 29.56 75.64 27.56C75.8267 25.56 75.96 23.4 76.04 21.08L76.36 12H95.24V38.6H92.32ZM69.44 46.28L69.48 37.44H99.44V46.28H96.68V40H72.24L72.2 46.28H69.44ZM117.758 40.24C115.651 40.24 113.691 39.8933 111.878 39.2C110.091 38.48 108.531 37.48 107.198 36.2C105.891 34.8933 104.864 33.3867 104.118 31.68C103.398 29.9467 103.038 28.0533 103.038 26C103.038 23.9467 103.398 22.0667 104.118 20.36C104.864 18.6267 105.891 17.12 107.198 15.84C108.531 14.5333 110.091 13.5333 111.878 12.84C113.664 12.12 115.624 11.76 117.758 11.76C119.864 11.76 121.811 12.12 123.598 12.84C125.384 13.5333 126.931 14.52 128.238 15.8C129.571 17.08 130.598 18.5867 131.318 20.32C132.064 22.0533 132.438 23.9467 132.438 26C132.438 28.0533 132.064 29.9467 131.318 31.68C130.598 33.4133 129.571 34.92 128.238 36.2C126.931 37.48 125.384 38.48 123.598 39.2C121.811 39.8933 119.864 40.24 117.758 40.24ZM117.758 37.6C119.438 37.6 120.984 37.32 122.398 36.76C123.838 36.1733 125.078 35.36 126.118 34.32C127.184 33.2533 128.011 32.0267 128.598 30.64C129.184 29.2267 129.478 27.68 129.478 26C129.478 24.32 129.184 22.7867 128.598 21.4C128.011 19.9867 127.184 18.76 126.118 17.72C125.078 16.6533 123.838 15.84 122.398 15.28C120.984 14.6933 119.438 14.4 117.758 14.4C116.078 14.4 114.518 14.6933 113.078 15.28C111.638 15.84 110.384 16.6533 109.318 17.72C108.278 18.76 107.451 19.9867 106.838 21.4C106.251 22.7867 105.958 24.32 105.958 26C105.958 27.6533 106.251 29.1867 106.838 30.6C107.451 32.0133 108.278 33.2533 109.318 34.32C110.384 35.36 111.638 36.1733 113.078 36.76C114.518 37.32 116.078 37.6 117.758 37.6Z" fill="white"/>
<path d="M136.68 40.24C136.307 40.24 135.947 40.2133 135.6 40.16C135.253 40.1333 134.867 40.0667 134.44 39.96L134.68 37.32C135.133 37.4267 135.573 37.48 136 37.48C137.2 37.48 138.16 37.0133 138.88 36.08C139.627 35.12 140.187 33.6533 140.56 31.68C140.933 29.68 141.173 27.12 141.28 24L141.68 12H160.68V40H157.76V13.76L158.52 14.56H143.56L144.28 13.72L143.92 23.92C143.813 26.72 143.613 29.1467 143.32 31.2C143.027 33.2267 142.6 34.92 142.04 36.28C141.48 37.6133 140.76 38.6133 139.88 39.28C139 39.92 137.933 40.24 136.68 40.24ZM187.046 40V30.72L187.846 31.52H178.686C176.446 31.52 174.526 31.1333 172.926 30.36C171.353 29.5867 170.14 28.4933 169.286 27.08C168.46 25.64 168.046 23.92 168.046 21.92C168.046 19.7867 168.5 17.9867 169.406 16.52C170.313 15.0267 171.593 13.9067 173.246 13.16C174.926 12.3867 176.873 12 179.086 12H189.966V40H187.046ZM168.046 40L174.926 30.16H177.966L171.206 40H168.046ZM187.046 29.88V13.72L187.846 14.56H179.206C176.593 14.56 174.566 15.1867 173.126 16.44C171.713 17.6667 171.006 19.4667 171.006 21.84C171.006 24.1333 171.673 25.9067 173.006 27.16C174.34 28.3867 176.313 29 178.926 29H187.846L187.046 29.88Z" fill="#DEB841"/>
</svg>
