<svg width="1428" height="439" viewBox="0 0 1428 439" fill="none" xmlns="http://www.w3.org/2000/svg">
<path opacity="0.1" d="M489.21 32.3294C481.15 29.7536 473.091 27.1785 465.031 24.6028C461.024 23.3227 457.017 22.0415 453.01 20.7614C451.342 20.2282 449.309 19.5311 447.989 21.135C447.535 21.687 447.23 22.3706 446.897 23.0002C446.605 23.5535 446.316 24.1087 446.031 24.6662C445.52 25.6632 445.021 26.667 444.527 27.6727C444.48 27.705 444.437 27.7431 444.403 27.7926C444.342 27.8795 444.328 27.9654 444.344 28.0478C442.291 32.2535 440.372 36.5265 438.517 40.8211C435.905 46.8617 433.431 52.9616 431.074 59.1054C429.23 63.9115 427.45 68.745 425.806 73.6233C424.674 71.9337 422.499 70.8132 420.681 70.1173C419.134 69.525 417.533 69.09 415.92 68.7196C414.452 68.3825 412.986 68.0878 411.488 67.9192C411.147 67.8812 410.806 67.8421 410.465 67.8041C404.194 67.2974 397.648 68.2497 391.984 71.0714C389.516 72.3013 386.56 74.3822 386.846 77.5067C387.095 80.2072 389.544 81.8813 391.732 83.0437C394.401 84.4617 397.336 85.2588 400.318 85.6605C402.129 85.9044 403.981 86.0696 405.809 86.0908C407.544 86.1109 409.277 85.9053 410.997 85.701C414.364 85.3004 417.82 84.731 420.886 83.2092C423.36 81.9814 425.994 79.8223 426.493 76.9468C428.133 71.8705 429.944 66.849 431.828 61.8592C434.106 55.8211 436.504 49.8279 439.023 43.8862C441.163 38.8404 443.387 33.8258 445.783 28.8952C451.91 31.2156 458.109 33.3404 464.306 35.4668C467.553 36.5807 470.8 37.6979 474.035 38.8471C475.659 39.4238 477.28 40.0087 478.897 40.6061C479.686 40.8977 480.474 41.1918 481.261 41.4891C482.04 41.7835 482.87 42.2159 483.718 42.2363C484.643 42.2586 485.179 41.7008 485.576 40.9381C486.025 40.08 486.469 39.2203 486.916 38.3615C487.831 36.602 488.746 34.8424 489.661 33.0822C489.836 32.7464 489.528 32.4309 489.21 32.3294Z" fill="#535353"/>
<path opacity="0.1" d="M60.6963 318.475C55.1256 323.104 49.6604 327.858 44.0553 332.446C38.3463 337.119 32.5 341.651 26.2834 345.635C22.9619 347.764 19.5347 349.729 15.966 351.413C15.7126 351.533 14.9254 352.061 15.04 352.457C17.2008 359.919 19.7031 367.281 22.4007 374.565C25.1621 382.02 28.1313 389.399 31.2703 396.704C32.7435 400.133 34.2579 403.544 35.8086 406.938C35.7594 406.949 35.7108 406.96 35.6638 406.971C34.9367 407.134 34.2254 407.386 33.5507 407.705C32.1609 408.362 30.9302 409.311 29.8397 410.375C29.3338 410.868 28.8584 411.391 28.3957 411.923C28.3553 411.966 28.3165 412.009 28.2843 412.05C28.2727 412.064 28.2617 412.078 28.2498 412.094C27.9178 412.521 27.5867 412.947 27.2547 413.374C26.8423 413.904 26.4313 414.412 26.0905 414.989C24.8252 417.131 23.6688 419.337 22.7353 421.629C21.8392 423.829 21.1672 426.11 20.8052 428.438C20.6159 429.656 20.5019 430.882 20.4729 432.109C20.4582 432.74 20.4648 433.371 20.4923 434.001C20.5166 434.567 20.6521 435.077 20.8794 435.593C21.2783 436.502 21.9597 437.631 23.0561 437.811C23.6088 437.902 24.1764 437.792 24.7073 437.613C25.3723 437.389 26.0184 437.09 26.6111 436.715C29.1005 435.142 30.5368 432.53 32.0205 430.127C33.4887 427.749 34.8918 425.325 36.0515 422.795C37.2146 420.256 38.1599 417.609 38.6117 414.875C38.8395 413.493 38.9483 412.091 38.8365 410.703C38.7811 410.021 38.6731 409.343 38.5034 408.682C38.3844 408.22 38.2645 407.656 37.9518 407.265C37.9493 407.259 37.9477 407.252 37.9449 407.246C34.7091 400.224 31.637 393.126 28.7351 385.959C27.3681 382.582 26.0404 379.189 24.7551 375.78C28.0644 374.425 31.3696 373.056 34.5933 371.507C37.9766 369.881 41.2412 368.024 44.4337 366.052C47.5773 364.11 50.647 362.052 53.7037 359.978C56.7162 357.935 59.7398 355.91 62.7625 353.883C65.6518 351.946 68.4903 349.885 70.8492 347.31C71.7313 349.5 72.6218 351.687 73.5228 353.869C75.1533 357.817 76.8147 361.751 78.524 365.664C79.8977 368.81 81.3036 371.943 82.7631 375.05C82.2496 374.994 81.7212 375.046 81.2256 375.138C80.5093 375.27 79.8257 375.502 79.1697 375.813C78.5313 376.116 77.9413 376.521 77.3612 376.924C76.2795 377.678 75.2778 378.536 74.3142 379.44C73.412 380.287 72.5313 381.148 71.7316 382.101C71.5528 382.313 71.3743 382.527 71.1956 382.739C71.182 382.755 71.168 382.774 71.1546 382.793C69.5389 384.859 68.1773 387.129 67.1372 389.571C66.1518 391.886 65.4573 394.369 65.1884 396.91C64.9381 399.279 65.1516 402.37 67.5485 403.61C69.6455 404.695 71.9574 403.804 73.8351 402.816C75.989 401.684 77.8628 400.074 79.4786 398.241C80.461 397.126 81.3925 395.939 82.2397 394.71C83.0455 393.541 83.6773 392.244 84.3078 390.964C85.5352 388.473 86.6958 385.835 86.9907 382.996C87.2274 380.719 86.8538 378.036 85.1977 376.318C85.2525 376.194 85.2659 376.074 85.2154 375.971C83.6117 372.636 82.0845 369.265 80.5937 365.879C78.8969 362.026 77.2498 358.152 75.634 354.265C73.9454 350.202 72.2922 346.125 70.6698 342.036C69.0944 338.065 67.5476 334.083 66.0354 330.087C64.7017 326.564 63.3934 323.03 62.129 319.48C61.987 319.083 61.8466 318.685 61.7059 318.287C61.5564 317.863 60.8847 318.318 60.6963 318.475ZM26.3053 436.101C26.3354 436.085 26.3515 436.075 26.3053 436.101V436.101ZM77.4901 399.168C77.4718 399.185 77.4793 399.178 77.4901 399.168V399.168ZM63.3355 340.643C61.9139 341.769 60.4724 342.87 59.0367 343.978C56.1446 346.21 53.2434 348.43 50.3049 350.6C47.3524 352.782 44.5024 354.815 41.4765 356.838C38.4528 358.859 35.3677 360.792 32.2049 362.589C29.0591 364.376 25.8987 365.994 22.5906 367.458C22.3407 367.568 22.09 367.676 21.839 367.784C21.3611 366.427 20.8883 365.068 20.4266 363.704C20.0036 362.455 19.5894 361.204 19.1819 359.951C22.1545 358.444 25.0431 356.777 27.8775 355.026C30.9971 353.099 34.0485 351.066 37.0899 349.02C40.1178 346.982 43.1474 344.947 46.1446 342.864C49.1756 340.758 52.1732 338.6 55.0901 336.338C57.9992 334.082 60.8169 331.71 63.5379 329.23C63.6057 329.167 63.6726 329.105 63.7398 329.043C63.8209 329.259 63.9005 329.475 63.9816 329.69C64.9616 332.295 65.9574 334.895 66.9655 337.49C65.8414 338.605 64.6296 339.619 63.3355 340.643Z" fill="#3B3B3B"/>
<path opacity="0.1" d="M1423.15 287.768C1423.11 287.77 1423.12 287.77 1423.15 287.768V287.768ZM1371.84 285.807C1371.85 285.809 1371.86 285.811 1371.84 285.807V285.807ZM1351.19 239.285C1350.7 237.074 1350.2 234.864 1349.7 232.658C1349.65 232.476 1349.61 232.293 1349.57 232.111C1349.64 232.122 1349.72 232.134 1349.79 232.146C1352.75 232.601 1355.73 232.938 1358.71 233.156C1361.71 233.374 1364.71 233.486 1367.71 233.547C1370.68 233.608 1373.65 233.621 1376.62 233.638C1379.6 233.654 1382.59 233.657 1385.57 233.557C1388.28 233.466 1390.98 233.294 1393.68 232.976C1393.96 234.009 1394.25 235.043 1394.52 236.079C1394.82 237.21 1395.12 238.344 1395.4 239.479L1397.03 246.209C1397.7 249.097 1398.32 251.994 1398.92 254.897C1400.18 261.059 1401.3 267.251 1402.27 273.466C1402.27 273.471 1402.27 273.476 1402.27 273.482C1402.24 273.887 1402.41 274.324 1402.54 274.69C1402.72 275.215 1402.95 275.722 1403.22 276.209C1403.77 277.2 1404.48 278.101 1405.26 278.934C1406.79 280.583 1408.63 281.95 1410.56 283.146C1412.48 284.338 1414.52 285.347 1416.59 286.297C1418.68 287.257 1420.83 288.379 1423.22 288.324C1423.79 288.31 1424.37 288.222 1424.92 288.074C1425.36 287.956 1425.79 287.775 1426.13 287.464C1426.79 286.849 1426.74 285.776 1426.6 284.981C1426.52 284.529 1426.38 284.122 1426.15 283.728C1425.88 283.289 1425.6 282.859 1425.31 282.438C1424.73 281.619 1424.1 280.84 1423.43 280.101C1422.13 278.687 1420.65 277.444 1419.05 276.358C1417.39 275.226 1415.61 274.252 1413.79 273.371C1413.3 273.134 1412.79 272.974 1412.27 272.801C1411.86 272.662 1411.44 272.523 1411.02 272.383C1411.01 272.377 1410.99 272.372 1410.98 272.368C1410.94 272.355 1410.89 272.343 1410.85 272.332C1410.29 272.181 1409.74 272.041 1409.17 271.934C1407.95 271.705 1406.69 271.616 1405.45 271.797C1404.85 271.884 1404.26 272.035 1403.69 272.252C1403.65 272.266 1403.62 272.28 1403.58 272.295C1403.1 269.297 1402.59 266.304 1402.04 263.318C1400.88 256.956 1399.57 250.62 1398.08 244.326C1396.62 238.177 1395 232.063 1393.11 226.035C1393 225.715 1392.23 225.712 1392.01 225.745C1388.83 226.211 1385.63 226.424 1382.42 226.479C1376.41 226.58 1370.41 226.144 1364.44 225.55C1358.57 224.967 1352.73 224.209 1346.87 223.583C1346.67 223.562 1346.01 223.556 1346.1 223.912C1346.19 224.245 1346.27 224.578 1346.35 224.911C1347.1 227.885 1347.8 230.868 1348.48 233.856C1349.26 237.243 1350.01 240.637 1350.73 244.037C1351.47 247.538 1352.19 251.045 1352.87 254.557C1353.53 257.918 1354.16 261.285 1354.75 264.658C1355.26 267.623 1355.75 270.596 1356.16 273.576C1356.17 273.669 1356.24 273.744 1356.33 273.804C1355.98 275.714 1356.94 277.699 1358.12 279.135C1359.6 280.925 1361.58 282.19 1363.53 283.324C1364.53 283.907 1365.55 284.501 1366.62 284.93C1367.75 285.382 1368.91 285.766 1370.08 286.078C1372 286.592 1373.99 286.838 1375.96 286.635C1377.68 286.458 1379.65 286.02 1380.58 284.341C1381.64 282.422 1380.4 280.231 1379.16 278.74C1377.83 277.14 1376.24 275.77 1374.53 274.646C1372.73 273.461 1370.78 272.537 1368.76 271.865C1368.74 271.857 1368.72 271.851 1368.71 271.846C1368.49 271.783 1368.27 271.719 1368.06 271.655C1367.09 271.37 1366.1 271.184 1365.11 271.017C1364.05 270.838 1362.98 270.708 1361.91 270.685C1361.34 270.673 1360.75 270.665 1360.19 270.747C1359.6 270.832 1359.03 270.982 1358.49 271.215C1358.11 271.377 1357.73 271.579 1357.41 271.848C1357 269.086 1356.54 266.331 1356.05 263.581C1355.45 260.16 1354.8 256.747 1354.12 253.338C1353.75 251.454 1353.37 249.571 1352.98 247.691L1351.19 239.285Z" fill="#3B3B3B"/>
<path opacity="0.1" d="M1053.67 120.783C1053.2 119.068 1052.29 117.538 1051.33 116.06C1049.58 113.39 1047.52 110.833 1045.29 108.561C1045.02 108.295 1044.76 108.029 1044.5 107.763C1041.83 105.203 1038.88 102.934 1035.66 101.105C1032.76 99.4541 1029.57 98.0665 1026.28 97.4327C1025.09 97.2055 1023.76 97.1192 1022.56 97.3645C1024.23 89.6166 1026 81.8906 1027.82 74.1759C1029.91 65.3259 1032.05 56.4888 1034.15 47.6431C1035.33 42.7226 1036.49 37.7995 1037.62 32.8699C1037.73 32.4208 1035.42 32.1279 1035.27 32.7672C1033.25 41.554 1031.14 50.321 1029.04 59.0898C1026.91 67.9548 1024.79 76.8211 1022.77 85.7102C1021.75 90.1511 1020.77 94.5996 1019.82 99.0547C1019.6 99.3717 1019.42 99.732 1019.3 100.152C1018.84 101.643 1019.1 103.252 1019.61 104.69C1020.1 106.036 1020.7 107.322 1021.41 108.562C1022.99 111.328 1024.93 113.769 1027.18 116.025C1028.49 117.345 1029.84 118.668 1031.31 119.826C1032.8 121.009 1034.4 122.062 1036 123.098C1039.01 125.048 1042.28 126.96 1045.86 127.585C1048.46 128.039 1051.86 127.78 1053.42 125.315C1054.29 123.943 1054.08 122.276 1053.67 120.783Z" fill="#3B3B3B"/>
</svg>
