<svg width="298" height="190" viewBox="0 0 298 190" fill="none" xmlns="http://www.w3.org/2000/svg">
<g clip-path="url(#clip0_6_1062)">
<rect width="298" height="190" rx="16" fill="#3B3B3B"/>
<path d="M27.2829 177.253L20.7474 170.718C19.7509 169.721 19.7509 168.105 20.7474 167.108L49.6749 138.181L59.8195 148.326L30.8921 177.253C29.8953 178.25 28.2795 178.25 27.2829 177.253Z" fill="#46535F"/>
<path d="M59.8192 148.324L49.6747 138.18L47.634 140.221L57.7785 150.365L59.8192 148.324Z" fill="#29323A"/>
<path d="M70.6348 143.334L54.6662 127.365L49.6749 138.181L59.8195 148.325L70.6348 143.334Z" fill="#46535F"/>
<path d="M36.7828 171.361L26.6383 161.217L22.8341 165.021L32.9787 175.165L36.7828 171.361Z" fill="#678291"/>
<path d="M70.6348 143.334L54.6662 127.365L55.9708 126.061C56.6049 125.427 57.633 125.427 58.2671 126.061L71.9392 139.733C72.5732 140.367 72.5732 141.395 71.9392 142.029L70.6348 143.334Z" fill="#7D868C"/>
<path d="M39.4009 158.599C38.532 157.73 38.532 156.321 39.4009 155.452L43.9096 150.944C44.7785 150.075 46.1875 150.075 47.0564 150.944C47.9253 151.813 47.9253 153.222 47.0564 154.09L42.5477 158.599C41.6788 159.468 40.2698 159.468 39.4009 158.599Z" fill="#678291"/>
<path d="M42.7649 155.622L42.3777 155.235C41.7681 154.626 41.7681 153.637 42.3777 153.028C42.9872 152.418 43.9755 152.418 44.5851 153.028L44.9723 153.415C45.5819 154.025 45.5819 155.013 44.9723 155.622C44.3625 156.232 43.3745 156.232 42.7649 155.622Z" fill="#FFD255"/>
<path d="M43.5683 154.955L43.0454 154.432C42.8421 154.228 42.8421 153.899 43.0454 153.696C43.2487 153.493 43.578 153.493 43.7812 153.696L44.3041 154.219C44.5074 154.422 44.5074 154.751 44.3041 154.955C44.1011 155.158 43.7716 155.158 43.5683 154.955Z" fill="white"/>
<path d="M76.9701 131.097C77.0954 131.565 76.8179 132.045 76.3508 132.17L71.3605 133.507C70.8932 133.632 70.4129 133.355 70.2878 132.888C70.1625 132.421 70.44 131.94 70.9071 131.815L75.8974 130.478C76.3647 130.353 76.845 130.63 76.9701 131.097Z" fill="#FFD255"/>
<path d="M66.9029 121.03C67.3702 121.155 67.6474 121.635 67.5221 122.103L66.185 127.093C66.0597 127.56 65.5796 127.838 65.1123 127.712C64.645 127.587 64.3678 127.107 64.4931 126.64L65.8302 121.649C65.9556 121.182 66.4358 120.905 66.9029 121.03Z" fill="#FFD255"/>
<path d="M68.9914 129.027L68.9728 129.009C68.636 128.672 68.636 128.126 68.9728 127.789L72.6446 124.117C72.9814 123.78 73.5276 123.78 73.8647 124.117L73.8833 124.135C74.2201 124.472 74.2201 125.019 73.8833 125.356L70.2115 129.027C69.8744 129.364 69.3282 129.364 68.9914 129.027Z" fill="#FFD255"/>
<path d="M71.0788 138.802L59.0063 126.934L83 5.53279e-06L298 -0.000107242L298 142L71.0788 138.802Z" fill="#EDDAC4"/>
<path d="M136.022 61.48C133.808 61.48 131.755 61.12 129.862 60.4C127.995 59.68 126.368 58.6667 124.982 57.36C123.622 56.0533 122.555 54.52 121.782 52.76C121.035 51 120.662 49.08 120.662 47C120.662 44.92 121.035 43 121.782 41.24C122.555 39.48 123.635 37.9467 125.022 36.64C126.408 35.3333 128.035 34.32 129.902 33.6C131.768 32.88 133.795 32.52 135.982 32.52C138.195 32.52 140.222 32.88 142.062 33.6C143.928 34.32 145.542 35.3333 146.902 36.64C148.288 37.9467 149.368 39.48 150.142 41.24C150.915 42.9733 151.302 44.8933 151.302 47C151.302 49.08 150.915 51.0133 150.142 52.8C149.368 54.56 148.288 56.0933 146.902 57.4C145.542 58.68 143.928 59.68 142.062 60.4C140.222 61.12 138.208 61.48 136.022 61.48ZM135.982 55.96C137.235 55.96 138.382 55.7467 139.422 55.32C140.488 54.8933 141.422 54.28 142.222 53.48C143.022 52.68 143.635 51.7333 144.062 50.64C144.515 49.5467 144.742 48.3333 144.742 47C144.742 45.6667 144.515 44.4533 144.062 43.36C143.635 42.2667 143.022 41.32 142.222 40.52C141.448 39.72 140.528 39.1067 139.462 38.68C138.395 38.2533 137.235 38.04 135.982 38.04C134.728 38.04 133.568 38.2533 132.502 38.68C131.462 39.1067 130.542 39.72 129.742 40.52C128.942 41.32 128.315 42.2667 127.862 43.36C127.435 44.4533 127.222 45.6667 127.222 47C127.222 48.3067 127.435 49.52 127.862 50.64C128.315 51.7333 128.928 52.68 129.702 53.48C130.502 54.28 131.435 54.8933 132.502 55.32C133.568 55.7467 134.728 55.96 135.982 55.96ZM156.172 61V33H168.292C170.798 33 172.958 33.4133 174.772 34.24C176.585 35.04 177.985 36.2 178.972 37.72C179.958 39.24 180.452 41.0533 180.452 43.16C180.452 45.24 179.958 47.04 178.972 48.56C177.985 50.08 176.585 51.2533 174.772 52.08C172.958 52.88 170.798 53.28 168.292 53.28H159.772L162.652 50.36V61H156.172ZM162.652 51.08L159.772 48H167.932C169.932 48 171.425 47.5733 172.412 46.72C173.398 45.8667 173.892 44.68 173.892 43.16C173.892 41.6133 173.398 40.4133 172.412 39.56C171.425 38.7067 169.932 38.28 167.932 38.28H159.772L162.652 35.2V51.08ZM191.038 44.28H204.518V49.32H191.038V44.28ZM191.518 55.8H206.758V61H185.078V33H206.238V38.2H191.518V55.8ZM211.914 61V33H217.274L233.794 53.16H231.194V33H237.594V61H232.274L215.714 40.84H218.314V61H211.914ZM139.023 107V79H151.743C154.783 79 157.463 79.5867 159.783 80.76C162.103 81.9067 163.916 83.52 165.223 85.6C166.53 87.68 167.183 90.1467 167.183 93C167.183 95.8267 166.53 98.2933 165.223 100.4C163.916 102.48 162.103 104.107 159.783 105.28C157.463 106.427 154.783 107 151.743 107H139.023ZM145.503 101.68H151.423C153.29 101.68 154.903 101.333 156.263 100.64C157.65 99.92 158.716 98.9067 159.463 97.6C160.236 96.2933 160.623 94.76 160.623 93C160.623 91.2133 160.236 89.68 159.463 88.4C158.716 87.0933 157.65 86.0933 156.263 85.4C154.903 84.68 153.29 84.32 151.423 84.32H145.503V101.68ZM167.999 107L180.479 79H186.879L199.399 107H192.599L182.359 82.28H184.919L174.639 107H167.999ZM174.239 101L175.959 96.08H190.359L192.119 101H174.239ZM207.546 107V95.56L209.026 99.48L196.706 79H203.586L213.026 94.72H209.066L218.546 79H224.906L212.586 99.48L214.026 95.56V107H207.546Z" fill="#D8A866"/>
</g>
<defs>
<clipPath id="clip0_6_1062">
<rect width="298" height="190" rx="16" fill="white"/>
</clipPath>
</defs>
</svg>
