<svg width="229" height="145" viewBox="0 0 229 145" fill="none" xmlns="http://www.w3.org/2000/svg">
<path d="M96.676 40.0691C94.4022 41.285 92.6331 42.9949 91.4969 45.4416C85.5434 58.261 80.6803 71.5136 75.8449 84.7714C73.27 91.8322 72.2846 99.243 71.8987 106.741C71.7454 109.717 72.5501 112.37 74.239 114.708C83.1404 127.034 101.205 128.095 111.45 112.755C115.816 106.217 117.578 98.5231 120.473 91.3357C122.371 86.3115 124.47 81.3521 126.111 76.2455C127.744 71.1601 129.114 65.9692 130.242 60.7469C131.61 54.4167 131.268 47.947 126.335 43.353C118.597 36.1465 105.995 35.0855 96.676 40.0691ZM117.07 44.6013C124.703 49.2288 126.357 54.2098 124.039 62.8741C121.657 71.774 118.143 80.2494 115.053 88.8838C112.853 94.7045 110.875 100.622 108.391 106.319C105.993 111.819 101.852 115.555 96.0601 117.78C86.8926 121.303 75.9391 113.048 77.809 102.939C79.1947 95.445 80.2197 87.8979 82.9299 80.7619C86.6374 70.9996 89.9671 61.0968 94.6121 51.6833C98.6036 43.5933 109.377 39.9363 117.07 44.6013Z" fill="#535353"/>
<path d="M214.56 5.48876C210.959 8.40171 207.31 11.2622 203.466 13.852C195.425 19.2693 183.951 28.4944 174.355 29.9095C170.07 30.5414 165.754 30.7457 161.445 30.6273C159.625 30.4199 157.806 30.1369 155.986 29.6821C143.927 26.6682 132.433 21.8807 120.682 17.917C104.444 12.44 88.355 9.55588 72.1215 17.2388C61.9459 22.0547 52.9833 28.638 46.2975 37.86C41.2882 44.7696 38.3701 52.7932 35.2756 60.6403C28.4257 78.0069 22.0332 95.5546 15.1283 112.899C13.9998 115.734 13.4029 119.407 10.5116 121.086C9.28383 120.696 8.02212 120.492 6.72336 120.729C4.88688 121.062 3.37869 122.232 2.37066 123.77C1.58852 124.964 0.783246 126.26 0.381371 127.637C0.0890981 128.64 -0.0411152 129.653 0.0113704 130.657C-0.000464544 130.979 0.0314596 131.299 0.123052 131.615C0.221334 132.141 0.364364 132.664 0.592831 133.178C1.3019 134.769 2.60017 136.075 3.97817 137.101C6.22785 138.775 8.69364 140.265 11.1219 141.665C12.6481 142.544 14.2736 143.632 15.9938 144.088C17.8817 144.589 19.5679 144.415 21.0586 143.556C21.4348 143.368 21.7991 143.147 22.1315 142.856C22.1222 142.848 22.113 142.839 22.1037 142.83C22.1778 142.766 22.2478 142.687 22.3204 142.619C22.7058 142.319 23.0608 141.98 23.3413 141.577C23.9309 140.731 24.3421 139.694 24.816 138.774C25.2462 137.938 25.7551 137.107 26.1039 136.233C27.4701 132.812 25.3491 129.611 22.874 127.039C23.0021 126.396 23.2399 125.757 23.4992 125.071C27.3945 114.749 31.069 104.339 35.2231 94.1236L37.6621 88.3208C37.8283 99.7138 41.4961 105.901 47.6441 114.918C55.4352 126.344 65.6524 133.294 77.5949 136.67C89.7623 140.111 102.727 139.303 114.523 134.749C126.627 130.076 141.556 120.885 149.4 107.153C154.848 97.6164 156.474 89.0068 156.334 78.1921C156.141 63.2152 151.708 49.377 142.132 36.7357C148.175 40.0202 155.977 41.0406 160.482 46.2608C163.465 49.7182 165.84 54.2834 167.584 58.4951C170.008 64.3524 170.912 68.8193 172.923 73.1052C176.463 80.6523 178.645 86.4252 180.463 96.6887C181.161 100.628 183.212 110.055 188.161 108.766C190.295 108.209 192.981 102.747 193.944 100.89C195.177 98.5102 196.26 96.0388 197.308 93.5725C201.318 84.139 204.348 74.3334 207.404 64.5608C210.491 54.6873 213.757 44.8838 217.483 35.2311C219.302 30.5198 223.835 20.1878 225.766 15.5217C226.601 13.5052 227.402 11.4695 228.021 9.37423C228.821 6.66299 229.995 3.04148 227.271 0.979109C223.142 -2.14636 217.648 2.99157 214.56 5.48876ZM134.926 40.6696C142.28 47.9023 147.345 57.0672 149.62 67.1285C151.767 76.6243 151.479 86.3043 147.76 95.8808C137.04 123.491 112.528 130.586 95.2316 131.955C81.0111 133.08 66.806 128.074 57.0741 117.644C56.17 116.675 55.3024 115.66 54.4745 114.592C47.6884 105.834 43.5986 96.0259 42.8999 84.6983C42.3338 75.5246 43.1546 66.9803 46.6644 58.2728C51.2039 47.0105 58.8791 38.7425 68.2833 31.8406C68.2833 31.8406 88.5114 17.8126 111.141 25.6947C121.578 29.3296 129.462 35.296 134.926 40.6696Z" fill="#535353"/>
<path d="M98.883 26.2535C86.0384 28.2279 81.4794 40.6433 77.1627 51.2212C72.5933 62.4192 67.9931 73.6357 64.6222 85.2659C62.9066 91.1839 61.348 97.2645 60.4594 103.369C59.7369 108.332 59.8491 113.909 62.0381 118.519C64.2347 123.146 68.0832 125.873 72.9268 127.18C72.4626 127.055 73.7182 127.438 73.9024 127.492C74.9305 127.795 75.9668 128.068 77.0078 128.322C85.1652 130.313 93.656 131.331 102.036 130.343C104.446 130.058 106.818 129.569 109.141 128.868C109.259 128.832 109.369 128.784 109.481 128.74C109.607 128.713 109.733 128.688 109.856 128.649C117.975 126.103 125.174 122.881 131.023 116.567C134.069 113.278 137.192 109.742 139.62 105.973C142.682 101.217 144.8 95.7378 146.197 90.2741C150.86 72.0395 145.546 50.3835 130.762 38.0695C121.871 30.6649 110.871 24.4104 98.883 26.2535ZM121.661 38.5007C125.799 41.391 129.506 44.4506 132.557 48.492C135.365 52.2128 137.662 56.3417 139.308 60.7052C141.905 67.587 142.625 75.891 141.681 83.1551C140.942 88.839 139.086 94.4797 136.556 99.6135C134.399 103.989 131.026 107.72 127.851 111.386C125.672 113.901 123.284 116.258 120.432 118.009C116.612 120.354 112.242 121.812 107.983 123.153C100.124 125.484 91.8062 125.199 83.7975 123.819C81.0852 123.352 78.9374 122.879 76.3445 122.135C74.544 121.618 72.6062 121.247 71.0074 120.256C62.6998 115.105 66.3841 101.941 68.1907 94.4519C70.7563 83.8164 74.5029 73.5256 78.5433 63.3737C80.6895 57.9811 82.8656 52.5962 85.0962 47.238C87.0336 42.5843 89.2961 37.7206 93.4157 34.5946C101.849 28.1965 114.127 33.2393 121.661 38.5007Z" fill="#535353"/>
<path d="M67.4461 72.2891C67.4456 72.4326 67.4569 72.5679 67.478 72.6822C67.4904 72.7722 67.5182 72.87 67.5573 72.9611C67.8408 74.1152 68.4876 75.0445 69.279 75.9337C70.1203 76.8795 71.0543 77.7388 72.3427 77.9714C74.8621 78.4258 77 76.5332 77.7266 74.2459C78.4645 71.9227 78.0565 69.2294 76.3497 67.43C74.7499 65.7438 71.9671 65.274 69.9161 66.3906C67.9226 67.4768 67.2619 70.1459 67.4461 72.2891Z" fill="#535353"/>
<path d="M79.9897 51.0987C79.4766 50.9639 78.9606 50.8054 78.4455 50.683C77.2172 50.3912 75.9817 51.3298 75.3123 52.1644C74.8821 52.7006 74.6089 53.3613 74.2965 53.9664C74.2878 53.9839 74.2837 54.0055 74.2754 54.0235C73.6929 55.0043 73.6163 56.3118 73.7655 57.4196C73.9003 58.423 74.2214 59.5196 74.9397 60.3197C75.7749 61.2501 77.0803 61.7585 78.2988 61.9669C79.47 62.167 80.6802 61.723 81.5941 60.9619C82.5075 60.2014 83.0637 59.4933 83.3853 58.3994C83.7666 57.1006 84.0048 55.7067 83.7331 54.3389C83.4985 53.1575 82.7673 52.2647 81.645 51.6992C81.1192 51.4342 80.5588 51.2485 79.9897 51.0987Z" fill="#535353"/>
<path d="M63.9193 83.0157C64.6814 82.3755 65.6704 81.9577 66.7571 81.861C67.6319 81.7833 68.5566 81.9042 69.2265 82.214C71.5009 83.2657 72.7395 85.8571 72.2604 87.885C71.9357 89.2604 70.8804 90.0662 69.6253 90.6873C68.6096 91.19 67.3726 91.8008 66.0913 91.6567C64.5224 91.417 63.1531 90.3379 62.6103 89.0453C61.6815 86.8348 62.2774 84.3947 63.9193 83.0157Z" fill="#535353"/>
<path d="M70.0622 83.4242C68.0667 83.0517 66.2457 83.6656 65.3483 85.7068C64.4457 87.7605 64.845 90.1491 66.9645 91.2374C69.6428 92.6128 72.8511 93.3075 75.6612 94.4251C78.6549 95.6153 81.6116 96.9125 84.4757 98.3893C88.4455 100.437 94.4284 103.588 95.0634 108.58C95.4318 111.476 93.6108 114.155 93.4039 117.012C93.2022 119.797 94.3152 122.489 95.8964 124.729C98.9674 129.078 104.124 131.47 109.207 132.515C114.118 133.525 120.423 133.664 123.319 128.767C125.926 124.357 128.084 117.869 125.617 112.99C123.05 107.913 117.107 105.044 112.405 102.331C99.1423 94.6757 85.0216 88.592 70.5845 83.5313C70.4033 83.4675 70.2305 83.4381 70.0622 83.4242ZM100.923 100.518C105.956 103.064 110.897 105.81 115.665 108.825C119.555 111.284 123.489 114.188 122.681 119.347C122.314 121.688 121.354 124.311 120.211 126.389C118.934 128.712 116.613 129.244 114.119 129.19C109.753 129.095 105.14 127.811 101.651 125.121C99.9708 123.825 98.584 122.142 97.7864 120.164C96.675 117.409 97.9099 114.999 98.5804 112.331C99.6111 108.228 98.3735 104.428 95.4925 101.382C92.0197 97.7091 87.312 95.3524 82.7884 93.2483C79.9557 91.9305 77.0593 90.7511 74.1304 89.6649C72.7606 89.157 71.3831 88.6697 69.9984 88.202C69.9932 88.2004 68.7264 87.7708 68.7325 87.7949C68.6224 87.3673 69.0017 87.1188 69.2075 87.1739C80.0376 90.9708 90.6782 95.3374 100.923 100.518Z" fill="#DEB841"/>
<path d="M107.109 78.5606C96.7969 75.0785 86.4855 71.597 76.1737 68.1149C73.5417 67.2468 71.1814 68.3706 70.357 71.0664C69.3974 74.2053 71.611 75.7706 74.1134 76.8965C82.3418 80.5987 90.6803 84.0741 98.9612 87.6576C103.394 89.5759 107.802 91.5739 112.268 93.414C115.324 94.6731 119.414 95.412 121.81 92.4559C124.227 89.474 122.584 85.3106 119.713 83.3337C118.131 82.2443 116.274 81.6557 114.473 81.0469C112.019 80.2175 109.564 79.3895 107.109 78.5606ZM119.016 88.5004C119.452 90.2952 117.639 90.8129 116.197 90.6137C114.63 90.3976 113.068 89.5234 111.632 88.9018C109.976 88.185 108.32 87.4682 106.664 86.7514C100.126 83.9218 93.5876 81.0927 87.0495 78.2631C83.32 76.649 79.5714 75.0733 75.8593 73.4206C75.4852 73.2538 74.2991 72.9595 74.0995 72.6184C73.8298 72.1583 74.2615 71.5815 74.7972 71.758C81.6718 74.0792 88.5459 76.4004 95.4205 78.7216C102.13 80.9872 109.062 82.9421 115.632 85.5828C116.965 86.12 118.641 86.9557 119.016 88.5004Z" fill="#DEB841"/>
<path d="M115.569 41.5536C110.861 46.516 106.887 55.7967 111.968 61.8089C114.539 64.851 118.423 66.0916 122.294 66.1014C123.618 66.1045 126.522 65.7391 127.19 67.341C128.207 69.7785 122.494 68.1139 121.823 67.9224C117.278 66.6262 112.859 64.798 108.426 63.1658C103.941 61.5146 99.4567 59.8607 94.9723 58.208C90.7194 56.6406 86.466 55.0732 82.2106 53.5115C80.7183 52.964 79.1906 52.3568 77.8733 53.6345C77.1087 54.376 76.7891 55.4756 76.3944 56.4368C76.2679 56.744 76.2267 57.0337 76.2452 57.3013C75.991 60.5822 80.5115 61.5959 82.8769 62.5612C87.4627 64.4316 92.0449 66.3118 96.6076 68.2399C105.835 72.1393 114.967 76.2543 123.885 80.8221C130.954 84.4425 139.843 88.22 147.2 83.0506C153.806 78.4093 155.299 68.0156 153.203 60.7576C150.891 52.7572 144.131 46.3035 137.474 41.6632C130.876 37.065 121.7 35.0911 115.569 41.5536ZM143.838 52.3996C148.952 58.0093 151.683 65.3126 149.365 72.8206C148.235 76.4833 146.138 79.9843 142.292 81.1745C138.569 82.3261 134.658 81.4184 131.152 79.9946C126.689 78.1823 122.474 75.7207 118.136 73.63C113.677 71.4807 109.17 69.4327 104.634 67.4511C99.979 65.4175 95.2949 63.4529 90.599 61.5171C88.2511 60.5492 85.9 59.5885 83.5479 58.6294C82.5939 58.2404 81.6214 57.8802 80.6818 57.4582C80.5485 57.3986 80.4106 57.3188 80.2727 57.2529C80.3041 57.1757 80.336 57.098 80.3669 57.0183C80.6643 57.1269 81.0626 57.239 81.0965 57.2514C82.0042 57.5848 82.9119 57.9183 83.8196 58.2517C87.1813 59.4877 90.5419 60.7257 93.9025 61.9643C100.9 64.5433 107.894 67.131 114.897 69.6936C118.345 70.9548 122.762 73.013 126.519 72.5859C129.534 72.2432 132.028 69.3982 130.973 66.3355C129.846 63.0629 126.427 62.2231 123.331 62.2149C119.827 62.2056 115.937 61.602 114.17 58.1179C112.58 54.9816 113.988 51.127 115.545 48.2645C117.309 45.0222 119.76 42.0352 123.584 41.3848C131.43 40.051 138.978 47.0682 143.838 52.3996Z" fill="#DEB841"/>
<path d="M60.5412 86.1638C61.0589 86.0007 61.5503 85.6549 61.7684 85.077C61.8322 84.9088 61.8569 84.7194 61.8636 84.5259C61.9207 84.0911 61.8148 83.6393 61.5055 83.2359C61.3167 82.9462 61.0558 82.7147 60.7347 82.5757C59.297 81.6114 57.8027 80.8139 56.2626 79.9931C54.9397 79.2882 53.6162 78.5832 52.2932 77.8783C50.8921 77.1316 49.4621 76.1637 47.923 75.7377C46.4668 75.3348 44.8655 75.4578 43.6856 76.351C42.4841 77.2608 42.2839 78.8498 42.8602 80.1953C43.9933 82.8392 47.372 84.0819 50.0199 84.7184C53.0136 85.4377 57.4482 86.0063 59.2569 86.1478L60.5412 86.1638Z" fill="#DEB841"/>
<path d="M66.4114 70.3533C66.9944 70.1696 67.548 69.7795 67.7945 69.1286C67.866 68.9387 67.8943 68.7257 67.9015 68.5075C67.9664 68.0177 67.8465 67.5088 67.4981 67.0539C67.2856 66.7276 66.9913 66.4662 66.6295 66.3098C65.0097 65.2236 63.3255 64.3246 61.5904 63.4C60.0997 62.6055 58.6085 61.811 57.1178 61.017C55.5391 60.1757 53.9275 59.0848 52.1934 58.6047C50.5525 58.1509 48.7479 58.2898 47.4188 59.2958C46.065 60.3208 45.8391 62.1115 46.489 63.6279C47.7656 66.6072 51.5729 68.0074 54.5563 68.7247C57.9298 69.5356 62.9262 70.1763 64.9644 70.3353L66.4114 70.3533Z" fill="#DEB841"/>
<path d="M72.4467 54.6071C72.9751 54.4403 73.4774 54.0873 73.7002 53.4966C73.765 53.3248 73.7907 53.1318 73.7969 52.9337C73.8556 52.4896 73.747 52.0281 73.4311 51.6159C73.2386 51.32 72.9715 51.0833 72.6433 50.9413C71.1747 49.9564 69.648 49.1413 68.0744 48.3031C66.7227 47.5827 65.3709 46.8629 64.0191 46.1425C62.5881 45.3799 61.1273 44.3909 59.5548 43.9556C58.0672 43.5439 56.4308 43.67 55.2263 44.5823C53.999 45.5116 53.7942 47.1351 54.3829 48.51C55.5401 51.2109 58.9924 52.4809 61.6969 53.1308C64.7555 53.8661 69.2852 54.4465 71.1335 54.5906L72.4467 54.6071Z" fill="#DEB841"/>
</svg>
