<svg width="238" height="202" viewBox="0 0 238 202" fill="none" xmlns="http://www.w3.org/2000/svg">
<path d="M88.2507 140.642C88.6382 144.167 87.6607 143.871 86.5065 143.894C85.3294 143.918 84.7871 144.332 84.202 140.658C79.8197 108.518 75.5824 76.3563 71.4907 44.175C70.8101 41.0974 70.606 39.5185 71.4514 38.6755C72.2955 37.8345 74.187 37.7235 77.6467 37.6236C80.3287 37.6191 80.1747 40.0973 80.3257 41.8011C82.5801 74.7862 85.2202 107.724 88.2507 140.642Z" fill="#3B3B3B"/>
<path d="M96.1461 140.173C96.231 143.72 95.2767 143.305 94.1134 143.187C93.5208 143.127 93.0776 143.183 92.7505 142.791C92.4245 142.406 92.2118 141.579 92.0793 139.721C90.4876 107.314 89.5135 74.9276 89.1445 42.4748C88.8234 39.343 88.8048 37.7511 89.7388 36.9966C90.2052 36.6196 90.9089 36.4522 91.9253 36.4088C92.942 36.352 94.2698 36.4689 95.9836 36.6406C98.6381 36.9032 98.1997 39.3539 98.1554 41.0636C97.388 57.5849 96.8369 74.1053 96.5016 90.6206C96.1666 107.138 96.046 123.634 96.1461 140.173Z" fill="#3B3B3B"/>
<path d="M106.48 140.178C106.398 141.95 106.12 142.716 105.723 143.015C105.325 143.313 104.801 143.139 104.222 143.083C103.04 142.945 102.431 143.282 102.43 139.562C103.15 107.129 104.012 74.6978 105.018 42.2693C104.83 39.1258 104.876 37.5345 105.837 36.8243C106.796 36.1242 108.673 36.2487 112.076 36.7699C114.713 37.1552 114.176 39.5833 114.06 41.289C111.154 74.2294 108.626 107.195 106.48 140.178Z" fill="#3B3B3B"/>
<path d="M114.425 140.933C113.96 144.455 113.079 143.836 111.934 143.583C110.769 143.304 110.132 143.565 110.445 139.858C113.908 107.622 117.969 75.4342 122.627 43.3099C122.794 40.1679 123.023 38.5914 124.059 37.9805C125.095 37.3647 126.928 37.7892 130.258 38.6074C132.836 39.2485 132.026 41.6069 131.718 43.2901C125.108 75.7208 119.343 108.28 114.425 140.933Z" fill="#3B3B3B"/>
<path d="M124.289 142.823C123.577 146.298 122.722 145.712 121.598 145.377C120.452 145.034 119.798 145.26 120.371 141.584C126.095 109.655 131.959 77.7499 137.962 45.8699C138.263 42.7325 138.555 41.1675 139.611 40.6238C140.665 40.0813 142.483 40.5541 145.778 41.5153C148.317 42.329 147.414 44.6413 147.035 46.309C139.082 78.4002 131.502 110.563 124.289 142.823Z" fill="#3B3B3B"/>
<path d="M132.019 144.807C131.017 148.211 130.228 147.522 129.149 147.053C128.599 146.814 128.156 146.731 127.963 146.257C127.767 145.79 127.816 144.937 128.258 143.128C136.659 111.788 145.627 80.653 155.186 49.6375C155.837 46.5573 156.306 45.0356 157.422 44.6016C157.98 44.3844 158.698 44.4396 159.676 44.7076C160.657 44.9624 161.884 45.4787 163.462 46.1646C165.907 47.2236 164.742 49.4237 164.178 51.0387C158.408 66.5386 152.843 82.1033 147.484 97.7285C142.124 113.356 136.975 129.029 132.019 144.807Z" fill="#3B3B3B"/>
<path d="M141.852 147.963C141.233 149.625 140.737 150.271 140.269 150.435C139.802 150.598 139.36 150.275 138.826 150.045C137.745 149.554 137.064 149.689 138.197 146.147C148.777 115.479 159.493 84.8571 170.345 54.282C171.125 51.231 171.654 49.7295 172.788 49.3468C173.916 48.9736 175.664 49.6633 178.759 51.2042C181.162 52.3799 179.908 54.5274 179.277 56.1167C166.442 86.5922 153.966 117.21 141.852 147.963Z" fill="#3B3B3B"/>
<path d="M149.111 151.083C147.588 154.292 146.957 153.439 145.955 152.853C144.944 152.236 144.264 152.292 145.696 148.859C158.849 119.226 172.57 89.8267 186.854 60.6777C187.975 57.7381 188.676 56.3075 189.856 56.0458C191.035 55.7789 192.666 56.7533 195.609 58.5669C197.885 59.9784 196.385 61.9718 195.574 63.4786C179.291 92.2952 163.799 121.507 149.111 151.083Z" fill="#3B3B3B"/>
<path d="M67.4391 47.386C69.6347 67.1019 73.0453 86.6443 76.0013 106.254C77.738 117.774 79.6656 129.261 81.464 140.769C82.3103 146.184 82.369 146.878 77.908 148.386C70.2551 150.971 62.61 153.882 54.1505 150.768C49.5547 149.076 47.9124 147.521 46.6898 142.361C43.6155 129.385 42.1645 116.136 40.2136 102.999C37.5143 84.8194 35.4256 66.5357 34.0436 48.2082C33.9865 47.4502 34.0524 46.6854 34.0742 45.9252C34.323 37.2814 34.3546 37.4019 41.7643 36.326C48.2271 35.3878 54.7031 34.7874 61.2467 34.6023C64.2359 34.5177 65.6788 35.6614 66.0409 39.0467C66.3404 41.8404 66.9612 44.6072 67.4391 47.386Z" fill="#3B3B3B"/>
<path d="M153.957 146.814C164.246 129.841 173.31 112.195 182.834 94.799C188.429 84.5799 193.828 74.259 199.358 64.0078C201.961 59.1836 202.34 58.5987 207.378 60.3835C216.021 63.4449 224.86 66.2455 230.686 74.3283C233.852 78.7195 234.389 81.0369 232.291 85.9104C227.016 98.1669 220.08 109.556 213.672 121.191C204.805 137.29 195.312 153.065 185.143 168.405C184.723 169.039 184.184 169.597 183.69 170.181C178.067 176.816 178.113 176.7 170.635 172.612C164.114 169.048 157.791 165.208 151.665 160.995C148.867 159.072 148.255 157.211 150.036 154.306C151.505 151.909 152.662 149.319 153.957 146.814Z" fill="#3B3B3B"/>
<path d="M179.655 167.246C180.152 167.484 179.75 168.12 179.32 168.917C178.881 169.729 178.714 170.175 178.179 169.952L164.919 162.69C163.956 162.432 164.056 162.207 165.408 159.786C165.932 158.849 166.201 159.158 166.435 159.283L179.655 167.246Z" fill="#DEB841"/>
<path d="M184.068 160.921C184.575 161.137 184.254 161.812 183.922 162.652C183.584 163.509 183.469 163.976 182.926 163.778L169.286 157.083C168.324 156.873 168.397 156.637 169.45 154.079C169.857 153.09 170.151 153.391 170.392 153.507L184.068 160.921Z" fill="#DEB841"/>
<path d="M196.813 141.306C197.31 141.544 196.909 142.18 196.479 142.977C196.041 143.789 195.873 144.236 195.338 144.013L182.078 136.751C181.115 136.493 181.215 136.268 182.567 133.846C183.091 132.909 183.36 133.218 183.594 133.344L196.813 141.306Z" fill="#DEB841"/>
<path d="M190.562 150.926C191.037 151.205 190.632 151.833 190.195 152.624C189.75 153.431 189.576 153.878 189.063 153.612L176.394 145.225C175.467 144.892 175.57 144.668 176.941 142.266C177.472 141.337 177.725 141.674 177.949 141.82L190.562 150.926Z" fill="#DEB841"/>
<path d="M200.76 134.686C201.257 134.925 200.855 135.561 200.425 136.358C199.987 137.17 199.82 137.616 199.284 137.393L186.025 130.131C185.062 129.873 185.161 129.648 186.514 127.226C187.037 126.29 187.306 126.599 187.541 126.724L200.76 134.686Z" fill="#DEB841"/>
<path d="M203.744 129.212C204.241 129.451 203.839 130.087 203.409 130.884C202.97 131.695 202.803 132.141 202.268 131.919L189.008 124.657C188.045 124.398 188.145 124.174 189.497 121.752C190.021 120.815 190.29 121.124 190.524 121.25L203.744 129.212Z" fill="#DEB841"/>
<path d="M208.753 119.633C209.261 119.85 208.94 120.524 208.608 121.365C208.269 122.221 208.154 122.688 207.611 122.49L193.972 115.795C193.009 115.585 193.083 115.349 194.135 112.792C194.542 111.802 194.837 112.103 195.077 112.219L208.753 119.633Z" fill="#DEB841"/>
<path d="M216.564 106.378C217.061 106.617 216.66 107.253 216.23 108.05C215.791 108.862 215.624 109.308 215.089 109.085L201.829 101.823C200.866 101.565 200.966 101.341 202.318 98.9191C202.841 97.9822 203.111 98.2912 203.345 98.4169L216.564 106.378Z" fill="#DEB841"/>
<path d="M213.883 111.481C214.385 111.696 214.09 112.382 213.79 113.236C213.485 114.106 213.386 114.579 212.85 114.384L199.334 107.731C198.389 107.526 198.453 107.287 199.407 104.689C199.776 103.684 200.073 103.986 200.311 104.101L213.883 111.481Z" fill="#DEB841"/>
<path d="M219.938 100.872C220.434 101.111 220.033 101.747 219.603 102.544C219.165 103.356 218.997 103.802 218.462 103.579L205.203 96.3172C204.239 96.0586 204.339 95.834 205.692 93.4123C206.215 92.4755 206.484 92.7844 206.718 92.9101L219.938 100.872Z" fill="#DEB841"/>
<path d="M224.822 91.3381C225.319 91.5767 224.918 92.2128 224.487 93.0095C224.049 93.8216 223.881 94.2678 223.346 94.0451L210.087 86.7832C209.124 86.5246 209.224 86.3 210.576 83.8783C211.099 82.9415 211.369 83.2504 211.603 83.3761L224.822 91.3381Z" fill="#DEB841"/>
<path d="M227.658 85.1749C228.166 85.3912 227.845 86.0655 227.513 86.9062C227.175 87.7629 227.06 88.2293 226.517 88.0314L212.877 81.3369C211.915 81.1265 211.988 80.8907 213.04 78.333C213.448 77.3435 213.742 77.645 213.982 77.7607L227.658 85.1749Z" fill="#DEB841"/>
<path d="M52.9245 60.3347C52.6401 60.2041 52.3233 60.0582 52.0114 60.0126C51.2994 59.9087 50.5799 60.0955 49.9166 60.3445C49.8926 60.3527 49.8712 60.3605 49.8576 60.3662C49.8407 60.3727 49.8165 60.3838 49.7902 60.3982C48.6955 60.8937 48.1564 62.1692 48.2712 63.3283C48.4037 64.6674 49.5916 65.5854 50.8869 65.6858C52.2667 65.7931 53.6106 64.9003 54.1239 63.6299C54.6395 62.3535 54.2149 60.9272 52.9245 60.3347Z" fill="#DEB841"/>
<path d="M59.9026 70.6244C61.2823 70.7318 62.6259 69.8388 63.1396 68.5686C63.6556 67.2923 63.231 65.866 61.9406 65.2735C61.6562 65.1429 61.3394 64.997 61.0275 64.9515C60.3155 64.8476 59.596 65.0343 58.9328 65.2833C58.9087 65.2915 58.8874 65.2993 58.8737 65.305C58.8568 65.3115 58.8327 65.3227 58.8063 65.337C57.7116 65.8325 57.1725 67.108 57.2873 68.2671C57.4194 69.606 58.6075 70.5236 59.9026 70.6244Z" fill="#DEB841"/>
<path d="M54.435 70.7615C54.1506 70.6309 53.8334 70.4848 53.5219 70.4394C52.8099 70.3356 52.0904 70.5223 51.4271 70.7713C51.4027 70.7794 51.3817 70.7873 51.3681 70.793C51.3512 70.7995 51.327 70.8106 51.3007 70.8249C50.206 71.3205 49.6669 72.596 49.7817 73.7551C49.9142 75.0942 51.1023 76.0117 52.3974 76.1126C53.7772 76.2199 55.1207 75.327 55.6344 74.0567C56.1501 72.7798 55.725 71.3538 54.435 70.7615Z" fill="#DEB841"/>
<path d="M63.4514 75.6998C63.167 75.5693 62.8501 75.4233 62.5382 75.3778C61.8263 75.2739 61.1067 75.4606 60.4435 75.7096C60.419 75.7177 60.3981 75.7256 60.3845 75.7314C60.3676 75.7378 60.3434 75.749 60.317 75.7633C59.2223 76.2589 58.6833 77.5343 58.798 78.6935C58.9306 80.0325 60.1185 80.9505 61.4138 81.051C62.7935 81.1583 64.1371 80.2653 64.6508 78.9951C65.1663 77.7186 64.7416 76.2928 63.4514 75.6998Z" fill="#DEB841"/>
<path d="M55.9777 81.4104C55.6933 81.2798 55.3764 81.1339 55.0645 81.0884C54.3526 80.9845 53.633 81.1712 52.9698 81.4202C52.9457 81.4284 52.9244 81.4362 52.9107 81.4419C52.8938 81.4484 52.8697 81.4596 52.8433 81.4739C51.7482 81.9693 51.2091 83.2447 51.3237 84.4043C51.4563 85.7434 52.6442 86.6614 53.9395 86.7618C55.3192 86.8691 56.6627 85.9762 57.1764 84.7059C57.6926 83.4292 57.268 82.0029 55.9777 81.4104Z" fill="#DEB841"/>
<path d="M64.9937 86.3492C64.7093 86.2186 64.3925 86.0727 64.0806 86.0271C63.3686 85.9233 62.6491 86.11 61.9859 86.359C61.9618 86.3672 61.9405 86.375 61.9268 86.3807C61.9099 86.3872 61.8858 86.3984 61.8594 86.4127C60.7647 86.9082 60.2256 88.1837 60.3404 89.3428C60.473 90.6819 61.6608 91.5999 62.9561 91.7003C64.3359 91.8076 65.6794 90.9147 66.1931 89.6444C66.7091 88.3681 66.2841 86.9417 64.9937 86.3492Z" fill="#DEB841"/>
<path d="M57.4882 91.8367C57.2038 91.7062 56.8869 91.5603 56.575 91.5147C55.8631 91.4108 55.1435 91.5975 54.4803 91.8466C54.4562 91.8548 54.4349 91.8625 54.4212 91.8683C54.4043 91.8747 54.3802 91.8859 54.3538 91.9002C53.2587 92.3956 52.7196 93.6711 52.8342 94.8306C52.9668 96.1697 54.1547 97.0877 55.45 97.1881C56.8297 97.2954 58.1732 96.4025 58.6869 95.1323C59.2031 93.8555 58.7785 92.4292 57.4882 91.8367Z" fill="#DEB841"/>
<path d="M66.5044 96.7755C66.22 96.645 65.9031 96.499 65.5912 96.4535C64.8793 96.3496 64.1597 96.5363 63.4965 96.7853C63.4724 96.7936 63.4511 96.8013 63.4374 96.807C63.4205 96.8135 63.3964 96.8247 63.37 96.839C62.2753 97.3346 61.7362 98.61 61.851 99.7692C61.9834 101.109 63.1715 102.026 64.4668 102.127C65.8465 102.234 67.19 101.341 67.7037 100.071C68.2193 98.7943 67.7947 97.368 66.5044 96.7755Z" fill="#DEB841"/>
<path d="M59.1396 103.238C58.8552 103.108 58.5379 102.962 58.2265 102.916C57.5145 102.812 56.7954 102.999 56.1317 103.248C56.1073 103.256 56.0857 103.264 56.0723 103.27C56.0554 103.276 56.0312 103.287 56.0048 103.301C54.9101 103.797 54.3706 105.072 54.4858 106.232C54.6184 107.571 55.8063 108.489 57.1016 108.589C58.4813 108.696 59.8249 107.803 60.3386 106.533C60.8546 105.257 60.43 103.831 59.1396 103.238Z" fill="#DEB841"/>
<path d="M68.1564 108.177C67.872 108.047 67.5547 107.9 67.2433 107.855C66.5313 107.751 65.8118 107.938 65.1485 108.187C65.1245 108.195 65.1031 108.203 65.0895 108.209C65.0726 108.215 65.0484 108.226 65.0221 108.241C63.9273 108.736 63.3878 110.011 63.503 111.171C63.6356 112.51 64.8235 113.428 66.1188 113.528C67.4985 113.636 68.8421 112.743 69.3558 111.472C69.8714 110.196 69.4463 108.769 68.1564 108.177Z" fill="#DEB841"/>
<path d="M60.6502 113.665C60.3658 113.534 60.0489 113.388 59.737 113.343C59.0251 113.239 58.306 113.426 57.6423 113.675C57.6178 113.683 57.5963 113.691 57.5828 113.696C57.5659 113.703 57.5418 113.714 57.5154 113.728C56.4207 114.224 55.8816 115.499 55.9964 116.658C56.129 117.997 57.3168 118.915 58.6121 119.016C59.9919 119.123 61.3354 118.23 61.8491 116.96C62.3653 115.683 61.9405 114.257 60.6502 113.665Z" fill="#DEB841"/>
<path d="M69.6665 118.604C69.3821 118.473 69.0652 118.327 68.7533 118.282C68.0414 118.178 67.3218 118.365 66.6586 118.614C66.6346 118.622 66.6132 118.63 66.5996 118.635C66.5827 118.642 66.5585 118.653 66.5321 118.667C65.4374 119.163 64.8983 120.438 65.0131 121.597C65.1457 122.936 66.3336 123.854 67.6289 123.955C69.0086 124.062 70.3522 123.169 70.8659 121.899C71.3816 120.622 70.9568 119.196 69.6665 118.604Z" fill="#DEB841"/>
<path d="M62.1927 124.314C61.9083 124.183 61.5915 124.037 61.2796 123.992C60.5676 123.888 59.8481 124.075 59.1848 124.324C59.1608 124.332 59.1394 124.34 59.1258 124.345C59.1089 124.352 59.0847 124.363 59.0584 124.377C57.9637 124.873 57.4246 126.148 57.5394 127.307C57.6719 128.647 58.8598 129.565 60.1551 129.665C61.5348 129.772 62.8788 128.88 63.3921 127.609C63.9081 126.333 63.4831 124.906 62.1927 124.314Z" fill="#DEB841"/>
</svg>
