<svg width="36" height="32" viewBox="0 0 36 32" fill="none" xmlns="http://www.w3.org/2000/svg">
<g clip-path="url(#clip0_58_151)">
<path d="M15.8313 2.19375C16.2125 1.45625 15.925 0.55 15.1938 0.16875C14.4625 -0.2125 13.55 0.0750001 13.1687 0.80625L7.35 12H2C0.89375 12 0 12.8938 0 14C0 15.1062 0.89375 16 2 16L5.24375 28.9688C5.6875 30.75 7.2875 32 9.125 32H26.875C28.7125 32 30.3125 30.75 30.7563 28.9688L34 16C35.1063 16 36 15.1062 36 14C36 12.8938 35.1063 12 34 12H28.65L22.8312 0.80625C22.45 0.0750001 21.5437 -0.2125 20.8062 0.16875C20.0688 0.55 19.7875 1.45625 20.1688 2.19375L25.2687 12H10.7312L15.8313 2.19375ZM12 19V25C12 25.55 11.55 26 11 26C10.45 26 10 25.55 10 25V19C10 18.45 10.45 18 11 18C11.55 18 12 18.45 12 19ZM18 18C18.55 18 19 18.45 19 19V25C19 25.55 18.55 26 18 26C17.45 26 17 25.55 17 25V19C17 18.45 17.45 18 18 18ZM26 19V25C26 25.55 25.55 26 25 26C24.45 26 24 25.55 24 25V19C24 18.45 24.45 18 25 18C25.55 18 26 18.45 26 19Z" fill="white"/>
</g>
<defs>
<clipPath id="clip0_58_151">
<rect width="36" height="32" fill="white"/>
</clipPath>
</defs>
</svg>
