<svg width="138" height="139" viewBox="0 0 138 139" fill="none" xmlns="http://www.w3.org/2000/svg">
<path d="M13.248 30.03C13.2221 30.0343 13.1971 30.0418 13.1713 30.0469C13.1807 30.0398 13.1309 30.0457 13.0562 30.0617C13.0523 30.0657 13.0542 30.0692 13.0605 30.0711C12.9928 30.0872 12.925 30.1005 12.8577 30.1173C12.8569 30.1197 12.8558 30.1224 12.855 30.1248C12.956 30.1036 13.0303 30.0864 13.0805 30.0739C13.1219 30.075 13.2151 30.0625 13.3834 30.0218C13.3619 30.0214 13.3408 30.0206 13.3192 30.0206C13.2954 30.0238 13.2707 30.0261 13.248 30.03Z" fill="#272E52"/>
<path d="M12.6714 30.7413C12.6706 30.7468 12.6702 30.7527 12.6698 30.7581C12.6878 30.7554 12.7211 30.6685 12.7371 30.4485C12.7324 30.4614 12.7273 30.4743 12.723 30.4876C12.7054 30.5726 12.6827 30.6595 12.6714 30.7413Z" fill="#272E52"/>
<path d="M101.791 81.6152C99.7816 80.352 97.7844 79.0712 95.801 77.768C91.2828 74.7992 86.8206 71.7455 82.3804 68.6624C77.4724 65.2548 72.5925 61.8073 67.7189 58.3512C62.6892 54.7843 57.6668 51.2072 52.6339 47.645C47.7537 44.1912 42.8641 40.7503 37.9427 37.3553C33.5052 34.2937 29.0431 31.2662 24.521 28.3303C23.4954 27.6645 22.4667 27.0033 21.4336 26.3488C20.931 26.0302 20.435 25.6888 19.9121 25.4046C19.2442 25.0417 18.5275 24.8601 17.7829 24.7239C14.4568 24.1156 10.7736 26.1832 8.81988 28.775C7.64122 30.3381 6.93972 31.9943 6.77961 33.9492C6.7389 34.4468 6.69506 34.9443 6.65239 35.4422C6.46527 37.6422 6.27777 39.8418 6.09065 42.0417C5.80881 45.3518 5.52697 48.662 5.24513 51.9721C4.91944 55.7974 4.59374 59.6226 4.26805 63.4479C3.94902 67.1933 3.63039 70.9387 3.31135 74.6841C3.04986 77.7547 2.78877 80.8249 2.52728 83.8954C2.37422 85.6914 2.22155 87.487 2.0685 89.283C2.04775 89.5257 2.027 89.7688 2.00664 90.0115C1.95888 90.5728 2.15891 91.1146 2.6999 91.3588C3.27142 91.6164 4.1291 91.4199 4.65991 91.1831C6.02216 90.5751 7.69366 89.1753 7.83145 87.5563C8.017 85.3747 8.20293 83.1932 8.38848 81.012C8.81986 75.9435 9.25163 70.8749 9.68301 65.806C10.1798 59.9722 10.6761 54.1384 11.1729 48.3046C11.5542 43.8275 11.935 39.3505 12.3163 34.8735C12.4075 33.8036 12.4983 32.7338 12.5895 31.6639C12.6154 31.3633 12.6283 31.0564 12.6694 30.7585C12.653 30.7609 12.649 30.6963 12.6811 30.6012C12.6941 30.5628 12.7093 30.5256 12.7226 30.4876C12.7328 30.4375 12.741 30.3878 12.743 30.3401C12.7414 30.3796 12.7395 30.4152 12.7367 30.4485C12.7751 30.3404 12.8142 30.2324 12.8546 30.1255C12.8506 30.1263 12.8471 30.1271 12.8432 30.1279C12.8448 30.1255 12.8464 30.1228 12.8475 30.1204C12.8507 30.1197 12.8538 30.1189 12.8573 30.1181C12.8573 30.1181 12.8577 30.1169 12.8581 30.1161C12.9258 30.0934 12.9978 30.0746 13.0562 30.0621C13.0714 30.0461 13.1603 30.0198 13.2679 30.0202C13.2852 30.0202 13.302 30.021 13.3192 30.021C13.3795 30.0144 13.441 30.0081 13.4958 29.9936C13.455 30.0046 13.4183 30.0136 13.3838 30.0222C13.6747 30.0261 13.9581 30.0398 14.243 30.077C15.543 30.4348 16.6587 31.2831 17.7829 32.0002C19.0058 32.7804 20.2237 33.5691 21.4372 34.3642C24.0693 36.0885 26.6822 37.8422 29.2834 39.6124C34.9806 43.4893 40.6238 47.4449 46.2521 51.4209C52.145 55.5836 58.0199 59.7722 63.9062 63.9446C69.5607 67.9527 75.2239 71.9495 80.9324 75.8804C85.9078 79.3064 90.9141 82.6917 96.0174 85.9251C96.5005 86.2312 96.9968 86.5236 97.4744 86.8403C97.822 87.1272 98.1117 87.4584 98.3462 87.8401C98.4843 88.1756 98.5763 88.5208 98.6233 88.8802C98.6214 88.9573 98.6143 89.0344 98.608 89.1115C98.3665 89.2293 98.1254 89.3468 97.8839 89.4646C97.0712 89.8608 96.2585 90.2569 95.4459 90.6535C92.1303 92.2701 88.8147 93.8861 85.4987 95.502C78.9321 98.7021 72.3647 101.901 65.7965 105.099C59.1962 108.312 52.5948 111.524 45.9933 114.736C39.424 117.931 32.8542 121.125 26.2841 124.318C19.943 127.399 13.5662 130.42 7.23761 133.523C7.2059 133.529 7.17537 133.536 7.14366 133.542C7.11391 133.539 7.08495 133.536 7.0556 133.533C6.93307 133.488 6.81719 133.434 6.70328 133.371C6.45118 133.147 6.23785 132.894 6.06053 132.61C5.9427 132.311 5.86324 132.006 5.81979 131.689C5.83349 130.865 5.97166 130.025 6.05073 129.209C6.14429 128.246 6.23746 127.282 6.33063 126.319C6.51031 124.464 6.69037 122.609 6.87005 120.754C7.23645 116.972 7.60283 113.191 7.96962 109.409C8.02364 108.851 7.81226 108.304 7.27636 108.062C6.70484 107.805 5.84718 108.001 5.31638 108.238C3.93925 108.852 2.3022 110.241 2.14483 111.865C1.77139 115.717 1.39794 119.57 1.0245 123.423C0.837774 125.349 0.65104 127.276 0.464317 129.202C0.37076 130.166 0.277584 131.129 0.184418 132.092C0.0838149 133.13 -0.0743299 134.166 0.0395827 135.209C0.245878 137.101 1.67821 138.622 3.54583 138.9C5.16488 139.141 6.78824 138.333 8.20021 137.648C11.7135 135.942 15.2268 134.235 18.7401 132.529C25.7662 129.116 32.7916 125.701 39.8166 122.286C46.8416 118.87 53.8654 115.452 60.8889 112.033C67.8798 108.631 74.87 105.226 81.8598 101.82C85.3707 100.11 88.8816 98.3983 92.3926 96.6869C94.1478 95.8312 95.9031 94.9755 97.6584 94.1194C98.6022 93.6594 99.6152 93.2515 100.477 92.6503C101.604 91.8642 102.594 90.9236 103.334 89.7574C104.231 88.3419 104.683 86.6121 104.339 84.9492C104.028 83.4441 103.049 82.4063 101.791 81.6152ZM12.7039 30.2661C12.7262 30.2406 12.7469 30.2136 12.7681 30.1874C12.7669 30.1901 12.7653 30.1932 12.7641 30.196C12.7442 30.2195 12.7258 30.2406 12.7039 30.2661ZM12.8984 30.0343C12.8996 30.0324 12.9004 30.0308 12.9015 30.0288C12.9097 30.0214 12.9164 30.0151 12.9231 30.0089C12.9172 30.0159 12.9105 30.0238 12.9043 30.0312C12.9023 30.0324 12.9004 30.0335 12.8984 30.0343ZM12.8115 30.1342C12.8123 30.1334 12.8127 30.1326 12.8135 30.1318C12.8166 30.1306 12.8193 30.1294 12.8225 30.1283C12.8213 30.1294 12.8201 30.131 12.8189 30.1326C12.8162 30.1334 12.8142 30.1338 12.8115 30.1342ZM12.9653 29.9584C12.9626 29.9588 12.9591 29.9599 12.9532 29.9627C13.0933 29.8026 13.0957 29.7854 13.0397 29.8319C13.1411 29.7094 13.2002 29.6734 12.9653 29.9584ZM7.37697 133.497C7.46935 133.463 7.54804 133.438 7.55 133.448C7.55078 133.451 7.41847 133.486 7.37697 133.497ZM98.446 89.7277C98.4401 89.7242 98.4573 89.6866 98.4844 89.6353C98.4652 89.6803 98.4452 89.7273 98.446 89.7277Z" fill="#272E52"/>
<path d="M9.67873 0.105492C9.41175 -0.0103784 9.15418 -0.0127305 8.91109 0.0138882C8.59871 0.0487275 8.28867 0.0913946 7.97747 0.130148C6.86261 0.269114 5.74816 0.408071 4.63331 0.547428C3.47148 0.692266 2.16009 0.65429 1.35566 1.59965C1.07655 1.92768 0.847172 2.32266 0.754789 2.83311C0.695288 3.16272 0.705086 3.51581 0.751277 3.89004C0.831916 4.54377 0.986137 5.22136 1.12589 5.88214C1.7162 8.67319 2.52179 11.4756 3.51882 14.2338C4.52407 17.0147 5.72192 19.7568 7.08652 22.3991C8.4339 25.0077 9.94884 27.5228 11.607 29.8899C12.0177 30.4763 12.4377 31.0533 12.8652 31.6209C12.9642 31.7587 13.1141 31.7591 13.2241 31.7403C13.2452 31.7368 13.2656 31.7329 13.2832 31.7286C14.0544 31.5481 14.833 31.3845 15.5979 31.1872C16.5334 30.9457 16.8309 29.5932 17.0185 28.4881C17.1766 27.5588 17.2224 26.5598 17.2154 25.5483C17.2013 23.4505 16.9903 21.229 16.5092 19.0263C16.2453 17.8179 15.8453 16.6087 15.4722 15.4073C14.9997 13.885 14.5104 12.3646 14.0051 10.8469C12.9892 7.79753 11.908 4.75986 10.7623 1.73863C10.5247 1.11231 10.2491 0.353281 9.67873 0.105492ZM2.18986 2.18878C2.1926 2.19152 2.18867 2.20327 2.1824 2.21815C2.1871 2.2021 2.19064 2.18957 2.18986 2.18878ZM1.97299 2.51683C1.97964 2.51448 1.98669 2.51251 1.99334 2.51016C1.9863 2.5129 1.97808 2.51566 1.96986 2.5184C1.97064 2.51801 1.97181 2.51761 1.97299 2.51683ZM1.95734 2.52192C1.95656 2.52231 1.95576 2.5231 1.95497 2.52349C1.93031 2.5321 1.9178 2.53523 1.95734 2.52192Z" fill="#DEB841"/>
<path d="M15.7122 24.7474C15.7122 24.7466 15.7122 24.7454 15.7122 24.7454C15.7138 24.7736 15.7146 24.7875 15.7149 24.7911C15.7142 24.7764 15.7134 24.7621 15.7122 24.7474Z" fill="#DEB841"/>
<path d="M121.78 107.973C119.047 107.349 100.885 104.241 98.1309 103.715C95.4208 103.197 92.7038 102.717 89.9843 102.253C87.2555 101.786 84.5248 101.335 81.7952 100.874C79.0284 100.406 76.2632 99.9293 73.5034 99.42C70.7128 98.9049 57.0773 96.171 54.3043 95.5693C53.9426 95.4907 53.5809 95.4116 53.2195 95.3313C52.8488 95.2491 52.5404 95.5345 52.4061 95.8684C52.3329 96.0504 52.2746 96.2638 52.3176 96.4603C52.3462 96.5914 52.4135 96.7958 52.5662 96.8298C55.4058 97.4601 69.1078 100.223 71.9662 100.761C74.7314 101.281 77.5029 101.766 80.2767 102.237C83.0094 102.702 85.7438 103.154 88.4765 103.617C91.1963 104.078 93.9141 104.551 96.6253 105.058C99.3228 105.563 117.418 108.642 120.091 109.238C120.436 109.315 120.781 109.393 121.127 109.472C121.497 109.556 121.807 109.267 121.94 108.935C122.013 108.753 122.072 108.539 122.029 108.343C122 108.211 121.933 108.008 121.78 107.973Z" fill="#DEB841"/>
<path d="M118.042 111.054C122.22 111.874 126.398 112.694 130.576 113.514C131.75 113.744 132.924 113.974 134.098 114.205C134.434 114.2 134.737 114.105 135.009 113.921C135.355 113.766 135.652 113.539 135.901 113.243C136.486 112.63 136.991 111.696 137.171 110.867C137.327 110.144 137.453 109.257 137.109 108.568C137.001 108.393 136.893 108.218 136.784 108.043C136.506 107.74 136.161 107.59 135.75 107.592C131.572 106.772 127.394 105.952 123.216 105.133C122.042 104.902 120.868 104.672 119.694 104.441C119.358 104.446 119.055 104.541 118.783 104.725C118.437 104.88 118.14 105.106 117.891 105.403C117.306 106.016 116.801 106.95 116.621 107.779C116.465 108.502 116.339 109.389 116.683 110.079C116.791 110.254 116.899 110.428 117.008 110.603C117.286 110.906 117.631 111.056 118.042 111.054Z" fill="#272E52"/>
<path d="M2.87646 111.07C3.27496 110.304 3.94397 109.744 4.69947 109.325C5.16099 109.069 5.6323 108.809 6.15019 108.707C6.49075 108.64 6.86732 108.65 7.15465 108.845C7.44197 109.039 7.58995 109.461 7.40009 109.751C7.31436 109.882 7.17657 109.969 7.0423 110.05C5.85816 110.758 4.57499 111.3 3.2417 111.655C3.2417 111.655 2.56369 111.673 2.87646 111.07Z" fill="#DEB841"/>
<path d="M2.66585 90.2742C2.85649 90.5537 3.11992 90.7889 3.45735 90.8136C3.79479 90.8383 4.12634 90.7232 4.43637 90.5885C5.45493 90.1458 6.36975 89.4658 7.08768 88.6179C7.23369 88.4453 7.38009 88.2296 7.32333 88.0112C7.27792 87.837 7.10842 87.7164 6.93187 87.68C6.75533 87.644 6.57253 87.6777 6.39755 87.7207C5.25959 88.0014 4.26102 88.6676 3.28865 89.3218C3.28865 89.3218 2.46112 89.9747 2.66585 90.2742Z" fill="#DEB841"/>
</svg>
