<svg width="259" height="256" viewBox="0 0 259 256" fill="none" xmlns="http://www.w3.org/2000/svg">
<path d="M41.229 57.7118C46.5436 62.7546 49.8741 66.429 54.4378 70.9541C26.9014 93.2278 47.1156 112.831 47.1156 112.831C56.4708 124.611 65.9045 133.987 76.7094 144.53C85.1398 152.704 93.5705 160.878 102.001 169.052C107.547 174.338 112.937 179.805 118.675 184.87C128.482 193.525 138.683 201.567 151.279 205.547C164.12 209.604 175.713 200.532 174.504 187.371C174.03 182.208 172.376 177.39 170.007 172.939C167.599 168.412 164.386 164.314 160.66 160.724C143.671 144.351 124.957 127.726 106.252 108.45C95.0869 99.3686 86.5933 88.0166 75.6891 77.4672C84.875 76.7199 90.8644 81.7224 96.5171 86.1432C113.873 99.7178 129.976 114.8 145.639 130.313C159.202 143.746 173.944 156.059 185.11 171.804C190.085 178.818 192.571 185.669 191.706 194.614C191.706 194.614 191.583 215.924 194.144 227.537C194.616 229.676 195.473 231.582 199.513 229.685C201.981 228.527 203.766 226.45 205.918 224.551C222.545 209.876 239.443 192.523 253.321 174.973C254.837 173.056 255.803 171.113 254.737 168.567C253.605 165.863 251.282 165.21 248.765 165.254C241.69 165.375 231.608 166.527 224.504 167.042C218.21 167.497 205.944 168.963 200.214 164.645C185.362 153.451 170.856 138.815 157.389 125.839C140.51 109.576 124.698 94.4735 107.806 78.224C94.3838 65.3129 79.5269 54.9906 64.0807 64.2749C63.7424 64.4781 63.4203 64.6814 63.091 64.8845C58.1091 60.126 53.1272 55.3668 48.1452 50.6083L47.9542 50.3869L46.4903 49.1432C46.1999 48.8596 46.1157 48.4394 46.2684 48.0966C46.7887 46.9295 47.5295 45.8752 48.4454 45.0022C48.6507 44.8066 48.8783 44.5916 48.8921 44.2977C48.9041 44.0479 48.7565 43.8072 48.6117 43.5883C47.7532 42.2905 46.7832 41.0599 45.7184 39.9164C45.5344 39.7189 45.328 39.5127 45.0703 39.4616C44.7341 39.395 44.44 39.6132 44.1915 39.8195C38.4678 44.5737 34.4308 47.5971 30.5292 53.9587C30.3977 54.1733 30.2638 54.4121 30.3042 54.6739C30.3493 54.9641 30.5938 55.1936 30.8219 55.3943L33.9237 58.1854C34.2784 58.4979 34.7887 58.5159 35.1107 58.2273L36.3129 57.3936C36.7684 56.9858 38.1593 55.9144 38.7893 55.8526C39.2528 55.8069 39.7029 56.2426 40.8351 57.3532L41.229 57.7118ZM52.4552 96.6492C52.5259 96.4904 52.5987 96.3336 52.6435 96.1641C53.0519 94.625 55.651 86.0292 63.3856 83.3315C64.3786 82.9853 65.5418 83.325 66.3153 84.1492L113.963 130.334C130.902 147.491 154.785 161.331 162.086 183.954C162.923 186.548 161.331 189.881 159.351 191.631C157.143 193.581 154.926 193.759 152.421 192.832C145.384 190.228 139.11 185.686 133.094 181.021C103.465 158.046 48.213 106.191 52.4552 96.6492Z" fill="#3B3B3B"/>
<path d="M155.52 117.749L99.9008 178.275C98.5822 179.71 95.7564 177.949 96.1154 175.913C96.434 174.104 97.5004 172.295 98.6489 170.995C115.391 152.044 132.132 133.094 148.874 114.144C150.107 112.747 151.644 111.252 153.756 111.649C155.868 112.047 157.861 114.559 156.426 116.748L155.52 117.749Z" fill="#DEB841"/>
<path d="M82.6606 158.952L138.28 98.4265C139.599 96.9915 142.425 98.7525 142.066 100.789C141.747 102.598 140.681 104.407 139.532 105.707C122.79 124.658 106.049 143.608 89.3074 162.558C88.0741 163.955 86.5366 165.45 84.4246 165.053C82.3134 164.656 80.3205 162.143 81.755 159.954L82.6606 158.952Z" fill="#DEB841"/>
<path d="M67.648 144.457L122.636 84.5831C123.939 83.1636 127.427 85.5771 127.081 87.6002C126.774 89.3966 125.057 90.5431 123.921 91.8289C107.374 110.579 90.827 129.329 74.2794 148.079C73.0605 149.46 71.5393 150.939 69.4366 150.532C67.3342 150.125 65.3386 147.616 66.7533 145.448L67.648 144.457Z" fill="#DEB841"/>
<path d="M162.798 109.512C163.654 108.574 164.569 107.631 164.905 106.352C165.242 105.072 164.857 103.376 163.637 102.43C162.476 101.529 160.895 101.592 159.908 102.301C158.922 103.009 158.439 104.226 158.203 105.478C158.032 106.378 157.982 107.371 158.405 108.307C158.828 109.243 159.85 110.073 160.78 109.979C160.78 109.979 161.999 110.387 162.798 109.512Z" fill="#DEB841"/>
<path d="M147.045 96.3153C149.257 96.1315 151.517 95.0609 151.206 92.4052C151.03 90.9099 150.07 89.5104 148.66 88.8764C148.42 88.7685 148.171 88.6853 147.918 88.6428C146.859 88.4651 145.848 89.0306 145.245 89.8443C144.795 90.4507 144.533 91.1762 144.346 91.928C144.221 92.4302 144.254 92.9726 144.46 93.4776C144.906 94.5679 145.843 96.4154 147.045 96.3153Z" fill="#DEB841"/>
<path d="M131.134 82.9614C133.345 82.7779 135.606 81.7069 135.294 79.0513C135.119 77.556 134.158 76.1565 132.748 75.5225C132.509 75.4145 132.26 75.3314 132.006 75.2889C130.948 75.1112 129.937 75.6767 129.333 76.4901C128.883 77.0965 128.279 77.8141 128.091 78.5659C127.966 79.0681 127.972 79.7794 128.178 80.2844C128.624 81.3755 129.932 83.0612 131.134 82.9614Z" fill="#DEB841"/>
</svg>
